<svg width="101" height="32" viewBox="0 0 101 32" fill="none" xmlns="http://www.w3.org/2000/svg">
<rect x="0.5" y="0.5" width="100" height="31" rx="7.5" stroke="url(#paint0_linear_322_3614)"/>
<path d="M16.0002 8C18.1738 8 18.445 8.008 19.2978 8.048C20.1506 8.088 20.7298 8.2216 21.2402 8.42C21.7682 8.6232 22.213 8.8984 22.6578 9.3424C23.0647 9.74219 23.3795 10.226 23.5802 10.76C23.7778 11.2696 23.9122 11.8504 23.9522 12.7024C23.9898 13.5552 24.0002 13.8264 24.0002 16C24.0002 18.1736 23.9922 18.4448 23.9522 19.2976C23.9122 20.1504 23.7778 20.7296 23.5802 21.24C23.3795 21.774 23.0647 22.2578 22.6578 22.6576C22.258 23.0646 21.7742 23.3793 21.2402 23.58C20.7306 23.7776 20.1498 23.912 19.2978 23.952C18.445 23.9896 18.1738 24 16.0002 24C13.8266 24 13.5554 23.992 12.7026 23.952C11.8498 23.912 11.2706 23.7776 10.7602 23.58C10.2261 23.3793 9.74234 23.0646 9.34255 22.6576C8.9356 22.2578 8.62081 21.774 8.42015 21.24C8.22175 20.7304 8.08815 20.1496 8.04815 19.2976C8.01055 18.4448 8.00015 18.1736 8.00015 16C8.00015 13.8264 8.00815 13.5552 8.04815 12.7024C8.08815 11.8496 8.22175 11.2704 8.42015 10.76C8.62081 10.226 8.9356 9.74219 9.34255 9.3424C9.74234 8.93545 10.2261 8.62065 10.7602 8.42C11.2706 8.2216 11.8498 8.088 12.7026 8.048C13.5554 8.0104 13.8266 8 16.0002 8ZM16.0002 12C14.9393 12 13.9219 12.4214 13.1717 13.1716C12.4216 13.9217 12.0002 14.9391 12.0002 16C12.0002 17.0609 12.4216 18.0783 13.1717 18.8284C13.9219 19.5786 14.9393 20 16.0002 20C17.061 20 18.0784 19.5786 18.8286 18.8284C19.5787 18.0783 20.0002 17.0609 20.0002 16C20.0002 14.9391 19.5787 13.9217 18.8286 13.1716C18.0784 12.4214 17.061 12 16.0002 12ZM21.2002 11.8C21.2002 11.5348 21.0948 11.2804 20.9073 11.0929C20.7197 10.9054 20.4654 10.8 20.2002 10.8C19.9349 10.8 19.6806 10.9054 19.493 11.0929C19.3055 11.2804 19.2002 11.5348 19.2002 11.8C19.2002 12.0652 19.3055 12.3196 19.493 12.5071C19.6806 12.6946 19.9349 12.8 20.2002 12.8C20.4654 12.8 20.7197 12.6946 20.9073 12.5071C21.0948 12.3196 21.2002 12.0652 21.2002 11.8ZM16.0002 13.6C16.6367 13.6 17.2471 13.8529 17.6972 14.3029C18.1473 14.753 18.4002 15.3635 18.4002 16C18.4002 16.6365 18.1473 17.247 17.6972 17.6971C17.2471 18.1471 16.6367 18.4 16.0002 18.4C15.3636 18.4 14.7532 18.1471 14.3031 17.6971C13.853 17.247 13.6002 16.6365 13.6002 16C13.6002 15.3635 13.853 14.753 14.3031 14.3029C14.7532 13.8529 15.3636 13.6 16.0002 13.6Z" fill="url(#paint1_linear_322_3614)"/>
<path d="M31 12H32.1125V21H31V12ZM39.2133 14.6625C39.6133 14.9875 39.8758 15.4042 40.0008 15.9125C40.1258 16.4125 40.1841 17.0167 40.1758 17.725V21H39.0508V17.7625C39.0508 17.2042 39.0008 16.7417 38.9008 16.375C38.8091 16.0083 38.6258 15.7167 38.3508 15.5C38.0258 15.2333 37.6091 15.1083 37.1008 15.125C36.6674 15.15 36.3133 15.2833 36.0383 15.525C35.7299 15.7833 35.5341 16.1458 35.4508 16.6125C35.3924 16.8792 35.3633 17.3542 35.3633 18.0375V18.05V21H34.2508V14.25H35.2383V15.1375C35.2633 15.0958 35.3549 14.9875 35.5133 14.8125C35.9299 14.3625 36.4966 14.1208 37.2133 14.0875C38.0299 14.0292 38.6966 14.2208 39.2133 14.6625ZM47.1469 16.0125L46.0844 16.275C45.926 15.8333 45.6552 15.5083 45.2719 15.3C44.9885 15.15 44.651 15.0667 44.2594 15.05C43.926 15.0417 43.6094 15.1 43.3094 15.225C42.9594 15.3833 42.7844 15.6125 42.7844 15.9125C42.7844 16.1542 42.8802 16.3375 43.0719 16.4625C43.2302 16.5708 43.4719 16.6708 43.7969 16.7625C44.1052 16.8542 44.5552 16.9792 45.1469 17.1375C45.6885 17.2792 46.1219 17.4833 46.4469 17.75C46.9302 18.1333 47.1719 18.6083 47.1719 19.175C47.1719 19.475 47.0927 19.7708 46.9344 20.0625C46.776 20.3458 46.5635 20.5667 46.2969 20.725C45.8302 21.0333 45.2177 21.1875 44.4594 21.1875C43.4594 21.1875 42.6844 20.8917 42.1344 20.3C42.0927 20.25 42.051 20.2 42.0094 20.15C41.976 20.1 41.9427 20.0583 41.9094 20.025C41.8844 19.9833 41.8552 19.9333 41.8219 19.875C41.7885 19.8167 41.7635 19.775 41.7469 19.75C41.7302 19.7167 41.7094 19.6667 41.6844 19.6C41.6594 19.5333 41.6385 19.4875 41.6219 19.4625C41.6135 19.4375 41.5969 19.3875 41.5719 19.3125C41.5469 19.2292 41.5302 19.175 41.5219 19.15C41.5219 19.125 41.5052 19.0667 41.4719 18.975C41.4469 18.875 41.4302 18.8125 41.4219 18.7875L42.4844 18.525C42.551 18.9917 42.6969 19.35 42.9219 19.6C43.2719 19.9917 43.7885 20.1875 44.4719 20.1875C45.0135 20.1875 45.4344 20.0875 45.7344 19.8875C46.001 19.7042 46.1344 19.4625 46.1344 19.1625C46.1344 18.8958 46.0094 18.6833 45.7594 18.525C45.551 18.4 45.2469 18.2792 44.8469 18.1625C44.2219 17.9875 43.7302 17.8458 43.3719 17.7375C42.8052 17.5292 42.4052 17.3083 42.1719 17.075C41.8802 16.7917 41.7344 16.4167 41.7344 15.95C41.7344 15.5917 41.8385 15.2667 42.0469 14.975C42.2635 14.6833 42.5385 14.4625 42.8719 14.3125C43.2885 14.1292 43.7719 14.0458 44.3219 14.0625C44.8385 14.0625 45.3135 14.1708 45.7469 14.3875C46.0635 14.5542 46.351 14.7875 46.6094 15.0875C46.8677 15.3792 47.0469 15.6875 47.1469 16.0125ZM50.2961 15.1625V18.3875C50.2961 19.0042 50.3461 19.3958 50.4461 19.5625C50.5878 19.8542 50.8461 20.0208 51.2211 20.0625C51.6211 20.0875 51.9919 20.0708 52.3336 20.0125V21C51.7836 21.1417 51.2544 21.1583 50.7461 21.05C50.1128 20.9167 49.6753 20.6125 49.4336 20.1375C49.2669 19.7958 49.1836 19.2333 49.1836 18.45V15.1625H47.8086V14.25H49.1836V12.375H50.2961V14.25H52.3336V15.1625H50.2961ZM59.1156 21H58.1281V19.975C57.5615 20.7833 56.7031 21.1875 55.5531 21.1875C54.8948 21.1875 54.3573 21 53.9406 20.625C53.5323 20.25 53.3281 19.7542 53.3281 19.1375C53.3281 18.2792 53.724 17.65 54.5156 17.25C54.7156 17.15 54.9656 17.0625 55.2656 16.9875C55.574 16.9042 55.8281 16.8458 56.0281 16.8125C56.2365 16.7792 56.5781 16.7292 57.0531 16.6625C57.5365 16.5958 57.849 16.55 57.9906 16.525C57.974 16.0667 57.8156 15.7208 57.5156 15.4875C57.224 15.2458 56.8365 15.125 56.3531 15.125C55.5531 15.125 54.9198 15.4 54.4531 15.95L53.7531 15.2C54.4198 14.4417 55.324 14.0625 56.4656 14.0625C57.1823 14.0625 57.7906 14.2833 58.2906 14.725C58.8406 15.1833 59.1156 15.9 59.1156 16.875V21ZM57.7406 19.1625C57.824 19.0125 57.8865 18.8417 57.9281 18.65C57.9698 18.45 57.9906 18.275 57.9906 18.125C57.999 17.975 58.0031 17.7458 58.0031 17.4375C56.8948 17.6125 56.1698 17.7417 55.8281 17.825C55.4198 17.9083 55.0865 18.0542 54.8281 18.2625C54.5698 18.4708 54.4406 18.7292 54.4406 19.0375C54.4406 19.3875 54.5656 19.6708 54.8156 19.8875C55.0656 20.1042 55.3823 20.2125 55.7656 20.2125C56.6906 20.2125 57.349 19.8625 57.7406 19.1625ZM65.6961 14.25H66.6836V21.05C66.6836 21.6917 66.6044 22.2042 66.4461 22.5875C66.2878 22.9792 66.0128 23.3125 65.6211 23.5875C65.0628 23.9875 64.3711 24.1875 63.5461 24.1875C62.7711 24.1875 62.1336 23.95 61.6336 23.475C61.2919 23.2667 61.0378 23.0125 60.8711 22.7125L61.8961 22.2125C61.9544 22.3208 62.0503 22.4375 62.1836 22.5625C62.5003 22.9292 62.9544 23.1125 63.5461 23.1125C64.1628 23.1125 64.6503 22.9625 65.0086 22.6625C65.2336 22.4792 65.3836 22.2708 65.4586 22.0375C65.5336 21.8042 65.5711 21.4708 65.5711 21.0375V20.3625C65.0461 20.9125 64.3419 21.1875 63.4586 21.1875C62.4836 21.1875 61.7044 20.825 61.1211 20.1C60.6211 19.4667 60.3711 18.6375 60.3711 17.6125C60.3711 16.6042 60.6211 15.7792 61.1211 15.1375C61.6878 14.4208 62.4669 14.0625 63.4586 14.0625C64.3836 14.0625 65.1294 14.3792 65.6961 15.0125V14.25ZM65.1711 19.475C65.5211 19.0417 65.6961 18.4208 65.6961 17.6125C65.6961 16.8208 65.5211 16.2042 65.1711 15.7625C64.8128 15.3042 64.3003 15.075 63.6336 15.075C62.9169 15.075 62.3836 15.325 62.0336 15.825C61.7169 16.2417 61.5586 16.8375 61.5586 17.6125C61.5586 18.4042 61.7128 19.0042 62.0211 19.4125C62.3711 19.9125 62.8961 20.1625 63.5961 20.1625C64.2711 20.1625 64.7961 19.9333 65.1711 19.475ZM71.5211 14.0625C71.8461 14.0458 72.1669 14.0958 72.4836 14.2125V15.2625C72.1503 15.1375 71.8003 15.0875 71.4336 15.1125C70.9003 15.1292 70.4753 15.2958 70.1586 15.6125C69.9003 15.8542 69.7336 16.1333 69.6586 16.45C69.5919 16.7583 69.5586 17.1708 69.5586 17.6875V21H68.4336V14.25H69.4336V15.2375C69.5836 14.9875 69.7836 14.7667 70.0336 14.575C70.4503 14.25 70.9461 14.0792 71.5211 14.0625ZM78.768 21H77.7805V19.975C77.2138 20.7833 76.3555 21.1875 75.2055 21.1875C74.5471 21.1875 74.0096 21 73.593 20.625C73.1846 20.25 72.9805 19.7542 72.9805 19.1375C72.9805 18.2792 73.3763 17.65 74.168 17.25C74.368 17.15 74.618 17.0625 74.918 16.9875C75.2263 16.9042 75.4805 16.8458 75.6805 16.8125C75.8888 16.7792 76.2305 16.7292 76.7055 16.6625C77.1888 16.5958 77.5013 16.55 77.643 16.525C77.6263 16.0667 77.468 15.7208 77.168 15.4875C76.8763 15.2458 76.4888 15.125 76.0055 15.125C75.2055 15.125 74.5721 15.4 74.1055 15.95L73.4055 15.2C74.0721 14.4417 74.9763 14.0625 76.118 14.0625C76.8346 14.0625 77.443 14.2833 77.943 14.725C78.493 15.1833 78.768 15.9 78.768 16.875V21ZM77.393 19.1625C77.4763 19.0125 77.5388 18.8417 77.5805 18.65C77.6221 18.45 77.643 18.275 77.643 18.125C77.6513 17.975 77.6555 17.7458 77.6555 17.4375C76.5471 17.6125 75.8221 17.7417 75.4805 17.825C75.0721 17.9083 74.7388 18.0542 74.4805 18.2625C74.2221 18.4708 74.093 18.7292 74.093 19.0375C74.093 19.3875 74.218 19.6708 74.468 19.8875C74.718 20.1042 75.0346 20.2125 75.418 20.2125C76.343 20.2125 77.0013 19.8625 77.393 19.1625ZM88.8609 14.6C89.1776 14.8833 89.3776 15.1875 89.4609 15.5125C89.5526 15.8375 89.5984 16.2833 89.5984 16.85L89.5859 21H88.4734L88.4859 16.9125C88.4859 16.5375 88.4526 16.2458 88.3859 16.0375C88.3276 15.8208 88.1943 15.6208 87.9859 15.4375C87.7193 15.1875 87.4026 15.0625 87.0359 15.0625C86.5609 15.0625 86.1818 15.2375 85.8984 15.5875C85.6734 15.8708 85.5609 16.2458 85.5609 16.7125V16.85L85.5484 21H84.4359L84.4484 16.9125C84.4484 16.5375 84.4151 16.2458 84.3484 16.0375C84.2901 15.8208 84.1568 15.6208 83.9484 15.4375C83.6818 15.1875 83.3651 15.0625 82.9984 15.0625C82.5234 15.0625 82.1443 15.2375 81.8609 15.5875C81.6359 15.8708 81.5234 16.2458 81.5234 16.7125V21H80.3984V14.25H81.3984V14.975C81.8651 14.375 82.4943 14.075 83.2859 14.075C83.9276 14.075 84.4401 14.25 84.8234 14.6C85.0151 14.7667 85.1734 14.9625 85.2984 15.1875C85.3234 15.1375 85.3401 15.1083 85.3484 15.1C85.5651 14.775 85.8484 14.525 86.1984 14.35C86.5484 14.1667 86.9234 14.075 87.3234 14.075C87.9651 14.075 88.4776 14.25 88.8609 14.6Z" fill="#12181F"/>
<defs>
<linearGradient id="paint0_linear_322_3614" x1="2.55051" y1="2" x2="97.1086" y2="31.0442" gradientUnits="userSpaceOnUse">
<stop stop-color="#0ACC65"/>
<stop offset="1" stop-color="#ADF7D0"/>
</linearGradient>
<linearGradient id="paint1_linear_322_3614" x1="16.0002" y1="8" x2="16.0002" y2="24" gradientUnits="userSpaceOnUse">
<stop stop-color="#F9CE34"/>
<stop offset="0.455" stop-color="#EE2A7B"/>
<stop offset="1" stop-color="#6228D7"/>
</linearGradient>
</defs>
</svg>
