<svg width="84" height="32" viewBox="0 0 84 32" fill="none" xmlns="http://www.w3.org/2000/svg">
<rect x="0.5" y="0.5" width="83" height="31" rx="7.5" stroke="url(#paint0_linear_347_1683)"/>
<path d="M23.9988 12.0561C23.9988 11.5473 24.0021 11.0397 23.9977 10.5321C23.9955 10.4522 23.8944 10.4027 23.8267 10.4398C22.9362 10.8877 22.0446 11.3357 21.1541 11.7837C21.0864 11.491 20.9776 11.2063 20.8054 10.9609C20.4379 10.4139 19.8194 10.0492 19.1677 10.0008C16.1353 9.99972 13.1018 9.99972 10.0694 10.0008C9.03014 10.0211 8.0941 10.9091 8.00418 11.9581C7.99753 12.4489 8.00084 12.9407 8.00084 13.4314C7.99085 13.5496 8.07967 13.6498 8.17737 13.7027C9.70299 14.4714 11.232 15.2345 12.7576 16.0055C11.243 16.7585 9.73407 17.5227 8.22178 18.2802C8.11629 18.3286 8.00194 18.4209 8.00194 18.5492C7.99974 19.041 7.9986 19.5329 8.00304 20.0258C8.07856 21.0039 8.88913 21.8604 9.84845 21.9842C10.0394 22.0023 10.2304 21.9989 10.4214 22H18.9023C19.1066 21.9966 19.3142 22.0034 19.513 21.9482C20.1126 21.803 20.6411 21.3877 20.932 20.8373C21.0431 20.6448 21.0919 20.4254 21.1652 20.2183C22.0357 20.6786 22.9251 21.1052 23.8023 21.5531C23.88 21.6128 24.0066 21.5542 23.9988 21.4507C23.9988 20.9431 23.9999 20.4343 23.9988 19.9256C23.9966 19.8221 23.9189 19.7399 23.8278 19.7028C21.3728 18.4703 18.9189 17.2356 16.4639 16.0032C18.9234 14.7662 21.385 13.5315 23.8444 12.2946C23.9366 12.2553 24.0055 12.1596 23.9988 12.0561ZM19.5441 19.4136C19.533 19.6297 19.5851 19.866 19.473 20.063C19.3786 20.2363 19.1865 20.3455 18.9922 20.3433C16.062 20.3444 13.1307 20.3433 10.1993 20.3433C9.99281 20.3511 9.78626 20.2341 9.6941 20.0461C9.5964 19.8582 9.64081 19.6398 9.63302 19.4372C11.2875 18.5998 12.9463 17.7715 14.603 16.9374C16.253 17.7523 17.8974 18.5897 19.5441 19.4136ZM19.5429 12.5929C17.8996 13.4179 16.2563 14.2429 14.6141 15.0691C12.9507 14.2407 11.293 13.4033 9.63192 12.5693C9.64081 12.3689 9.5986 12.154 9.68966 11.9683C9.78072 11.7758 9.98836 11.6542 10.1982 11.6621C13.1285 11.6621 16.0587 11.661 18.9889 11.6621C19.2565 11.6543 19.5085 11.8726 19.5385 12.1438C19.5507 12.2935 19.5441 12.4432 19.5429 12.5929Z" fill="#12181F"/>
<path d="M23.9988 12.0561C23.9988 11.5473 24.0021 11.0397 23.9977 10.5321C23.9955 10.4522 23.8944 10.4027 23.8267 10.4398C22.9362 10.8877 22.0446 11.3357 21.1541 11.7837C21.0864 11.491 20.9776 11.2063 20.8054 10.9609C20.4379 10.4139 19.8194 10.0492 19.1677 10.0008C16.1353 9.99972 13.1018 9.99972 10.0694 10.0008C9.03014 10.0211 8.0941 10.9091 8.00418 11.9581C7.99753 12.4489 8.00084 12.9407 8.00084 13.4314C7.99085 13.5496 8.07967 13.6498 8.17737 13.7027C9.70299 14.4714 11.232 15.2345 12.7576 16.0055C11.243 16.7585 9.73407 17.5227 8.22178 18.2802C8.11629 18.3286 8.00194 18.4209 8.00194 18.5492C7.99974 19.041 7.9986 19.5329 8.00304 20.0258C8.07856 21.0039 8.88913 21.8604 9.84845 21.9842C10.0394 22.0023 10.2304 21.9989 10.4214 22H18.9023C19.1066 21.9966 19.3142 22.0034 19.513 21.9482C20.1126 21.803 20.6411 21.3877 20.932 20.8373C21.0431 20.6448 21.0919 20.4254 21.1652 20.2183C22.0357 20.6786 22.9251 21.1052 23.8023 21.5531C23.88 21.6128 24.0066 21.5542 23.9988 21.4507C23.9988 20.9431 23.9999 20.4343 23.9988 19.9256C23.9966 19.8221 23.9189 19.7399 23.8278 19.7028C21.3728 18.4703 18.9189 17.2356 16.4639 16.0032C18.9234 14.7662 21.385 13.5315 23.8444 12.2946C23.9366 12.2553 24.0055 12.1596 23.9988 12.0561ZM19.5441 19.4136C19.533 19.6297 19.5851 19.866 19.473 20.063C19.3786 20.2363 19.1865 20.3455 18.9922 20.3433C16.062 20.3444 13.1307 20.3433 10.1993 20.3433C9.99281 20.3511 9.78626 20.2341 9.6941 20.0461C9.5964 19.8582 9.64081 19.6398 9.63302 19.4372C11.2875 18.5998 12.9463 17.7715 14.603 16.9374C16.253 17.7523 17.8974 18.5897 19.5441 19.4136ZM19.5429 12.5929C17.8996 13.4179 16.2563 14.2429 14.6141 15.0691C12.9507 14.2407 11.293 13.4033 9.63192 12.5693C9.64081 12.3689 9.5986 12.154 9.68966 11.9683C9.78072 11.7758 9.98836 11.6542 10.1982 11.6621C13.1285 11.6621 16.0587 11.661 18.9889 11.6621C19.2565 11.6543 19.5085 11.8726 19.5385 12.1438C19.5507 12.2935 19.5441 12.4432 19.5429 12.5929Z" fill="#12181F"/>
<path d="M34.392 21.18C33.532 21.18 32.802 20.99 32.202 20.61C31.602 20.23 31.144 19.702 30.828 19.026C30.516 18.35 30.36 17.568 30.36 16.68C30.36 15.792 30.516 15.01 30.828 14.334C31.144 13.658 31.602 13.13 32.202 12.75C32.802 12.37 33.532 12.18 34.392 12.18C35.392 12.18 36.214 12.434 36.858 12.942C37.506 13.45 37.952 14.134 38.196 14.994L37.11 15.282C36.934 14.638 36.62 14.13 36.168 13.758C35.716 13.386 35.124 13.2 34.392 13.2C33.748 13.2 33.212 13.346 32.784 13.638C32.356 13.93 32.034 14.338 31.818 14.862C31.602 15.382 31.492 15.988 31.488 16.68C31.484 17.368 31.59 17.974 31.806 18.498C32.022 19.018 32.346 19.426 32.778 19.722C33.21 20.014 33.748 20.16 34.392 20.16C35.124 20.16 35.716 19.974 36.168 19.602C36.62 19.226 36.934 18.718 37.11 18.078L38.196 18.366C37.952 19.222 37.506 19.906 36.858 20.418C36.214 20.926 35.392 21.18 34.392 21.18ZM41.3539 21.18C40.8699 21.18 40.4639 21.092 40.1359 20.916C39.8119 20.736 39.5659 20.5 39.3979 20.208C39.2339 19.916 39.1519 19.596 39.1519 19.248C39.1519 18.908 39.2159 18.614 39.3439 18.366C39.4759 18.114 39.6599 17.906 39.8959 17.742C40.1319 17.574 40.4139 17.442 40.7419 17.346C41.0499 17.262 41.3939 17.19 41.7739 17.13C42.1579 17.066 42.5459 17.008 42.9379 16.956C43.3299 16.904 43.6959 16.854 44.0359 16.806L43.6519 17.028C43.6639 16.452 43.5479 16.026 43.3039 15.75C43.0639 15.474 42.6479 15.336 42.0559 15.336C41.6639 15.336 41.3199 15.426 41.0239 15.606C40.7319 15.782 40.5259 16.07 40.4059 16.47L39.3919 16.164C39.5479 15.596 39.8499 15.15 40.2979 14.826C40.7459 14.502 41.3359 14.34 42.0679 14.34C42.6559 14.34 43.1599 14.446 43.5799 14.658C44.0039 14.866 44.3079 15.182 44.4919 15.606C44.5839 15.806 44.6419 16.024 44.6659 16.26C44.6899 16.492 44.7019 16.736 44.7019 16.992V21H43.7539V19.446L43.9759 19.59C43.7319 20.114 43.3899 20.51 42.9499 20.778C42.5139 21.046 41.9819 21.18 41.3539 21.18ZM41.5159 20.286C41.8999 20.286 42.2319 20.218 42.5119 20.082C42.7959 19.942 43.0239 19.76 43.1959 19.536C43.3679 19.308 43.4799 19.06 43.5319 18.792C43.5919 18.592 43.6239 18.37 43.6279 18.126C43.6359 17.878 43.6399 17.688 43.6399 17.556L44.0119 17.718C43.6639 17.766 43.3219 17.812 42.9859 17.856C42.6499 17.9 42.3319 17.948 42.0319 18C41.7319 18.048 41.4619 18.106 41.2219 18.174C41.0459 18.23 40.8799 18.302 40.7239 18.39C40.5719 18.478 40.4479 18.592 40.3519 18.732C40.2599 18.868 40.2139 19.038 40.2139 19.242C40.2139 19.418 40.2579 19.586 40.3459 19.746C40.4379 19.906 40.5779 20.036 40.7659 20.136C40.9579 20.236 41.2079 20.286 41.5159 20.286ZM49.2379 21.18C48.6299 21.18 48.1179 21.03 47.7019 20.73C47.2859 20.426 46.9699 20.016 46.7539 19.5C46.5419 18.98 46.4359 18.398 46.4359 17.754C46.4359 17.102 46.5419 16.518 46.7539 16.002C46.9699 15.486 47.2859 15.08 47.7019 14.784C48.1219 14.488 48.6359 14.34 49.2439 14.34C49.8439 14.34 50.3599 14.49 50.7919 14.79C51.2279 15.086 51.5619 15.492 51.7939 16.008C52.0259 16.524 52.1419 17.106 52.1419 17.754C52.1419 18.402 52.0259 18.984 51.7939 19.5C51.5619 20.016 51.2279 20.426 50.7919 20.73C50.3599 21.03 49.8419 21.18 49.2379 21.18ZM46.2559 23.88V14.52H47.2099V19.29H47.3299V23.88H46.2559ZM49.1059 20.202C49.5339 20.202 49.8879 20.094 50.1679 19.878C50.4479 19.662 50.6579 19.37 50.7979 19.002C50.9379 18.63 51.0079 18.214 51.0079 17.754C51.0079 17.298 50.9379 16.886 50.7979 16.518C50.6619 16.15 50.4499 15.858 50.1619 15.642C49.8779 15.426 49.5159 15.318 49.0759 15.318C48.6559 15.318 48.3079 15.422 48.0319 15.63C47.7559 15.834 47.5499 16.12 47.4139 16.488C47.2779 16.852 47.2099 17.274 47.2099 17.754C47.2099 18.226 47.2759 18.648 47.4079 19.02C47.5439 19.388 47.7519 19.678 48.0319 19.89C48.3119 20.098 48.6699 20.202 49.1059 20.202ZM57.0092 21.18C56.1492 21.18 55.4192 20.99 54.8192 20.61C54.2192 20.23 53.7612 19.702 53.4452 19.026C53.1332 18.35 52.9772 17.568 52.9772 16.68C52.9772 15.792 53.1332 15.01 53.4452 14.334C53.7612 13.658 54.2192 13.13 54.8192 12.75C55.4192 12.37 56.1492 12.18 57.0092 12.18C58.0092 12.18 58.8312 12.434 59.4752 12.942C60.1232 13.45 60.5692 14.134 60.8132 14.994L59.7272 15.282C59.5512 14.638 59.2372 14.13 58.7852 13.758C58.3332 13.386 57.7412 13.2 57.0092 13.2C56.3652 13.2 55.8292 13.346 55.4012 13.638C54.9732 13.93 54.6512 14.338 54.4352 14.862C54.2192 15.382 54.1092 15.988 54.1052 16.68C54.1012 17.368 54.2072 17.974 54.4232 18.498C54.6392 19.018 54.9632 19.426 55.3952 19.722C55.8272 20.014 56.3652 20.16 57.0092 20.16C57.7412 20.16 58.3332 19.974 58.7852 19.602C59.2372 19.226 59.5512 18.718 59.7272 18.078L60.8132 18.366C60.5692 19.222 60.1232 19.906 59.4752 20.418C58.8312 20.926 58.0092 21.18 57.0092 21.18ZM64.5891 21.168C64.1731 21.168 63.8151 21.102 63.5151 20.97C63.2191 20.838 62.9731 20.662 62.7771 20.442C62.5811 20.222 62.4271 19.978 62.3151 19.71C62.2031 19.442 62.1231 19.168 62.0751 18.888C62.0311 18.608 62.0091 18.346 62.0091 18.102V14.52H63.0891V17.766C63.0891 18.07 63.1171 18.364 63.1731 18.648C63.2291 18.932 63.3231 19.188 63.4551 19.416C63.5911 19.644 63.7711 19.824 63.9951 19.956C64.2231 20.088 64.5071 20.154 64.8471 20.154C65.1151 20.154 65.3591 20.108 65.5791 20.016C65.7991 19.924 65.9871 19.788 66.1431 19.608C66.2991 19.424 66.4191 19.192 66.5031 18.912C66.5871 18.632 66.6291 18.306 66.6291 17.934L67.3311 18.15C67.3311 18.774 67.2171 19.312 66.9891 19.764C66.7651 20.216 66.4471 20.564 66.0351 20.808C65.6271 21.048 65.1451 21.168 64.5891 21.168ZM66.7491 21V19.266H66.6291V14.52H67.7031V21H66.7491ZM73.001 21C72.617 21.076 72.237 21.106 71.861 21.09C71.489 21.078 71.157 21.004 70.865 20.868C70.573 20.728 70.351 20.512 70.199 20.22C70.071 19.964 70.001 19.706 69.989 19.446C69.981 19.182 69.977 18.884 69.977 18.552V12.72H71.045V18.504C71.045 18.768 71.047 18.994 71.051 19.182C71.059 19.37 71.101 19.532 71.177 19.668C71.321 19.924 71.549 20.074 71.861 20.118C72.177 20.162 72.557 20.15 73.001 20.082V21ZM68.663 15.402V14.52H73.001V15.402H68.663Z" fill="#12181F"/>
<defs>
<linearGradient id="paint0_linear_347_1683" x1="2.12121" y1="2" x2="82.9109" y2="22.6384" gradientUnits="userSpaceOnUse">
<stop stop-color="#0ACC65"/>
<stop offset="1" stop-color="#ADF7D0"/>
</linearGradient>
</defs>
</svg>
