<svg width="78" height="32" viewBox="0 0 78 32" fill="none" xmlns="http://www.w3.org/2000/svg">
<rect x="0.5" y="0.5" width="77" height="31" rx="7.5" stroke="url(#paint0_linear_347_2026)"/>
<path d="M10.4257 10.4721C10.9444 10.8764 11.1391 10.8456 12.1132 10.7832L21.2971 10.2542C21.4918 10.2542 21.3298 10.0678 21.265 10.0368L19.7396 8.97912C19.4474 8.76147 19.058 8.51221 18.3118 8.57456L9.41907 9.19676C9.09476 9.22761 9.02998 9.38315 9.15915 9.50784L10.4257 10.4721ZM10.977 12.5253V21.7948C10.977 22.293 11.2366 22.4794 11.8207 22.4486L21.9137 21.8884C22.4981 21.8575 22.5632 21.5148 22.5632 21.1102V11.9028C22.5632 11.4988 22.4012 11.2809 22.0434 11.312L11.4961 11.9028C11.1069 11.9342 10.977 12.1209 10.977 12.5253ZM20.9409 13.0225C21.0056 13.3027 20.9409 13.5827 20.6482 13.6142L20.1619 13.7072V20.5505C19.7396 20.7682 19.3503 20.8927 19.0259 20.8927C18.5064 20.8927 18.3763 20.7371 17.9872 20.2707L14.8063 15.4803V20.1152L15.8128 20.333C15.8128 20.333 15.8128 20.8927 15.0007 20.8927L12.7619 21.0172C12.6969 20.8927 12.7619 20.5819 12.989 20.5196L13.5733 20.3643V14.2362L12.7621 14.1738C12.697 13.8936 12.8591 13.4895 13.3137 13.4582L15.7155 13.3029L19.0259 18.1556V13.8627L18.1818 13.7698C18.1171 13.4272 18.3763 13.1784 18.7009 13.1476L20.9409 13.0225ZM8.67241 8.35691L17.9223 7.70348C19.0583 7.61002 19.3504 7.67263 20.0644 8.17013L23.017 10.1609C23.5043 10.5032 23.6666 10.5964 23.6666 10.9696V21.8884C23.6666 22.5726 23.4068 22.9773 22.4982 23.0392L11.7564 23.6615C11.0744 23.6927 10.7498 23.5994 10.3927 23.1636L8.21827 20.4574C7.82865 19.9592 7.66663 19.5865 7.66663 19.1505V9.44525C7.66663 8.88566 7.92655 8.41888 8.67241 8.35691Z" fill="#12181F"/>
<path d="M30.84 21V12.36H31.92L36.426 19.11V12.36H37.506V21H36.426L31.92 14.244V21H30.84ZM41.9438 21.18C41.2998 21.18 40.7438 21.034 40.2758 20.742C39.8118 20.45 39.4538 20.046 39.2018 19.53C38.9498 19.014 38.8238 18.422 38.8238 17.754C38.8238 17.074 38.9518 16.478 39.2078 15.966C39.4638 15.454 39.8258 15.056 40.2938 14.772C40.7618 14.484 41.3118 14.34 41.9438 14.34C42.5918 14.34 43.1498 14.486 43.6178 14.778C44.0858 15.066 44.4438 15.468 44.6918 15.984C44.9438 16.496 45.0698 17.086 45.0698 17.754C45.0698 18.43 44.9438 19.026 44.6918 19.542C44.4398 20.054 44.0798 20.456 43.6118 20.748C43.1438 21.036 42.5878 21.18 41.9438 21.18ZM41.9438 20.166C42.6158 20.166 43.1158 19.942 43.4438 19.494C43.7718 19.046 43.9358 18.466 43.9358 17.754C43.9358 17.022 43.7698 16.44 43.4378 16.008C43.1058 15.572 42.6078 15.354 41.9438 15.354C41.4918 15.354 41.1198 15.456 40.8278 15.66C40.5358 15.864 40.3178 16.146 40.1738 16.506C40.0298 16.866 39.9578 17.282 39.9578 17.754C39.9578 18.482 40.1258 19.066 40.4618 19.506C40.7978 19.946 41.2918 20.166 41.9438 20.166ZM50.0088 21C49.6248 21.076 49.2448 21.106 48.8688 21.09C48.4968 21.078 48.1648 21.004 47.8728 20.868C47.5808 20.728 47.3588 20.512 47.2068 20.22C47.0788 19.964 47.0088 19.706 46.9968 19.446C46.9888 19.182 46.9848 18.884 46.9848 18.552V12.72H48.0528V18.504C48.0528 18.768 48.0548 18.994 48.0588 19.182C48.0668 19.37 48.1088 19.532 48.1848 19.668C48.3288 19.924 48.5568 20.074 48.8688 20.118C49.1848 20.162 49.5648 20.15 50.0088 20.082V21ZM45.6708 15.402V14.52H50.0088V15.402H45.6708ZM51.4444 13.374V12.27H52.5124V13.374H51.4444ZM51.4444 21V14.52H52.5124V21H51.4444ZM57.0727 21.18C56.4287 21.18 55.8727 21.034 55.4047 20.742C54.9407 20.45 54.5827 20.046 54.3307 19.53C54.0787 19.014 53.9527 18.422 53.9527 17.754C53.9527 17.074 54.0807 16.478 54.3367 15.966C54.5927 15.454 54.9547 15.056 55.4227 14.772C55.8907 14.484 56.4407 14.34 57.0727 14.34C57.7207 14.34 58.2787 14.486 58.7467 14.778C59.2147 15.066 59.5727 15.468 59.8207 15.984C60.0727 16.496 60.1987 17.086 60.1987 17.754C60.1987 18.43 60.0727 19.026 59.8207 19.542C59.5687 20.054 59.2087 20.456 58.7407 20.748C58.2727 21.036 57.7167 21.18 57.0727 21.18ZM57.0727 20.166C57.7447 20.166 58.2447 19.942 58.5727 19.494C58.9007 19.046 59.0647 18.466 59.0647 17.754C59.0647 17.022 58.8987 16.44 58.5667 16.008C58.2347 15.572 57.7367 15.354 57.0727 15.354C56.6207 15.354 56.2487 15.456 55.9567 15.66C55.6647 15.864 55.4467 16.146 55.3027 16.506C55.1587 16.866 55.0867 17.282 55.0867 17.754C55.0867 18.482 55.2547 19.066 55.5907 19.506C55.9267 19.946 56.4207 20.166 57.0727 20.166ZM66.1337 21V17.754C66.1337 17.446 66.1057 17.15 66.0497 16.866C65.9977 16.582 65.9037 16.328 65.7677 16.104C65.6357 15.876 65.4557 15.696 65.2277 15.564C65.0037 15.432 64.7197 15.366 64.3757 15.366C64.1077 15.366 63.8637 15.412 63.6437 15.504C63.4277 15.592 63.2417 15.728 63.0857 15.912C62.9297 16.096 62.8077 16.328 62.7197 16.608C62.6357 16.884 62.5937 17.21 62.5937 17.586L61.8917 17.37C61.8917 16.742 62.0037 16.204 62.2277 15.756C62.4557 15.304 62.7737 14.958 63.1817 14.718C63.5937 14.474 64.0777 14.352 64.6337 14.352C65.0537 14.352 65.4117 14.418 65.7077 14.55C66.0037 14.682 66.2497 14.858 66.4457 15.078C66.6417 15.294 66.7957 15.538 66.9077 15.81C67.0197 16.078 67.0977 16.352 67.1417 16.632C67.1897 16.908 67.2137 17.17 67.2137 17.418V21H66.1337ZM61.5137 21V14.52H62.4737V16.254H62.5937V21H61.5137Z" fill="#12181F"/>
<defs>
<linearGradient id="paint0_linear_347_2026" x1="1.9697" y1="2" x2="77.6272" y2="19.9468" gradientUnits="userSpaceOnUse">
<stop stop-color="#0ACC65"/>
<stop offset="1" stop-color="#ADF7D0"/>
</linearGradient>
</defs>
</svg>
