<svg width="72" height="32" viewBox="0 0 72 32" fill="none" xmlns="http://www.w3.org/2000/svg">
<rect x="0.5" y="0.5" width="71" height="31" rx="7.5" stroke="url(#paint0_linear_347_2038)"/>
<path fill-rule="evenodd" clip-rule="evenodd" d="M22.08 8H9.8944C8.8448 8 8 8.84615 8 9.89743V22.0769C8 22.5897 8.2048 23.0769 8.5632 23.4359C8.9216 23.7949 9.408 24 9.92 24H22.08C22.592 24 23.0784 23.7949 23.4368 23.4359C23.7952 23.0769 24 22.5897 24 22.0769V9.89743C23.9744 8.84615 23.104 8 22.08 8ZM14.8864 19.5128C14.8864 19.6923 14.8096 19.8462 14.7072 19.9744C14.5792 20.1026 14.4256 20.1538 14.2464 20.1538H11.584C11.2256 20.1538 10.944 19.8718 10.944 19.5128V11.5897C10.944 11.2308 11.2256 10.9487 11.584 10.9487H14.2464C14.6048 10.9487 14.8864 11.2308 14.8864 11.5897V19.5128ZM21.0304 15.8718C21.0304 16.0513 20.9536 16.2051 20.8512 16.3333C20.7232 16.4615 20.5696 16.5128 20.3904 16.5128H17.728C17.3696 16.5128 17.088 16.2308 17.088 15.8718V11.5897C17.088 11.2308 17.3696 10.9487 17.728 10.9487H20.3904C20.7488 10.9487 21.0304 11.2308 21.0304 11.5897V15.8718Z" fill="url(#paint1_linear_347_2038)"/>
<path d="M33.066 21V13.374H30.12V12.36H37.08V13.374H34.134V21H33.066ZM37.4377 21V14.52H38.3917V16.086L38.2357 15.882C38.3117 15.682 38.4097 15.498 38.5297 15.33C38.6537 15.162 38.7917 15.024 38.9437 14.916C39.1117 14.78 39.3017 14.676 39.5137 14.604C39.7257 14.532 39.9417 14.49 40.1617 14.478C40.3817 14.462 40.5877 14.476 40.7797 14.52V15.522C40.5557 15.462 40.3097 15.446 40.0417 15.474C39.7737 15.502 39.5257 15.6 39.2977 15.768C39.0897 15.916 38.9277 16.096 38.8117 16.308C38.6997 16.52 38.6217 16.75 38.5777 16.998C38.5337 17.242 38.5117 17.492 38.5117 17.748V21H37.4377ZM44.605 21.18C43.969 21.18 43.413 21.04 42.937 20.76C42.465 20.476 42.097 20.082 41.833 19.578C41.569 19.07 41.437 18.478 41.437 17.802C41.437 17.094 41.567 16.482 41.827 15.966C42.087 15.446 42.449 15.046 42.913 14.766C43.381 14.482 43.929 14.34 44.557 14.34C45.209 14.34 45.763 14.49 46.219 14.79C46.679 15.09 47.023 15.518 47.251 16.074C47.483 16.63 47.583 17.292 47.551 18.06H46.471V17.676C46.459 16.88 46.297 16.286 45.985 15.894C45.673 15.498 45.209 15.3 44.593 15.3C43.933 15.3 43.431 15.512 43.087 15.936C42.743 16.36 42.571 16.968 42.571 17.76C42.571 18.524 42.743 19.116 43.087 19.536C43.431 19.956 43.921 20.166 44.557 20.166C44.985 20.166 45.357 20.068 45.673 19.872C45.989 19.676 46.237 19.394 46.417 19.026L47.443 19.38C47.191 19.952 46.811 20.396 46.303 20.712C45.799 21.024 45.233 21.18 44.605 21.18ZM42.211 18.06V17.202H46.999V18.06H42.211ZM49.0069 21V12.18H50.0749V21H49.0069ZM51.9952 21V12.18H53.0632V21H51.9952ZM57.6234 21.18C56.9794 21.18 56.4234 21.034 55.9554 20.742C55.4914 20.45 55.1334 20.046 54.8814 19.53C54.6294 19.014 54.5034 18.422 54.5034 17.754C54.5034 17.074 54.6314 16.478 54.8874 15.966C55.1434 15.454 55.5054 15.056 55.9734 14.772C56.4414 14.484 56.9914 14.34 57.6234 14.34C58.2714 14.34 58.8294 14.486 59.2974 14.778C59.7654 15.066 60.1234 15.468 60.3714 15.984C60.6234 16.496 60.7494 17.086 60.7494 17.754C60.7494 18.43 60.6234 19.026 60.3714 19.542C60.1194 20.054 59.7594 20.456 59.2914 20.748C58.8234 21.036 58.2674 21.18 57.6234 21.18ZM57.6234 20.166C58.2954 20.166 58.7954 19.942 59.1234 19.494C59.4514 19.046 59.6154 18.466 59.6154 17.754C59.6154 17.022 59.4494 16.44 59.1174 16.008C58.7854 15.572 58.2874 15.354 57.6234 15.354C57.1714 15.354 56.7994 15.456 56.5074 15.66C56.2154 15.864 55.9974 16.146 55.8534 16.506C55.7094 16.866 55.6374 17.282 55.6374 17.754C55.6374 18.482 55.8054 19.066 56.1414 19.506C56.4774 19.946 56.9714 20.166 57.6234 20.166Z" fill="#12181F"/>
<defs>
<linearGradient id="paint0_linear_347_2038" x1="1.81818" y1="2" x2="72.2106" y2="17.4134" gradientUnits="userSpaceOnUse">
<stop stop-color="#0ACC65"/>
<stop offset="1" stop-color="#ADF7D0"/>
</linearGradient>
<linearGradient id="paint1_linear_347_2038" x1="15.9752" y1="23.9917" x2="15.9752" y2="7.99686" gradientUnits="userSpaceOnUse">
<stop stop-color="#0052CC"/>
<stop offset="1" stop-color="#2684FF"/>
</linearGradient>
</defs>
</svg>
