<svg width="78" height="32" viewBox="0 0 78 32" fill="none" xmlns="http://www.w3.org/2000/svg">
<rect x="0.5" y="0.5" width="77" height="31" rx="7.5" stroke="url(#paint0_linear_322_3615)"/>
<path d="M11 8V8.004C13.0639 13.708 14.6603 18.1207 16.6901 23.7347C18.2878 23.7733 19.9959 24 19.9986 24C18.0901 18.7173 15.9615 12.8353 14.2138 8H11ZM16.7862 8V14.42L19.9986 23.3007C19.9693 18.0607 19.9959 12.692 20 8.00067L16.7862 8ZM11 8.7V24C12.2767 23.85 12.9153 23.792 14.2138 23.7347V17.588L11 8.7Z" fill="#F81316"/>
<path d="M30.84 21V12.36H31.92L36.426 19.11V12.36H37.506V21H36.426L31.92 14.244V21H30.84ZM41.9918 21.18C41.3558 21.18 40.7998 21.04 40.3238 20.76C39.8518 20.476 39.4838 20.082 39.2198 19.578C38.9558 19.07 38.8238 18.478 38.8238 17.802C38.8238 17.094 38.9538 16.482 39.2138 15.966C39.4738 15.446 39.8358 15.046 40.2998 14.766C40.7678 14.482 41.3158 14.34 41.9438 14.34C42.5958 14.34 43.1498 14.49 43.6058 14.79C44.0658 15.09 44.4098 15.518 44.6378 16.074C44.8698 16.63 44.9698 17.292 44.9378 18.06H43.8578V17.676C43.8458 16.88 43.6838 16.286 43.3718 15.894C43.0598 15.498 42.5958 15.3 41.9798 15.3C41.3198 15.3 40.8178 15.512 40.4738 15.936C40.1298 16.36 39.9578 16.968 39.9578 17.76C39.9578 18.524 40.1298 19.116 40.4738 19.536C40.8178 19.956 41.3078 20.166 41.9438 20.166C42.3718 20.166 42.7438 20.068 43.0598 19.872C43.3758 19.676 43.6238 19.394 43.8038 19.026L44.8298 19.38C44.5778 19.952 44.1978 20.396 43.6898 20.712C43.1858 21.024 42.6198 21.18 41.9918 21.18ZM39.5978 18.06V17.202H44.3858V18.06H39.5978ZM49.8916 21C49.5076 21.076 49.1276 21.106 48.7516 21.09C48.3796 21.078 48.0476 21.004 47.7556 20.868C47.4636 20.728 47.2416 20.512 47.0896 20.22C46.9616 19.964 46.8916 19.706 46.8796 19.446C46.8716 19.182 46.8676 18.884 46.8676 18.552V12.72H47.9356V18.504C47.9356 18.768 47.9376 18.994 47.9416 19.182C47.9496 19.37 47.9916 19.532 48.0676 19.668C48.2116 19.924 48.4396 20.074 48.7516 20.118C49.0676 20.162 49.4476 20.15 49.8916 20.082V21ZM45.5536 15.402V14.52H49.8916V15.402H45.5536ZM54.4412 15.402V14.52H56.1812V15.402H54.4412ZM51.8252 21V14.166C51.8252 13.998 51.8332 13.828 51.8492 13.656C51.8652 13.48 51.9012 13.31 51.9572 13.146C52.0132 12.978 52.1052 12.824 52.2332 12.684C52.3812 12.52 52.5432 12.404 52.7192 12.336C52.8952 12.264 53.0732 12.22 53.2532 12.204C53.4372 12.188 53.6112 12.18 53.7752 12.18H54.5972V13.068H53.8352C53.5192 13.068 53.2832 13.146 53.1272 13.302C52.9712 13.454 52.8932 13.686 52.8932 13.998V21H51.8252ZM50.7272 15.402V14.52H54.5972V15.402H50.7272ZM56.0912 21V12.18H57.1592V21H56.0912ZM59.0733 13.374V12.27H60.1413V13.374H59.0733ZM59.0733 21V14.52H60.1413V21H59.0733ZM61.2216 21L63.6996 17.724L61.2756 14.52H62.5476L64.3236 16.896L66.0816 14.52H67.3536L64.9296 17.724L67.4136 21H66.1356L64.3236 18.552L62.4996 21H61.2216Z" fill="#12181F"/>
<defs>
<linearGradient id="paint0_linear_322_3615" x1="1.9697" y1="2" x2="77.6272" y2="19.9468" gradientUnits="userSpaceOnUse">
<stop stop-color="#0ACC65"/>
<stop offset="1" stop-color="#ADF7D0"/>
</linearGradient>
</defs>
</svg>
