<svg width="89" height="32" viewBox="0 0 89 32" fill="none" xmlns="http://www.w3.org/2000/svg">
<rect x="0.5" y="0.5" width="88" height="31" rx="7.5" stroke="url(#paint0_linear_322_3616)"/>
<path d="M24.6233 11.0303C24.5216 10.6377 24.3211 10.2793 24.0418 9.99115C23.7625 9.70296 23.4142 9.49505 23.0318 9.38823C21.6286 9 15.9998 9 15.9998 9C15.9998 9 10.3711 9 8.96707 9.38823C8.58487 9.49523 8.23679 9.70322 7.95763 9.9914C7.67846 10.2796 7.47801 10.6378 7.37632 11.0303C6.99982 12.4787 6.99982 15.5 6.99982 15.5C6.99982 15.5 6.99982 18.5213 7.37632 19.9697C7.47801 20.3623 7.67855 20.7207 7.95786 21.0088C8.23717 21.297 8.58545 21.505 8.96782 21.6118C10.3711 22 15.9998 22 15.9998 22C15.9998 22 21.6286 22 23.0326 21.6118C23.415 21.505 23.7633 21.2971 24.0426 21.0089C24.3219 20.7207 24.5224 20.3623 24.6241 19.9697C24.9998 18.5213 24.9998 15.5 24.9998 15.5C24.9998 15.5 24.9998 12.4787 24.6233 11.0303ZM14.1586 18.243V12.757L18.8633 15.5L14.1586 18.243Z" fill="#FE0032"/>
<path d="M32.91 21V17.406L30 12.36H31.242L33.45 16.182L35.652 12.36H36.894L33.99 17.406V21H32.91ZM39.5297 21.18C38.8857 21.18 38.3297 21.034 37.8617 20.742C37.3977 20.45 37.0397 20.046 36.7877 19.53C36.5357 19.014 36.4097 18.422 36.4097 17.754C36.4097 17.074 36.5377 16.478 36.7937 15.966C37.0497 15.454 37.4117 15.056 37.8797 14.772C38.3477 14.484 38.8977 14.34 39.5297 14.34C40.1777 14.34 40.7357 14.486 41.2037 14.778C41.6717 15.066 42.0297 15.468 42.2777 15.984C42.5297 16.496 42.6557 17.086 42.6557 17.754C42.6557 18.43 42.5297 19.026 42.2777 19.542C42.0257 20.054 41.6657 20.456 41.1977 20.748C40.7297 21.036 40.1737 21.18 39.5297 21.18ZM39.5297 20.166C40.2017 20.166 40.7017 19.942 41.0297 19.494C41.3577 19.046 41.5217 18.466 41.5217 17.754C41.5217 17.022 41.3557 16.44 41.0237 16.008C40.6917 15.572 40.1937 15.354 39.5297 15.354C39.0777 15.354 38.7057 15.456 38.4137 15.66C38.1217 15.864 37.9037 16.146 37.7597 16.506C37.6157 16.866 37.5437 17.282 37.5437 17.754C37.5437 18.482 37.7117 19.066 38.0477 19.506C38.3837 19.946 38.8777 20.166 39.5297 20.166ZM46.4367 21.168C46.0207 21.168 45.6627 21.102 45.3627 20.97C45.0667 20.838 44.8207 20.662 44.6247 20.442C44.4287 20.222 44.2747 19.978 44.1627 19.71C44.0507 19.442 43.9707 19.168 43.9227 18.888C43.8787 18.608 43.8567 18.346 43.8567 18.102V14.52H44.9367V17.766C44.9367 18.07 44.9647 18.364 45.0207 18.648C45.0767 18.932 45.1707 19.188 45.3027 19.416C45.4387 19.644 45.6187 19.824 45.8427 19.956C46.0707 20.088 46.3547 20.154 46.6947 20.154C46.9627 20.154 47.2067 20.108 47.4267 20.016C47.6467 19.924 47.8347 19.788 47.9907 19.608C48.1467 19.424 48.2667 19.192 48.3507 18.912C48.4347 18.632 48.4767 18.306 48.4767 17.934L49.1787 18.15C49.1787 18.774 49.0647 19.312 48.8367 19.764C48.6127 20.216 48.2947 20.564 47.8827 20.808C47.4747 21.048 46.9927 21.168 46.4367 21.168ZM48.5967 21V19.266H48.4767V14.52H49.5507V21H48.5967ZM53.4566 21V13.374H50.5106V12.36H57.4706V13.374H54.5246V21H53.4566ZM60.2883 21.168C59.8723 21.168 59.5143 21.102 59.2143 20.97C58.9183 20.838 58.6723 20.662 58.4763 20.442C58.2803 20.222 58.1263 19.978 58.0143 19.71C57.9023 19.442 57.8223 19.168 57.7743 18.888C57.7303 18.608 57.7083 18.346 57.7083 18.102V14.52H58.7883V17.766C58.7883 18.07 58.8163 18.364 58.8723 18.648C58.9283 18.932 59.0223 19.188 59.1543 19.416C59.2903 19.644 59.4703 19.824 59.6943 19.956C59.9223 20.088 60.2063 20.154 60.5463 20.154C60.8143 20.154 61.0583 20.108 61.2783 20.016C61.4983 19.924 61.6863 19.788 61.8423 19.608C61.9983 19.424 62.1183 19.192 62.2023 18.912C62.2863 18.632 62.3283 18.306 62.3283 17.934L63.0303 18.15C63.0303 18.774 62.9163 19.312 62.6883 19.764C62.4643 20.216 62.1463 20.564 61.7343 20.808C61.3263 21.048 60.8443 21.168 60.2883 21.168ZM62.4483 21V19.266H62.3283V14.52H63.4023V21H62.4483ZM68.0582 21.18C67.4502 21.18 66.9382 21.03 66.5222 20.73C66.1062 20.426 65.7902 20.016 65.5742 19.5C65.3622 18.98 65.2562 18.398 65.2562 17.754C65.2562 17.102 65.3622 16.518 65.5742 16.002C65.7902 15.486 66.1062 15.08 66.5222 14.784C66.9422 14.488 67.4562 14.34 68.0642 14.34C68.6642 14.34 69.1802 14.49 69.6122 14.79C70.0482 15.086 70.3822 15.492 70.6142 16.008C70.8462 16.524 70.9622 17.106 70.9622 17.754C70.9622 18.402 70.8462 18.984 70.6142 19.5C70.3822 20.016 70.0482 20.426 69.6122 20.73C69.1802 21.03 68.6622 21.18 68.0582 21.18ZM65.0762 21V12.36H66.1502V16.23H66.0302V21H65.0762ZM67.9262 20.202C68.3542 20.202 68.7082 20.094 68.9882 19.878C69.2682 19.662 69.4782 19.37 69.6182 19.002C69.7582 18.63 69.8282 18.214 69.8282 17.754C69.8282 17.298 69.7582 16.886 69.6182 16.518C69.4822 16.15 69.2702 15.858 68.9822 15.642C68.6982 15.426 68.3362 15.318 67.8962 15.318C67.4762 15.318 67.1282 15.422 66.8522 15.63C66.5762 15.834 66.3702 16.12 66.2342 16.488C66.0982 16.852 66.0302 17.274 66.0302 17.754C66.0302 18.226 66.0962 18.648 66.2282 19.02C66.3642 19.388 66.5722 19.678 66.8522 19.89C67.1322 20.098 67.4902 20.202 67.9262 20.202ZM75.0855 21.18C74.4495 21.18 73.8935 21.04 73.4175 20.76C72.9455 20.476 72.5775 20.082 72.3135 19.578C72.0495 19.07 71.9175 18.478 71.9175 17.802C71.9175 17.094 72.0475 16.482 72.3075 15.966C72.5675 15.446 72.9295 15.046 73.3935 14.766C73.8615 14.482 74.4095 14.34 75.0375 14.34C75.6895 14.34 76.2435 14.49 76.6995 14.79C77.1595 15.09 77.5035 15.518 77.7315 16.074C77.9635 16.63 78.0635 17.292 78.0315 18.06H76.9515V17.676C76.9395 16.88 76.7775 16.286 76.4655 15.894C76.1535 15.498 75.6895 15.3 75.0735 15.3C74.4135 15.3 73.9115 15.512 73.5675 15.936C73.2235 16.36 73.0515 16.968 73.0515 17.76C73.0515 18.524 73.2235 19.116 73.5675 19.536C73.9115 19.956 74.4015 20.166 75.0375 20.166C75.4655 20.166 75.8375 20.068 76.1535 19.872C76.4695 19.676 76.7175 19.394 76.8975 19.026L77.9235 19.38C77.6715 19.952 77.2915 20.396 76.7835 20.712C76.2795 21.024 75.7135 21.18 75.0855 21.18ZM72.6915 18.06V17.202H77.4795V18.06H72.6915Z" fill="#12181F"/>
<defs>
<linearGradient id="paint0_linear_322_3616" x1="2.24747" y1="2" x2="87.208" y2="24.9957" gradientUnits="userSpaceOnUse">
<stop stop-color="#0ACC65"/>
<stop offset="1" stop-color="#ADF7D0"/>
</linearGradient>
</defs>
</svg>
