<svg width="91" height="32" viewBox="0 0 91 32" fill="none" xmlns="http://www.w3.org/2000/svg">
<rect x="0.5" y="0.5" width="90" height="31" rx="7.5" stroke="url(#paint0_linear_322_3617)"/>
<path d="M13.1128 15.7046L13.1124 13.0264C13.1121 12.7672 13.1574 12.5113 13.2438 12.269L13.2361 12.2671C13.5463 11.3931 14.3811 10.7665 15.3633 10.7649L15.3593 10.7689C15.8873 10.7689 16.3949 10.9502 16.8019 11.2858L14.3421 12.7054C14.3144 12.7214 14.2893 12.7402 14.2669 12.7613C14.1859 12.8346 14.1393 12.9406 14.1393 13.0541V16.296L13.1128 15.7046Z" fill="#12181F"/>
<path d="M12.3197 12.9472V15.7864C12.3197 15.8184 12.3234 15.8495 12.3305 15.8794C12.3535 15.9862 12.422 16.0795 12.5204 16.1363L15.3291 17.7573L14.3035 18.3502L11.9829 17.0115C11.7582 16.8821 11.5591 16.7149 11.3924 16.519L11.387 16.5247C10.7847 15.8192 10.6593 14.7832 11.149 13.9322L11.1505 13.9376C11.4145 13.4805 11.8253 13.1318 12.3197 12.9472Z" fill="#12181F"/>
<path d="M16.0002 17.3725L14.8082 16.6846V15.3087L16.0002 14.6208L17.1922 15.3087V16.6846L16.0002 17.3725Z" fill="#12181F"/>
<path d="M11.518 17.6581L13.9778 19.0777C14.0054 19.0936 14.0342 19.106 14.0637 19.1148C14.1677 19.1483 14.2829 19.1357 14.3813 19.0789L17.19 17.4579L17.1909 18.6422L14.8708 19.9817C14.6464 20.1116 14.4019 20.2003 14.1488 20.2467L14.1511 20.2542C13.2387 20.4228 12.2784 20.0134 11.786 19.1639L11.7914 19.1654C11.5274 18.7083 11.4307 18.1783 11.518 17.6581Z" fill="#12181F"/>
<path d="M16.6411 21.2244C16.1131 21.2244 15.6055 21.0432 15.1985 20.7075L17.6583 19.2879C17.686 19.2719 17.7112 19.2532 17.7335 19.232C17.8145 19.1587 17.8611 19.0528 17.8611 18.9392V15.6973L18.8876 16.2887L18.8881 18.9669C18.8884 19.2261 18.843 19.482 18.7567 19.7243L18.7643 19.7262C18.4542 20.6003 17.6193 21.2269 16.6372 21.2284L16.6411 21.2244Z" fill="#12181F"/>
<path d="M19.6807 19.0461V16.2069C19.6807 16.175 19.6771 16.1438 19.67 16.1139C19.6469 16.0071 19.5784 15.9138 19.48 15.857L16.6713 14.2361L17.6969 13.6432L20.0175 14.9819C20.2422 15.1112 20.4413 15.2784 20.608 15.4743L20.6135 15.4686C21.2157 16.1742 21.3411 17.2102 20.8514 18.0612L20.85 18.0557C20.5859 18.5128 20.1751 18.8616 19.6807 19.0461Z" fill="#12181F"/>
<path d="M20.209 12.8279C20.473 13.285 20.5698 13.8151 20.4825 14.3353L18.0226 12.9157C17.995 12.8997 17.9662 12.8873 17.9367 12.8785C17.8326 12.8451 17.7175 12.8577 17.6191 12.9145L14.8104 14.5354L14.8095 13.3511L17.1297 12.0116C17.3541 11.8818 17.5985 11.793 17.8516 11.7467L17.8494 11.7391C18.7617 11.5706 19.722 11.98 20.2145 12.8294L20.209 12.8279Z" fill="#12181F"/>
<path fill-rule="evenodd" clip-rule="evenodd" d="M11.8431 8C9.72065 8 8.00018 9.71975 8.00018 11.8413V20.1587C8.00018 22.2802 9.72065 24 11.8431 24H24.0002V11.8413C24.0002 9.71975 22.2797 8 20.1566 8H11.8431ZM12.4668 12.0808C12.8748 10.8301 14.0455 9.9832 15.3633 9.9832C16.2238 9.97922 17.0454 10.3423 17.6215 10.9817L17.6261 10.98C18.9137 10.7078 20.2328 11.2978 20.8917 12.4386C21.3255 13.1815 21.4217 14.0743 21.1558 14.8927L21.1596 14.8958C22.0392 15.8744 22.1876 17.3113 21.5287 18.452C21.1018 19.199 20.3765 19.7287 19.5345 19.9077L19.5337 19.9125C19.1257 21.1632 17.955 22.0101 16.6372 22.0101C15.7766 22.0141 14.955 21.651 14.3789 21.0117L14.3743 21.0134C13.0867 21.2856 11.7676 20.6956 11.1087 19.5548C10.675 18.8118 10.5787 17.919 10.8447 17.1007L10.8409 17.0975C9.96125 16.119 9.81286 14.6821 10.4718 13.5413C10.8986 12.7944 11.624 12.2647 12.4659 12.0857L12.4668 12.0808Z" fill="#12181F"/>
<path d="M34.392 21.18C33.532 21.18 32.802 20.99 32.202 20.61C31.602 20.23 31.144 19.702 30.828 19.026C30.516 18.35 30.36 17.568 30.36 16.68C30.36 15.792 30.516 15.01 30.828 14.334C31.144 13.658 31.602 13.13 32.202 12.75C32.802 12.37 33.532 12.18 34.392 12.18C35.392 12.18 36.214 12.434 36.858 12.942C37.506 13.45 37.952 14.134 38.196 14.994L37.11 15.282C36.934 14.638 36.62 14.13 36.168 13.758C35.716 13.386 35.124 13.2 34.392 13.2C33.748 13.2 33.212 13.346 32.784 13.638C32.356 13.93 32.034 14.338 31.818 14.862C31.602 15.382 31.492 15.988 31.488 16.68C31.484 17.368 31.59 17.974 31.806 18.498C32.022 19.018 32.346 19.426 32.778 19.722C33.21 20.014 33.748 20.16 34.392 20.16C35.124 20.16 35.716 19.974 36.168 19.602C36.62 19.226 36.934 18.718 37.11 18.078L38.196 18.366C37.952 19.222 37.506 19.906 36.858 20.418C36.214 20.926 35.392 21.18 34.392 21.18ZM44.1259 21V17.754C44.1259 17.446 44.0979 17.15 44.0419 16.866C43.9899 16.582 43.8959 16.328 43.7599 16.104C43.6279 15.876 43.4479 15.696 43.2199 15.564C42.9959 15.432 42.7119 15.366 42.3679 15.366C42.0999 15.366 41.8559 15.412 41.6359 15.504C41.4199 15.592 41.2339 15.728 41.0779 15.912C40.9219 16.096 40.7999 16.328 40.7119 16.608C40.6279 16.884 40.5859 17.21 40.5859 17.586L39.8839 17.37C39.8839 16.742 39.9959 16.204 40.2199 15.756C40.4479 15.304 40.7659 14.958 41.1739 14.718C41.5859 14.474 42.0699 14.352 42.6259 14.352C43.0459 14.352 43.4039 14.418 43.6999 14.55C43.9959 14.682 44.2419 14.858 44.4379 15.078C44.6339 15.294 44.7879 15.538 44.8999 15.81C45.0119 16.078 45.0899 16.352 45.1339 16.632C45.1819 16.908 45.2059 17.17 45.2059 17.418V21H44.1259ZM39.5059 21V12.36H40.4659V17.13H40.5859V21H39.5059ZM48.6078 21.18C48.1238 21.18 47.7178 21.092 47.3898 20.916C47.0658 20.736 46.8198 20.5 46.6518 20.208C46.4878 19.916 46.4058 19.596 46.4058 19.248C46.4058 18.908 46.4698 18.614 46.5978 18.366C46.7298 18.114 46.9138 17.906 47.1498 17.742C47.3858 17.574 47.6678 17.442 47.9958 17.346C48.3038 17.262 48.6478 17.19 49.0278 17.13C49.4118 17.066 49.7998 17.008 50.1918 16.956C50.5838 16.904 50.9498 16.854 51.2898 16.806L50.9058 17.028C50.9178 16.452 50.8018 16.026 50.5578 15.75C50.3178 15.474 49.9018 15.336 49.3098 15.336C48.9178 15.336 48.5738 15.426 48.2778 15.606C47.9858 15.782 47.7798 16.07 47.6598 16.47L46.6458 16.164C46.8018 15.596 47.1038 15.15 47.5518 14.826C47.9998 14.502 48.5898 14.34 49.3218 14.34C49.9098 14.34 50.4138 14.446 50.8338 14.658C51.2578 14.866 51.5618 15.182 51.7458 15.606C51.8378 15.806 51.8958 16.024 51.9198 16.26C51.9438 16.492 51.9558 16.736 51.9558 16.992V21H51.0078V19.446L51.2298 19.59C50.9858 20.114 50.6438 20.51 50.2038 20.778C49.7678 21.046 49.2358 21.18 48.6078 21.18ZM48.7698 20.286C49.1538 20.286 49.4858 20.218 49.7658 20.082C50.0498 19.942 50.2778 19.76 50.4498 19.536C50.6218 19.308 50.7338 19.06 50.7858 18.792C50.8458 18.592 50.8778 18.37 50.8818 18.126C50.8898 17.878 50.8938 17.688 50.8938 17.556L51.2658 17.718C50.9178 17.766 50.5758 17.812 50.2398 17.856C49.9038 17.9 49.5858 17.948 49.2858 18C48.9858 18.048 48.7158 18.106 48.4758 18.174C48.2998 18.23 48.1338 18.302 47.9778 18.39C47.8258 18.478 47.7018 18.592 47.6058 18.732C47.5138 18.868 47.4678 19.038 47.4678 19.242C47.4678 19.418 47.5118 19.586 47.5998 19.746C47.6918 19.906 47.8318 20.036 48.0198 20.136C48.2118 20.236 48.4618 20.286 48.7698 20.286ZM57.1338 21C56.7498 21.076 56.3698 21.106 55.9938 21.09C55.6218 21.078 55.2898 21.004 54.9978 20.868C54.7058 20.728 54.4838 20.512 54.3318 20.22C54.2038 19.964 54.1338 19.706 54.1218 19.446C54.1138 19.182 54.1098 18.884 54.1098 18.552V12.72H55.1778V18.504C55.1778 18.768 55.1798 18.994 55.1838 19.182C55.1918 19.37 55.2338 19.532 55.3098 19.668C55.4538 19.924 55.6818 20.074 55.9938 20.118C56.3098 20.162 56.6898 20.15 57.1338 20.082V21ZM52.7958 15.402V14.52H57.1338V15.402H52.7958ZM61.9474 21.18C61.3554 21.18 60.8154 21.076 60.3274 20.868C59.8394 20.66 59.4194 20.362 59.0674 19.974C58.7154 19.582 58.4434 19.11 58.2514 18.558C58.0634 18.002 57.9694 17.376 57.9694 16.68C57.9694 15.76 58.1334 14.964 58.4614 14.292C58.7894 13.62 59.2514 13.102 59.8474 12.738C60.4434 12.37 61.1434 12.186 61.9474 12.186C62.9154 12.186 63.6954 12.412 64.2874 12.864C64.8794 13.312 65.2874 13.926 65.5114 14.706L64.4314 14.928C64.2514 14.404 63.9554 13.986 63.5434 13.674C63.1314 13.362 62.6174 13.206 62.0014 13.206C61.3574 13.202 60.8214 13.346 60.3934 13.638C59.9694 13.926 59.6494 14.332 59.4334 14.856C59.2174 15.38 59.1074 15.988 59.1034 16.68C59.0994 17.368 59.2054 17.972 59.4214 18.492C59.6374 19.012 59.9594 19.42 60.3874 19.716C60.8194 20.008 61.3574 20.156 62.0014 20.16C62.5574 20.164 63.0254 20.058 63.4054 19.842C63.7854 19.626 64.0794 19.314 64.2874 18.906C64.4954 18.498 64.6214 18.008 64.6654 17.436H62.8294V16.554H65.7934C65.8054 16.634 65.8114 16.73 65.8114 16.842C65.8154 16.95 65.8174 17.024 65.8174 17.064C65.8174 17.852 65.6694 18.558 65.3734 19.182C65.0814 19.802 64.6474 20.29 64.0714 20.646C63.4994 21.002 62.7914 21.18 61.9474 21.18ZM67.0158 21V12.36H70.4298C70.5138 12.36 70.6138 12.364 70.7298 12.372C70.8458 12.376 70.9578 12.388 71.0658 12.408C71.5338 12.48 71.9258 12.64 72.2418 12.888C72.5618 13.136 72.8018 13.45 72.9618 13.83C73.1218 14.206 73.2018 14.624 73.2018 15.084C73.2018 15.54 73.1198 15.958 72.9558 16.338C72.7958 16.714 72.5558 17.028 72.2358 17.28C71.9198 17.528 71.5298 17.688 71.0658 17.76C70.9578 17.776 70.8458 17.788 70.7298 17.796C70.6138 17.804 70.5138 17.808 70.4298 17.808H68.0838V21H67.0158ZM68.0838 16.794H70.3938C70.4698 16.794 70.5558 16.79 70.6518 16.782C70.7518 16.774 70.8458 16.76 70.9338 16.74C71.2098 16.676 71.4338 16.56 71.6058 16.392C71.7818 16.22 71.9098 16.02 71.9898 15.792C72.0698 15.56 72.1098 15.324 72.1098 15.084C72.1098 14.844 72.0698 14.61 71.9898 14.382C71.9098 14.15 71.7818 13.948 71.6058 13.776C71.4338 13.604 71.2098 13.488 70.9338 13.428C70.8458 13.404 70.7518 13.39 70.6518 13.386C70.5558 13.378 70.4698 13.374 70.3938 13.374H68.0838V16.794ZM76.6246 21V13.374H73.6786V12.36H80.6386V13.374H77.6926V21H76.6246Z" fill="#12181F"/>
<defs>
<linearGradient id="paint0_linear_322_3617" x1="2.29798" y1="2" x2="88.8991" y2="25.9665" gradientUnits="userSpaceOnUse">
<stop stop-color="#0ACC65"/>
<stop offset="1" stop-color="#ADF7D0"/>
</linearGradient>
</defs>
</svg>
