<svg width="76" height="32" viewBox="0 0 76 32" fill="none" xmlns="http://www.w3.org/2000/svg">
<rect x="0.5" y="0.5" width="75" height="31" rx="7.5" stroke="url(#paint0_linear_322_3618)"/>
<path d="M16.0002 8C11.5822 8 8.00018 11.582 8.00018 16C8.00018 20.418 11.5822 24 16.0002 24C20.4182 24 24.0002 20.418 24.0002 16C24.0002 11.582 20.4182 8 16.0002 8ZM12.6415 13.12C13.1442 13.12 13.5328 13.486 13.5782 13.92C13.6242 14.3087 13.4642 14.6513 13.0302 14.8573C12.8015 14.9713 12.7102 14.972 12.6642 14.9033C12.6415 14.8573 12.6642 14.812 12.7102 14.766C13.1215 14.4233 13.1215 14.1487 13.0755 13.7607C13.0528 13.5087 12.8702 13.3487 12.6869 13.3487C11.8868 13.3487 10.7442 15.1313 10.9042 16.4347C10.9728 16.9373 11.2702 17.532 11.9102 17.532C12.1155 17.532 12.3435 17.4633 12.5502 17.372C12.8835 17.196 13.0828 17.0587 13.2815 16.8387C13.2329 16.2487 13.7508 15.4747 14.5155 15.4747C14.8589 15.4747 15.1328 15.6113 15.1555 15.8633C15.2009 16.206 14.9042 16.2513 14.8128 16.2513C14.7215 16.2513 14.5608 16.2287 14.5608 16.138C14.5382 16.046 14.7668 16.0913 14.7442 15.886C14.7208 15.7487 14.5842 15.7033 14.4468 15.7033C13.9668 15.7033 13.6928 16.366 13.7608 16.7773C13.7842 16.9607 13.8755 17.1433 14.0589 17.1433C14.1955 17.1433 14.4015 16.9367 14.4702 16.64C14.5155 16.4347 14.6989 16.2973 14.8589 16.2973C14.9268 16.2973 14.9722 16.32 14.9955 16.4113V16.5033C14.9728 16.5947 14.9042 16.8687 14.9275 16.9373C14.9275 16.9833 14.9502 17.0513 15.0408 17.0513C15.1022 17.0513 15.3315 16.9313 15.5589 16.7453C15.6369 16.352 15.7275 15.88 15.7275 15.8407C15.7502 15.6807 15.8189 15.5207 16.1389 15.5207C16.2075 15.5207 16.2529 15.5433 16.2755 15.6347V15.7267L16.1849 16.138C16.4815 15.7493 16.9162 15.4753 17.1902 15.4753C17.3048 15.4753 17.3962 15.5433 17.3962 15.658C17.3962 15.7267 17.3962 15.8407 17.3502 15.9553C17.2589 16.2067 17.1442 16.5953 17.0755 16.938C17.0755 17.0293 17.0989 17.1207 17.2135 17.1207C17.3275 17.1207 17.6702 16.9833 17.9442 16.618L17.9489 16.6153C17.9475 16.57 17.9442 16.526 17.9442 16.4807C17.9442 16.2067 17.9675 15.978 18.0135 15.818C18.0589 15.6353 18.2875 15.4753 18.4249 15.4753C18.4935 15.4753 18.5615 15.5213 18.5615 15.5893C18.5615 15.6127 18.5615 15.658 18.5388 15.6807C18.4475 15.978 18.3788 16.252 18.3788 16.5267C18.3788 16.6867 18.4015 16.9147 18.4468 17.052C18.4468 17.0747 18.4702 17.098 18.4935 17.098C18.5388 17.098 18.8588 16.8013 19.0868 16.4127C18.8815 16.2753 18.7668 16.0467 18.7668 15.7727C18.7668 15.2927 19.0642 15.0413 19.3389 15.0413C19.5675 15.0413 19.7502 15.2013 19.7502 15.5213C19.7502 15.7267 19.6815 15.9547 19.5675 16.1613H19.6355C19.708 16.1637 19.7802 16.1507 19.8473 16.1231C19.9144 16.0955 19.9749 16.054 20.0249 16.0013C20.0458 15.9667 20.077 15.9394 20.1142 15.9233C20.3375 15.64 20.6675 15.43 21.0542 15.43C21.3742 15.43 21.6702 15.5667 21.6935 15.818C21.7389 16.1613 21.4415 16.23 21.3502 16.23L21.3489 16.2287C21.2569 16.2287 21.0975 16.2053 21.0975 16.114C21.0975 16.0227 21.3035 16.0687 21.2802 15.8633C21.2575 15.726 21.1202 15.68 20.9829 15.68C20.5255 15.68 20.2295 16.274 20.2975 16.754C20.3202 16.9373 20.4115 17.1427 20.5942 17.1427C20.7315 17.1427 20.9375 16.9373 21.0288 16.64C21.0742 16.4573 21.2575 16.2973 21.4175 16.2973C21.4862 16.2973 21.5308 16.32 21.5542 16.4113C21.5542 16.4573 21.5542 16.5487 21.4629 16.846C21.3495 17.0513 21.3488 17.166 21.3715 17.2573C21.3942 17.44 21.4855 17.5773 21.5775 17.646C21.6002 17.6687 21.6229 17.714 21.6229 17.714C21.6229 17.76 21.6002 17.806 21.5315 17.806C21.5089 17.806 21.4862 17.806 21.4629 17.7827C21.1202 17.646 20.9829 17.4173 20.9369 17.1887C20.8002 17.3487 20.6402 17.44 20.4569 17.44C20.1602 17.44 19.8635 17.166 19.8169 16.8227C19.8038 16.6765 19.8208 16.5293 19.8668 16.39C19.7315 16.4767 19.5855 16.5253 19.4515 16.5253H19.3382C19.0402 16.96 18.7202 17.2573 18.4915 17.394C18.4139 17.4353 18.328 17.459 18.2402 17.4633C18.1948 17.4633 18.1262 17.44 18.1035 17.394C18.0402 17.2927 17.9995 17.1327 17.9748 16.9493C17.6542 17.3007 17.2115 17.486 17.0062 17.486C16.7775 17.486 16.6409 17.3487 16.6182 17.1193V16.8687C16.6862 16.366 16.8695 16.0687 16.8695 15.9773C16.8689 15.9653 16.8639 15.9539 16.8554 15.9453C16.8469 15.9367 16.8356 15.9315 16.8235 15.9307C16.6635 15.9307 16.1382 16.48 16.0462 16.846L15.9775 17.1427C15.9322 17.3487 15.7262 17.486 15.5895 17.486C15.5208 17.486 15.4749 17.4627 15.4522 17.3713V17.28L15.4829 17.1247C15.1929 17.3313 14.9029 17.4633 14.7662 17.4633C14.5609 17.4633 14.4462 17.3487 14.4235 17.1887C14.2862 17.3713 14.1268 17.4633 13.9208 17.4633C13.6862 17.4633 13.4569 17.3033 13.3462 17.068C13.1835 17.2513 12.9975 17.4367 12.7782 17.5773C12.4582 17.7833 12.0928 17.9433 11.6582 17.9433C11.2702 17.9433 10.9269 17.7373 10.7442 17.5547C10.4695 17.3033 10.3102 16.9147 10.2868 16.5487C10.1502 15.4287 10.8355 13.9887 11.8868 13.3487C12.1388 13.212 12.3902 13.12 12.6415 13.12ZM19.1549 15.314C19.0855 15.314 19.0402 15.4287 19.0402 15.5427C19.0402 15.7253 19.1315 15.9313 19.2462 16.046C19.2909 15.9213 19.3139 15.7898 19.3142 15.6573C19.3142 15.4287 19.2235 15.314 19.1549 15.314Z" fill="url(#paint1_linear_322_3618)"/>
<path d="M34.392 21.18C33.532 21.18 32.802 20.99 32.202 20.61C31.602 20.23 31.144 19.702 30.828 19.026C30.516 18.35 30.36 17.568 30.36 16.68C30.36 15.792 30.516 15.01 30.828 14.334C31.144 13.658 31.602 13.13 32.202 12.75C32.802 12.37 33.532 12.18 34.392 12.18C35.392 12.18 36.214 12.434 36.858 12.942C37.506 13.45 37.952 14.134 38.196 14.994L37.11 15.282C36.934 14.638 36.62 14.13 36.168 13.758C35.716 13.386 35.124 13.2 34.392 13.2C33.748 13.2 33.212 13.346 32.784 13.638C32.356 13.93 32.034 14.338 31.818 14.862C31.602 15.382 31.492 15.988 31.488 16.68C31.484 17.368 31.59 17.974 31.806 18.498C32.022 19.018 32.346 19.426 32.778 19.722C33.21 20.014 33.748 20.16 34.392 20.16C35.124 20.16 35.716 19.974 36.168 19.602C36.62 19.226 36.934 18.718 37.11 18.078L38.196 18.366C37.952 19.222 37.506 19.906 36.858 20.418C36.214 20.926 35.392 21.18 34.392 21.18ZM41.3539 21.18C40.8699 21.18 40.4639 21.092 40.1359 20.916C39.8119 20.736 39.5659 20.5 39.3979 20.208C39.2339 19.916 39.1519 19.596 39.1519 19.248C39.1519 18.908 39.2159 18.614 39.3439 18.366C39.4759 18.114 39.6599 17.906 39.8959 17.742C40.1319 17.574 40.4139 17.442 40.7419 17.346C41.0499 17.262 41.3939 17.19 41.7739 17.13C42.1579 17.066 42.5459 17.008 42.9379 16.956C43.3299 16.904 43.6959 16.854 44.0359 16.806L43.6519 17.028C43.6639 16.452 43.5479 16.026 43.3039 15.75C43.0639 15.474 42.6479 15.336 42.0559 15.336C41.6639 15.336 41.3199 15.426 41.0239 15.606C40.7319 15.782 40.5259 16.07 40.4059 16.47L39.3919 16.164C39.5479 15.596 39.8499 15.15 40.2979 14.826C40.7459 14.502 41.3359 14.34 42.0679 14.34C42.6559 14.34 43.1599 14.446 43.5799 14.658C44.0039 14.866 44.3079 15.182 44.4919 15.606C44.5839 15.806 44.6419 16.024 44.6659 16.26C44.6899 16.492 44.7019 16.736 44.7019 16.992V21H43.7539V19.446L43.9759 19.59C43.7319 20.114 43.3899 20.51 42.9499 20.778C42.5139 21.046 41.9819 21.18 41.3539 21.18ZM41.5159 20.286C41.8999 20.286 42.2319 20.218 42.5119 20.082C42.7959 19.942 43.0239 19.76 43.1959 19.536C43.3679 19.308 43.4799 19.06 43.5319 18.792C43.5919 18.592 43.6239 18.37 43.6279 18.126C43.6359 17.878 43.6399 17.688 43.6399 17.556L44.0119 17.718C43.6639 17.766 43.3219 17.812 42.9859 17.856C42.6499 17.9 42.3319 17.948 42.0319 18C41.7319 18.048 41.4619 18.106 41.2219 18.174C41.0459 18.23 40.8799 18.302 40.7239 18.39C40.5719 18.478 40.4479 18.592 40.3519 18.732C40.2599 18.868 40.2139 19.038 40.2139 19.242C40.2139 19.418 40.2579 19.586 40.3459 19.746C40.4379 19.906 40.5779 20.036 40.7659 20.136C40.9579 20.236 41.2079 20.286 41.5159 20.286ZM50.8759 21V17.754C50.8759 17.446 50.8479 17.15 50.7919 16.866C50.7399 16.582 50.6459 16.328 50.5099 16.104C50.3779 15.876 50.1979 15.696 49.9699 15.564C49.7459 15.432 49.4619 15.366 49.1179 15.366C48.8499 15.366 48.6059 15.412 48.3859 15.504C48.1699 15.592 47.9839 15.728 47.8279 15.912C47.6719 16.096 47.5499 16.328 47.4619 16.608C47.3779 16.884 47.3359 17.21 47.3359 17.586L46.6339 17.37C46.6339 16.742 46.7459 16.204 46.9699 15.756C47.1979 15.304 47.5159 14.958 47.9239 14.718C48.3359 14.474 48.8199 14.352 49.3759 14.352C49.7959 14.352 50.1539 14.418 50.4499 14.55C50.7459 14.682 50.9919 14.858 51.1879 15.078C51.3839 15.294 51.5379 15.538 51.6499 15.81C51.7619 16.078 51.8399 16.352 51.8839 16.632C51.9319 16.908 51.9559 17.17 51.9559 17.418V21H50.8759ZM46.2559 21V14.52H47.2159V16.254H47.3359V21H46.2559ZM55.2678 21L52.9158 14.52H53.9958L55.8138 19.638L57.6258 14.52H58.7118L56.3598 21H55.2678ZM61.2758 21.18C60.7918 21.18 60.3858 21.092 60.0578 20.916C59.7338 20.736 59.4878 20.5 59.3198 20.208C59.1558 19.916 59.0738 19.596 59.0738 19.248C59.0738 18.908 59.1378 18.614 59.2658 18.366C59.3978 18.114 59.5818 17.906 59.8178 17.742C60.0538 17.574 60.3358 17.442 60.6638 17.346C60.9718 17.262 61.3158 17.19 61.6958 17.13C62.0798 17.066 62.4678 17.008 62.8598 16.956C63.2518 16.904 63.6178 16.854 63.9578 16.806L63.5738 17.028C63.5858 16.452 63.4698 16.026 63.2258 15.75C62.9858 15.474 62.5698 15.336 61.9778 15.336C61.5858 15.336 61.2418 15.426 60.9458 15.606C60.6538 15.782 60.4478 16.07 60.3278 16.47L59.3138 16.164C59.4698 15.596 59.7718 15.15 60.2198 14.826C60.6678 14.502 61.2578 14.34 61.9898 14.34C62.5778 14.34 63.0818 14.446 63.5018 14.658C63.9258 14.866 64.2298 15.182 64.4138 15.606C64.5058 15.806 64.5638 16.024 64.5878 16.26C64.6118 16.492 64.6237 16.736 64.6237 16.992V21H63.6758V19.446L63.8978 19.59C63.6538 20.114 63.3118 20.51 62.8718 20.778C62.4358 21.046 61.9038 21.18 61.2758 21.18ZM61.4378 20.286C61.8218 20.286 62.1538 20.218 62.4338 20.082C62.7178 19.942 62.9458 19.76 63.1178 19.536C63.2898 19.308 63.4018 19.06 63.4538 18.792C63.5138 18.592 63.5458 18.37 63.5498 18.126C63.5578 17.878 63.5618 17.688 63.5618 17.556L63.9338 17.718C63.5858 17.766 63.2438 17.812 62.9078 17.856C62.5718 17.9 62.2538 17.948 61.9538 18C61.6538 18.048 61.3838 18.106 61.1438 18.174C60.9678 18.23 60.8018 18.302 60.6458 18.39C60.4938 18.478 60.3698 18.592 60.2738 18.732C60.1817 18.868 60.1357 19.038 60.1357 19.242C60.1357 19.418 60.1798 19.586 60.2678 19.746C60.3598 19.906 60.4998 20.036 60.6878 20.136C60.8798 20.236 61.1298 20.286 61.4378 20.286Z" fill="#12181F"/>
<defs>
<linearGradient id="paint0_linear_322_3618" x1="1.91919" y1="2" x2="75.8361" y2="19.0843" gradientUnits="userSpaceOnUse">
<stop stop-color="#0ACC65"/>
<stop offset="1" stop-color="#ADF7D0"/>
</linearGradient>
<linearGradient id="paint1_linear_322_3618" x1="16.0002" y1="8" x2="16.0002" y2="24" gradientUnits="userSpaceOnUse">
<stop stop-color="#12BBC6"/>
<stop offset="1" stop-color="#7C29E4"/>
</linearGradient>
</defs>
</svg>
