<svg width="106" height="32" viewBox="0 0 106 32" fill="none" xmlns="http://www.w3.org/2000/svg">
<rect x="0.5" y="0.5" width="105" height="31" rx="7.5" stroke="url(#paint0_linear_322_3639)"/>
<path d="M12.5121 11C12.7215 11.0466 12.9387 11.066 13.1482 11.1088C14.0868 11.2991 15.0061 11.777 15.6422 12.5034C15.7236 12.5928 16.0921 13.0706 16.0688 13.1561L14.0907 14.6867C13.249 13.1716 11.0615 12.8608 10.1345 14.4924C9.6923 15.2772 9.64188 16.3377 9.95993 17.173C10.6271 18.9172 12.7215 18.9833 13.9627 17.7906C14.0131 17.744 14.0946 17.6819 14.1023 17.6119H12.4112V15.6657H15.8439C15.8051 16.6718 16.0494 17.4915 16.4489 18.3928V20.9179H14.2265V20.1099C13.1947 20.9878 11.8876 21.1549 10.5922 20.8558C8.81572 20.444 7.53189 19.0221 7.1479 17.2584C7.08972 16.9904 7.07033 16.7184 7.00827 16.4504C7.03154 16.1241 6.98112 15.7628 7.00827 15.4403C7.2022 13.3115 8.88942 11.5206 10.9684 11.1088L11.6045 11H12.5121Z" fill="#12181F"/>
<path d="M21.3206 11L22.0342 11.1088C23.2017 11.3613 24.3731 12.0722 24.9044 13.1677L22.8488 14.609C22.5656 13.9214 21.9528 13.5212 21.2314 13.4241C17.7328 12.9502 17.7483 18.7502 20.9831 18.5987C21.7395 18.5637 22.523 18.1558 22.7906 17.4138H22.8449L24.9975 18.6997C25.0247 18.7424 24.823 19.0804 24.7803 19.1426C24.1404 20.1332 22.8604 20.7198 21.7317 20.914C19.4704 21.3025 17.7173 20.3546 16.5421 18.4705C16.5188 18.4316 16.5149 18.3928 16.4528 18.3967C16.0533 17.4954 15.809 16.6757 15.8478 15.6695C15.9292 13.5562 17.4148 11.7575 19.4278 11.1826L20.3664 11H21.3244L21.3206 11Z" fill="#23C1B4"/>
<path d="M35.475 16.35H38.9625V16.6375C38.9208 17.9292 38.5875 18.9583 37.9625 19.725C37.1958 20.7 36.1292 21.1875 34.7625 21.1875C34.1125 21.1875 33.5042 21.0667 32.9375 20.825C32.3792 20.575 31.925 20.2083 31.575 19.725C30.9167 18.925 30.5792 17.85 30.5625 16.5C30.5792 15.1583 30.9167 14.0792 31.575 13.2625C31.925 12.7875 32.3792 12.4292 32.9375 12.1875C33.4958 11.9375 34.1042 11.8125 34.7625 11.8125C36.1292 11.8125 37.1958 12.2958 37.9625 13.2625C38.1458 13.4875 38.2875 13.7125 38.3875 13.9375L37.3625 14.4C37.1958 14.1167 37.1042 13.9625 37.0875 13.9375C36.8208 13.5958 36.4792 13.3333 36.0625 13.15C35.6542 12.9667 35.2208 12.875 34.7625 12.875C34.3042 12.875 33.8667 12.9667 33.45 13.15C33.0417 13.3333 32.7083 13.5958 32.45 13.9375C32.0083 14.5125 31.7708 15.3667 31.7375 16.5C31.7708 17.6333 32.0083 18.4833 32.45 19.05C32.7083 19.4 33.0417 19.6667 33.45 19.85C33.8667 20.0333 34.3042 20.1208 34.7625 20.1125C35.2208 20.1208 35.6542 20.0333 36.0625 19.85C36.4792 19.6667 36.8208 19.4 37.0875 19.05C37.4208 18.5833 37.6333 17.9958 37.725 17.2875H35.475V16.35ZM41.1773 18C41.219 18.5917 41.3773 19.0708 41.6523 19.4375C42.0107 19.9375 42.5523 20.1875 43.2773 20.1875C44.2107 20.1875 44.9273 19.7917 45.4273 19L46.2648 19.55C45.6315 20.6417 44.6523 21.1875 43.3273 21.1875C42.8273 21.1875 42.3523 21.0917 41.9023 20.9C41.4607 20.7083 41.094 20.4333 40.8023 20.075C40.2857 19.4167 40.0273 18.6125 40.0273 17.6625C40.0273 16.6375 40.2857 15.8042 40.8023 15.1625C41.4023 14.4292 42.2273 14.0625 43.2773 14.0625C44.3273 14.0625 45.1523 14.4292 45.7523 15.1625C46.3273 15.8792 46.5815 16.825 46.5148 18H41.1773ZM43.2773 15.05C42.5523 15.05 42.0107 15.3 41.6523 15.8C41.419 16.1 41.269 16.4958 41.2023 16.9875H45.3523C45.2857 16.5042 45.1357 16.1083 44.9023 15.8C44.5357 15.3 43.994 15.05 43.2773 15.05ZM49.6398 15.1625V18.3875C49.6398 19.0042 49.6898 19.3958 49.7898 19.5625C49.9315 19.8542 50.1898 20.0208 50.5648 20.0625C50.9648 20.0875 51.3357 20.0708 51.6773 20.0125V21C51.1273 21.1417 50.5982 21.1583 50.0898 21.05C49.4565 20.9167 49.019 20.6125 48.7773 20.1375C48.6107 19.7958 48.5273 19.2333 48.5273 18.45V15.1625H47.1523V14.25H48.5273V12.375H49.6398V14.25H51.6773V15.1625H49.6398ZM59.7594 18.0125L60.8719 18.3375C60.7052 18.8708 60.4635 19.3375 60.1469 19.7375C59.3885 20.7042 58.3219 21.1875 56.9469 21.1875C55.5802 21.1875 54.5135 20.7042 53.7469 19.7375C53.0552 18.8708 52.7177 17.7917 52.7344 16.5C52.751 15.1583 53.0885 14.075 53.7469 13.25C54.4802 12.2917 55.5469 11.8125 56.9469 11.8125C58.3302 11.8125 59.3969 12.2917 60.1469 13.25C60.5135 13.725 60.7802 14.275 60.9469 14.9L59.7969 15.0875C59.6719 14.6125 59.4927 14.2292 59.2594 13.9375C58.7344 13.2292 57.9635 12.875 56.9469 12.875C56.4885 12.8667 56.051 12.9542 55.6344 13.1375C55.226 13.3208 54.8927 13.5875 54.6344 13.9375C54.176 14.5375 53.9385 15.3917 53.9219 16.5C53.9385 17.6 54.176 18.4542 54.6344 19.0625C55.1594 19.7708 55.9302 20.125 56.9469 20.125C57.4052 20.1333 57.8385 20.0458 58.2469 19.8625C58.6635 19.6792 59.001 19.4125 59.2594 19.0625C59.4927 18.7375 59.6594 18.3875 59.7594 18.0125ZM65.2617 21.1875C64.2117 21.1875 63.3867 20.8167 62.7867 20.075C62.2701 19.4167 62.0117 18.5958 62.0117 17.6125C62.0117 16.6208 62.2701 15.8042 62.7867 15.1625C63.0701 14.8125 63.4284 14.5417 63.8617 14.35C64.3034 14.1583 64.7701 14.0625 65.2617 14.0625C66.3284 14.0625 67.1534 14.4292 67.7367 15.1625C68.2617 15.7958 68.5242 16.6125 68.5242 17.6125C68.5242 18.6042 68.2617 19.425 67.7367 20.075C67.1451 20.8167 66.3201 21.1875 65.2617 21.1875ZM66.8492 19.4C67.1742 18.975 67.3367 18.3792 67.3367 17.6125C67.3367 16.8375 67.1742 16.2458 66.8492 15.8375C66.4992 15.3542 65.9701 15.1125 65.2617 15.1125C64.5617 15.1125 64.0367 15.3542 63.6867 15.8375C63.3617 16.2458 63.1992 16.8375 63.1992 17.6125C63.1992 18.3792 63.3617 18.975 63.6867 19.4C64.0451 19.8833 64.5701 20.125 65.2617 20.125C65.9617 20.125 66.4909 19.8833 66.8492 19.4ZM74.5859 14.25H75.7109V21H74.7109V20.125C74.6109 20.2583 74.5234 20.3625 74.4484 20.4375C74.0151 20.8875 73.4484 21.1292 72.7484 21.1625C71.9318 21.2208 71.2651 21.0292 70.7484 20.5875C70.3484 20.2625 70.0818 19.85 69.9484 19.35C69.8234 18.8417 69.7651 18.2333 69.7734 17.525V14.25H70.8984V17.4875C70.8984 18.6208 71.1359 19.375 71.6109 19.75C71.9443 20.0167 72.3568 20.1375 72.8484 20.1125C73.2734 20.0958 73.6318 19.9625 73.9234 19.7125C74.2234 19.4625 74.4193 19.1042 74.5109 18.6375C74.5609 18.4292 74.5859 18.1167 74.5859 17.7V14.25ZM80.5445 14.0625C80.8695 14.0458 81.1904 14.0958 81.507 14.2125V15.2625C81.1737 15.1375 80.8237 15.0875 80.457 15.1125C79.9237 15.1292 79.4987 15.2958 79.182 15.6125C78.9237 15.8542 78.757 16.1333 78.682 16.45C78.6154 16.7583 78.582 17.1708 78.582 17.6875V21H77.457V14.25H78.457V15.2375C78.607 14.9875 78.807 14.7667 79.057 14.575C79.4737 14.25 79.9695 14.0792 80.5445 14.0625ZM87.7992 16.0125L86.7367 16.275C86.5784 15.8333 86.3076 15.5083 85.9242 15.3C85.6409 15.15 85.3034 15.0667 84.9117 15.05C84.5784 15.0417 84.2617 15.1 83.9617 15.225C83.6117 15.3833 83.4367 15.6125 83.4367 15.9125C83.4367 16.1542 83.5326 16.3375 83.7242 16.4625C83.8826 16.5708 84.1242 16.6708 84.4492 16.7625C84.7576 16.8542 85.2076 16.9792 85.7992 17.1375C86.3409 17.2792 86.7742 17.4833 87.0992 17.75C87.5826 18.1333 87.8242 18.6083 87.8242 19.175C87.8242 19.475 87.7451 19.7708 87.5867 20.0625C87.4284 20.3458 87.2159 20.5667 86.9492 20.725C86.4826 21.0333 85.8701 21.1875 85.1117 21.1875C84.1117 21.1875 83.3367 20.8917 82.7867 20.3C82.7451 20.25 82.7034 20.2 82.6617 20.15C82.6284 20.1 82.5951 20.0583 82.5617 20.025C82.5367 19.9833 82.5076 19.9333 82.4742 19.875C82.4409 19.8167 82.4159 19.775 82.3992 19.75C82.3826 19.7167 82.3617 19.6667 82.3367 19.6C82.3117 19.5333 82.2909 19.4875 82.2742 19.4625C82.2659 19.4375 82.2492 19.3875 82.2242 19.3125C82.1992 19.2292 82.1826 19.175 82.1742 19.15C82.1742 19.125 82.1576 19.0667 82.1242 18.975C82.0992 18.875 82.0826 18.8125 82.0742 18.7875L83.1367 18.525C83.2034 18.9917 83.3492 19.35 83.5742 19.6C83.9242 19.9917 84.4409 20.1875 85.1242 20.1875C85.6659 20.1875 86.0867 20.0875 86.3867 19.8875C86.6534 19.7042 86.7867 19.4625 86.7867 19.1625C86.7867 18.8958 86.6617 18.6833 86.4117 18.525C86.2034 18.4 85.8992 18.2792 85.4992 18.1625C84.8742 17.9875 84.3826 17.8458 84.0242 17.7375C83.4576 17.5292 83.0576 17.3083 82.8242 17.075C82.5326 16.7917 82.3867 16.4167 82.3867 15.95C82.3867 15.5917 82.4909 15.2667 82.6992 14.975C82.9159 14.6833 83.1909 14.4625 83.5242 14.3125C83.9409 14.1292 84.4242 14.0458 84.9742 14.0625C85.4909 14.0625 85.9659 14.1708 86.3992 14.3875C86.7159 14.5542 87.0034 14.7875 87.2617 15.0875C87.5201 15.3792 87.6992 15.6875 87.7992 16.0125ZM89.9859 18C90.0276 18.5917 90.1859 19.0708 90.4609 19.4375C90.8193 19.9375 91.3609 20.1875 92.0859 20.1875C93.0193 20.1875 93.7359 19.7917 94.2359 19L95.0734 19.55C94.4401 20.6417 93.4609 21.1875 92.1359 21.1875C91.6359 21.1875 91.1609 21.0917 90.7109 20.9C90.2693 20.7083 89.9026 20.4333 89.6109 20.075C89.0943 19.4167 88.8359 18.6125 88.8359 17.6625C88.8359 16.6375 89.0943 15.8042 89.6109 15.1625C90.2109 14.4292 91.0359 14.0625 92.0859 14.0625C93.1359 14.0625 93.9609 14.4292 94.5609 15.1625C95.1359 15.8792 95.3901 16.825 95.3234 18H89.9859ZM92.0859 15.05C91.3609 15.05 90.8193 15.3 90.4609 15.8C90.2276 16.1 90.0776 16.4958 90.0109 16.9875H94.1609C94.0943 16.5042 93.9443 16.1083 93.7109 15.8C93.3443 15.3 92.8026 15.05 92.0859 15.05Z" fill="#12181F"/>
<defs>
<linearGradient id="paint0_linear_322_3639" x1="2.67677" y1="2" x2="101.055" y2="33.7137" gradientUnits="userSpaceOnUse">
<stop stop-color="#0ACC65"/>
<stop offset="1" stop-color="#ADF7D0"/>
</linearGradient>
</defs>
</svg>
