<svg width="101" height="32" viewBox="0 0 101 32" fill="none" xmlns="http://www.w3.org/2000/svg">
<rect x="0.5" y="0.5" width="100" height="31" rx="7.5" stroke="url(#paint0_linear_347_1604)"/>
<path d="M21.6774 16.1688H21.1234C21.1144 16.1695 21.1059 16.1733 21.0996 16.1797C21.0932 16.186 21.0893 16.1945 21.0887 16.2035V17.9614C20.9677 17.9961 20.8463 18.0134 20.708 18.0134C20.3444 18.0134 20.2578 17.9009 20.2578 17.4159V16.2035C20.2572 16.1945 20.2534 16.186 20.247 16.1797C20.2406 16.1733 20.2322 16.1695 20.2232 16.1688H19.6695C19.6605 16.1695 19.6521 16.1733 19.6457 16.1797C19.6394 16.186 19.6355 16.1945 19.6349 16.2035V17.4766C19.6349 18.2731 19.9032 18.5764 20.5868 18.5764C20.9763 18.5764 21.4177 18.4725 21.6774 18.3772C21.686 18.3684 21.6945 18.3599 21.6945 18.3511V16.2037C21.7119 16.1864 21.6945 16.169 21.6774 16.169V16.1688ZM9.94145 16.1776H9.37882C9.3615 16.1776 9.35295 16.1862 9.35295 16.2035C9.26637 16.5498 9.08467 17.1387 8.84226 17.7537L8.27984 16.1949C8.27108 16.1862 8.26252 16.1776 8.25376 16.1776H7.68258C7.67382 16.1776 7.66526 16.1862 7.6565 16.1949C7.64795 16.2035 7.64795 16.2122 7.6565 16.2208L8.50472 18.5418C8.4294 18.7004 8.34854 18.8563 8.26232 19.0093C8.20182 19.1132 8.14987 19.2171 8.09793 19.3297C8.08937 19.3385 8.08937 19.347 8.09793 19.3558C8.10669 19.3643 8.11524 19.3731 8.124 19.3731H8.73837C8.74713 19.3731 8.76445 19.3643 8.76445 19.3558C8.8922 19.1063 9.01057 18.8521 9.1193 18.5937C9.48271 17.7449 9.7683 16.9482 9.98484 16.2208C9.98484 16.2122 9.98484 16.2035 9.97608 16.1949C9.95876 16.1776 9.95021 16.1776 9.94145 16.1776ZM11.9581 17.9614C11.9578 17.9569 11.9559 17.9527 11.9527 17.9495C11.9495 17.9463 11.9453 17.9444 11.9408 17.9441H11.9147C11.7762 17.9961 11.5252 18.0307 11.3521 18.0307C10.9628 18.0307 10.7809 17.9268 10.7809 17.3381C10.7809 16.8616 10.8416 16.6451 11.3521 16.6451C11.4994 16.6451 11.6291 16.6624 11.8023 16.7144C11.8196 16.7144 11.8282 16.7144 11.8369 16.697L12.0618 16.2469V16.2208C12.0615 16.2163 12.0596 16.212 12.0564 16.2089C12.0532 16.2057 12.049 16.2038 12.0445 16.2035C11.8059 16.131 11.5582 16.093 11.3089 16.0908C10.5041 16.0908 10.1405 16.472 10.1405 17.3293C10.1405 18.1953 10.5041 18.585 11.3089 18.585C11.5079 18.585 11.9147 18.5418 12.1052 18.4638C12.1225 18.455 12.1311 18.4377 12.1225 18.4204L11.9581 17.9614ZM17.2287 16.1776H16.6663C16.649 16.1776 16.6402 16.1862 16.6402 16.2035C16.5537 16.5585 16.372 17.1387 16.1296 17.7537L15.5671 16.1949C15.5584 16.1862 15.5498 16.1776 15.5411 16.1776H14.9699C14.9613 16.1776 14.9526 16.1862 14.944 16.1949C14.9352 16.2035 14.9352 16.2122 14.944 16.2208L15.792 18.5418C15.7167 18.7004 15.6358 18.8563 15.5496 19.0093C15.4891 19.1132 15.4372 19.2171 15.3852 19.3297C15.3767 19.3385 15.3767 19.347 15.3852 19.3558C15.394 19.3643 15.4025 19.3731 15.4113 19.3731H16.0257C16.0344 19.3731 16.0517 19.3643 16.0517 19.3558C16.1795 19.1063 16.2979 18.8521 16.4066 18.5937C16.7614 17.7449 17.0556 16.9482 17.2721 16.2208C17.2721 16.2122 17.2721 16.2035 17.2634 16.1949C17.2461 16.1776 17.2375 16.1776 17.2287 16.1776ZM19.3059 16.1688H17.6702C17.6612 16.1695 17.6527 16.1733 17.6464 16.1797C17.64 16.186 17.6362 16.1945 17.6355 16.2035V18.4811C17.6355 18.4984 17.6529 18.5157 17.6702 18.5157H18.2242C18.2414 18.5157 18.2589 18.4984 18.2589 18.4811V16.7144H19.1154C19.1242 16.7144 19.1415 16.7058 19.1415 16.697C19.2108 16.5412 19.2713 16.3766 19.3405 16.2122V16.1862C19.3232 16.1776 19.3147 16.1688 19.3059 16.1688Z" fill="#EE3F58"/>
<path d="M10.5992 12.6699C9.80293 12.6699 9.49147 13.0162 9.49147 13.8909C9.49147 14.7829 9.80313 15.1294 10.5992 15.1294C11.404 15.1294 11.7155 14.7829 11.7155 13.8909C11.7155 13.0162 11.404 12.6699 10.5992 12.6699ZM10.5992 14.6271C10.2358 14.6271 10.1232 14.5317 10.1232 13.9082C10.1232 13.2502 10.2444 13.1895 10.5992 13.1895C10.9628 13.1895 11.084 13.25 11.084 13.9082C11.084 14.5232 10.9714 14.6271 10.5992 14.6271ZM13.9314 14.5317C13.9311 14.5272 13.9292 14.523 13.926 14.5198C13.9228 14.5166 13.9186 14.5147 13.9141 14.5144H13.888C13.7495 14.5664 13.4985 14.601 13.3256 14.601C12.9361 14.601 12.7542 14.4971 12.7542 13.9084C12.7542 13.4317 12.8061 13.2154 13.3256 13.2154C13.4727 13.2154 13.6026 13.2327 13.7756 13.2847C13.7929 13.2847 13.8014 13.2847 13.8102 13.2674L14.0351 12.8172V12.7911C14.0348 12.7866 14.0329 12.7824 14.0297 12.7792C14.0265 12.776 14.0223 12.7741 14.0178 12.7738C13.7793 12.7013 13.5316 12.6634 13.2824 12.6611C12.4774 12.6611 12.1137 13.0421 12.1137 13.8997C12.1137 14.7654 12.4774 15.1553 13.2822 15.1553C13.4812 15.1553 13.888 15.1119 14.0785 15.0341C14.0958 15.0253 14.1043 15.008 14.0958 14.9907L13.9314 14.5317ZM7.68258 12.7392C7.6736 12.7398 7.66514 12.7436 7.65878 12.75C7.65241 12.7563 7.64857 12.7648 7.64795 12.7738V15.0512C7.64795 15.0687 7.66526 15.0858 7.68258 15.0858H8.23665C8.25376 15.0858 8.27128 15.0687 8.27128 15.0512V13.2847H9.12786C9.13662 13.2847 9.15393 13.2761 9.15393 13.2674C9.22319 13.1115 9.28369 12.9469 9.35295 12.7825V12.7565C9.34419 12.7477 9.33563 12.7392 9.32688 12.7392H7.68258Z" fill="#0264AC"/>
<path fill-rule="evenodd" clip-rule="evenodd" d="M24.2651 18.273V18.2384C24.2651 18.2211 24.2651 18.195 24.2738 18.1777C24.2997 17.8572 24.317 17.4676 24.3343 17.0172V16.9825L24.3516 16.0127C24.3516 15.675 24.3431 15.3458 24.3343 15.0427V15.008L24.2738 13.8477C24.2738 13.8302 24.2738 13.8044 24.2651 13.787V13.7524C24.2651 13.7178 24.2565 13.6917 24.2565 13.6571V13.6225C24.2304 13.2847 24.2131 13.0769 24.2046 13.0596C24.2046 13.025 24.1958 12.9904 24.1958 12.9643V12.9384C24.1884 12.8799 24.1769 12.8221 24.1612 12.7653C24.1612 12.7565 24.1612 12.7477 24.1526 12.7392C24.0055 12.0376 23.6161 11.267 23.1312 10.6867C22.941 10.4616 22.7418 10.2624 22.5342 10.1065C21.7523 9.52998 20.9404 8.99519 20.102 8.5044C18.8298 7.7509 17.6875 7.23125 17.5404 7.16199C17.5316 7.16199 17.5316 7.15343 17.5316 7.15343C17.1941 7.00616 16.7873 6.90227 16.3461 6.85908C16.2595 6.85032 16.1729 6.84177 16.0864 6.84177C16.0083 6.84177 15.9305 6.83301 15.8527 6.83301H15.7315C15.1342 6.84177 14.5891 6.95421 14.1563 7.15343C14.087 7.17951 12.9361 7.70751 11.6291 8.46977L11.5772 8.49564C10.7421 8.99478 9.93053 9.53232 9.14516 10.1065C8.81638 10.3489 8.52203 10.6606 8.25375 11.059C8.19325 11.1544 8.19325 11.3795 8.45277 11.3795H9.11929C9.40488 11.3795 9.47414 11.2063 9.79436 10.9725C10.1492 10.7127 10.8502 10.1931 12.131 9.43105C13.0571 8.88553 13.9226 8.46101 14.338 8.26179C14.3467 8.26179 14.3553 8.25323 14.364 8.25323C14.364 8.25323 14.3726 8.25323 14.3726 8.24467C14.3726 8.24467 14.3814 8.24467 14.3814 8.23592C14.3899 8.23592 14.3987 8.22736 14.3987 8.22736C14.4072 8.22736 14.416 8.2186 14.4245 8.2186C14.5284 8.16666 14.5977 8.14058 14.5977 8.14058C14.892 8.01082 15.3074 7.92425 15.7486 7.91549H15.9218C16.0517 7.91549 16.1815 7.92425 16.3027 7.94156C16.571 7.97619 16.8134 8.02814 17.0124 8.11471C17.0297 8.12327 17.0556 8.13203 17.0729 8.14058C17.9183 8.5339 18.7443 8.9674 19.5483 9.4396C20.3525 9.9141 21.1323 10.4286 21.885 10.9812C22.0494 11.1024 22.214 11.2756 22.3698 11.466C22.7591 11.9684 23.0793 12.6526 23.1312 13.1808C23.1312 13.1896 23.1573 13.3974 23.1832 13.7524C23.1832 13.7783 23.1832 13.7956 23.192 13.8217V13.8736C23.192 13.9082 23.2005 13.9343 23.2005 13.969V14.0036C23.2005 14.0209 23.2005 14.0468 23.2093 14.0641C23.2093 14.1075 23.2178 14.1507 23.2178 14.194C23.2178 14.2201 23.2178 14.246 23.2266 14.2721V14.2894C23.2266 14.324 23.2266 14.3499 23.2351 14.3845V14.4538C23.2936 15.4865 23.2936 16.5214 23.2351 17.5541V17.6234C23.2351 17.658 23.2351 17.6841 23.2266 17.7187V17.736C23.2266 17.7619 23.2266 17.788 23.2178 17.8139C23.2178 17.8572 23.2093 17.9006 23.2093 17.9438C23.2093 17.9699 23.2093 17.9872 23.2005 18.0045V18.0392C23.2005 18.0738 23.192 18.0997 23.192 18.1343V18.1864C23.192 18.2123 23.192 18.2384 23.1832 18.2557C23.1573 18.6107 23.1312 18.8271 23.1312 18.8271C23.0793 19.3555 22.7591 20.0395 22.3696 20.5419C22.214 20.7411 22.0494 20.9057 21.885 21.0267C21.8764 21.0267 21.6513 21.2 21.2792 21.4597C19.96 22.3751 18.5643 23.1748 17.1075 23.85L17.0729 23.8673C17.0556 23.8761 17.0297 23.8846 17.0124 23.8934C16.8134 23.9712 16.571 24.0319 16.3027 24.0665C16.1815 24.0839 16.0517 24.0924 15.9218 24.0924H15.7486C15.3074 24.0839 14.892 24.0058 14.5977 23.8673C14.5977 23.8673 14.5372 23.8415 14.4245 23.7893C14.416 23.7807 14.3987 23.7808 14.3899 23.772C14.3814 23.7634 14.3726 23.7634 14.364 23.7547C14.3553 23.7547 14.3553 23.7461 14.3467 23.7461C14.338 23.7461 14.3294 23.7374 14.3209 23.7374C14.3121 23.7288 14.3035 23.7288 14.2862 23.72H14.2775C13.5429 23.3704 12.8238 22.989 12.1223 22.5771C10.8328 21.8236 10.1405 21.2954 9.7858 21.0354C9.46538 20.8016 9.39612 20.6284 9.11053 20.6284H8.45277C8.19325 20.6284 8.19325 20.8537 8.25375 20.9401C8.52203 21.3387 8.81638 21.6504 9.14516 21.8928C9.18855 21.9275 10.2443 22.7068 11.5774 23.495C11.6464 23.5383 11.7157 23.5815 11.7935 23.6162C13.0312 24.3263 14.0958 24.8113 14.1565 24.8459C14.5804 25.0364 15.1342 25.149 15.723 25.1663H15.844C15.922 25.1663 15.9998 25.1663 16.0776 25.1576C16.1642 25.1576 16.2507 25.149 16.3373 25.1403C16.7787 25.0971 17.1941 24.9932 17.5229 24.8459C17.5229 24.8459 17.5316 24.8459 17.5316 24.8374C17.6787 24.7681 18.8211 24.2397 20.0934 23.495C20.7032 23.1339 21.3007 22.7527 21.885 22.3518L22.5254 21.8928C22.7332 21.737 22.9322 21.5378 23.1227 21.3127C23.6075 20.7323 23.9968 19.9617 24.1439 19.2602C24.1439 19.2516 24.1439 19.2428 24.1526 19.2343C24.1612 19.1736 24.1785 19.1129 24.1872 19.0611V19.0349C24.1958 19.0002 24.1958 18.9656 24.1958 18.9395C24.1958 18.9222 24.2219 18.7144 24.2477 18.3767V18.3421C24.2651 18.3333 24.2651 18.2989 24.2651 18.273Z" fill="#0264AC"/>
<path d="M14.5026 16.1689H12.8061C12.7888 16.1689 12.7803 16.1777 12.7715 16.195C12.7283 16.9656 12.5813 17.7884 12.3735 18.4639C12.3735 18.4724 12.3735 18.4812 12.382 18.4897C12.3908 18.4985 12.3993 18.4985 12.4081 18.4985H12.988C13.0052 18.4985 13.0139 18.4897 13.0139 18.4812C13.1783 17.9617 13.3083 17.2861 13.3602 16.7145H13.9141V18.4724C13.9141 18.4897 13.9314 18.5071 13.9487 18.5071H14.5026C14.5199 18.5071 14.5372 18.4897 14.5372 18.4724V16.195C14.5372 16.1863 14.5199 16.1689 14.5026 16.1689Z" fill="#EE3F58"/>
<path d="M30.84 21V12.36H36.3V13.374H31.908V21H30.84ZM39.0609 21.18C38.4169 21.18 37.8609 21.034 37.3929 20.742C36.9289 20.45 36.5709 20.046 36.3189 19.53C36.0669 19.014 35.9409 18.422 35.9409 17.754C35.9409 17.074 36.0689 16.478 36.3249 15.966C36.5809 15.454 36.9429 15.056 37.4109 14.772C37.8789 14.484 38.4289 14.34 39.0609 14.34C39.7089 14.34 40.2669 14.486 40.7349 14.778C41.2029 15.066 41.5609 15.468 41.8089 15.984C42.0609 16.496 42.1869 17.086 42.1869 17.754C42.1869 18.43 42.0609 19.026 41.8089 19.542C41.5569 20.054 41.1969 20.456 40.7289 20.748C40.2609 21.036 39.7049 21.18 39.0609 21.18ZM39.0609 20.166C39.7329 20.166 40.2329 19.942 40.5609 19.494C40.8889 19.046 41.0529 18.466 41.0529 17.754C41.0529 17.022 40.8869 16.44 40.5549 16.008C40.2229 15.572 39.7249 15.354 39.0609 15.354C38.6089 15.354 38.2369 15.456 37.9449 15.66C37.6529 15.864 37.4349 16.146 37.2909 16.506C37.1469 16.866 37.0749 17.282 37.0749 17.754C37.0749 18.482 37.2429 19.066 37.5789 19.506C37.9149 19.946 38.4089 20.166 39.0609 20.166ZM46.238 21.18C45.582 21.18 45.024 21.034 44.564 20.742C44.108 20.446 43.76 20.04 43.52 19.524C43.28 19.008 43.156 18.42 43.148 17.76C43.156 17.084 43.282 16.49 43.526 15.978C43.774 15.462 44.128 15.06 44.588 14.772C45.048 14.484 45.602 14.34 46.25 14.34C46.934 14.34 47.522 14.508 48.014 14.844C48.51 15.18 48.842 15.64 49.01 16.224L47.954 16.542C47.818 16.166 47.596 15.874 47.288 15.666C46.984 15.458 46.634 15.354 46.238 15.354C45.794 15.354 45.428 15.458 45.14 15.666C44.852 15.87 44.638 16.154 44.498 16.518C44.358 16.878 44.286 17.292 44.282 17.76C44.29 18.48 44.456 19.062 44.78 19.506C45.108 19.946 45.594 20.166 46.238 20.166C46.662 20.166 47.014 20.07 47.294 19.878C47.574 19.682 47.786 19.4 47.93 19.032L49.01 19.314C48.786 19.918 48.436 20.38 47.96 20.7C47.484 21.02 46.91 21.18 46.238 21.18ZM53.5369 23.88L54.7909 20.472L54.8089 21.48L51.9769 14.52H53.0989L55.3189 20.118H54.9349L57.0169 14.52H58.1029L54.5749 23.88H53.5369ZM61.5895 21.18C60.9335 21.18 60.3755 21.034 59.9155 20.742C59.4595 20.446 59.1115 20.04 58.8715 19.524C58.6315 19.008 58.5075 18.42 58.4995 17.76C58.5075 17.084 58.6335 16.49 58.8775 15.978C59.1255 15.462 59.4795 15.06 59.9395 14.772C60.3995 14.484 60.9535 14.34 61.6015 14.34C62.2855 14.34 62.8735 14.508 63.3655 14.844C63.8615 15.18 64.1935 15.64 64.3615 16.224L63.3055 16.542C63.1695 16.166 62.9475 15.874 62.6395 15.666C62.3355 15.458 61.9855 15.354 61.5895 15.354C61.1455 15.354 60.7795 15.458 60.4915 15.666C60.2035 15.87 59.9895 16.154 59.8495 16.518C59.7095 16.878 59.6375 17.292 59.6335 17.76C59.6415 18.48 59.8075 19.062 60.1315 19.506C60.4595 19.946 60.9455 20.166 61.5895 20.166C62.0135 20.166 62.3655 20.07 62.6455 19.878C62.9255 19.682 63.1375 19.4 63.2815 19.032L64.3615 19.314C64.1375 19.918 63.7875 20.38 63.3115 20.7C62.8355 21.02 62.2615 21.18 61.5895 21.18ZM64.8103 21V20.082C65.0503 20.126 65.2323 20.118 65.3563 20.058C65.4843 19.994 65.5783 19.884 65.6383 19.728C65.7023 19.568 65.7543 19.368 65.7943 19.128C65.8623 18.748 65.9203 18.324 65.9683 17.856C66.0203 17.388 66.0663 16.876 66.1063 16.32C66.1503 15.76 66.1903 15.16 66.2263 14.52H70.7563V21H69.6883V15.534H67.1983C67.1743 15.902 67.1443 16.28 67.1083 16.668C67.0763 17.056 67.0423 17.434 67.0063 17.802C66.9703 18.166 66.9303 18.506 66.8863 18.822C66.8463 19.134 66.8023 19.404 66.7543 19.632C66.6783 20.024 66.5723 20.338 66.4363 20.574C66.3003 20.806 66.1043 20.956 65.8483 21.024C65.5923 21.096 65.2463 21.088 64.8103 21ZM73.3416 23.88L74.5956 20.472L74.6136 21.48L71.7816 14.52H72.9036L75.1236 20.118H74.7396L76.8216 14.52H77.9076L74.3796 23.88H73.3416ZM78.8986 21V14.52H83.3986V15.534H79.9666V21H78.8986ZM89.8393 14.52V21H88.8073V16.224L85.4113 21H84.5293V14.52H85.5613V19.23L88.9633 14.52H89.8393Z" fill="#12181F"/>
<defs>
<linearGradient id="paint0_linear_347_1604" x1="2.55051" y1="2" x2="97.1086" y2="31.0442" gradientUnits="userSpaceOnUse">
<stop stop-color="#0ACC65"/>
<stop offset="1" stop-color="#ADF7D0"/>
</linearGradient>
</defs>
</svg>
