<svg width="83" height="32" viewBox="0 0 83 32" fill="none" xmlns="http://www.w3.org/2000/svg">
<rect x="0.5" y="0.5" width="82" height="31" rx="7.5" stroke="url(#paint0_linear_347_1628)"/>
<path fill-rule="evenodd" clip-rule="evenodd" d="M23.9319 19.9888C22.5471 20.9927 21.2023 21.6018 19.8817 22C19.5538 21.5659 19.2649 21.1026 19.0138 20.6169C19.4907 20.4408 19.9493 20.2243 20.3826 19.9708C20.2692 19.889 20.1568 19.8037 20.0479 19.7151C17.4467 20.9075 14.5853 20.9075 11.9531 19.7151C11.8454 19.8037 11.733 19.889 11.6184 19.9708C12.0506 20.2232 12.5068 20.4397 12.9837 20.6147C12.7338 21.1026 12.4426 21.5637 12.1171 21.9989C10.7964 21.6007 9.45395 20.9916 8.06794 19.9888C7.78478 17.0488 8.35111 14.0662 10.441 11.0073C11.4762 10.5373 12.5848 10.1941 13.7438 10C13.8871 10.249 14.0568 10.5844 14.1714 10.8503C15.3797 10.6708 16.5991 10.6708 17.8296 10.8503C17.9442 10.5844 18.1105 10.249 18.2526 10C19.4105 10.1941 20.5179 10.5351 21.5543 11.005C23.3645 13.6254 24.2644 16.5799 23.9319 19.9888ZM14.7813 16.5945C14.7813 15.7173 14.1382 15.0084 13.3426 15.0084C12.547 15.0084 11.9038 15.7173 11.9038 16.5945C11.9038 17.4717 12.547 18.1806 13.3426 18.1806C14.1382 18.1806 14.7813 17.4717 14.7813 16.5945ZM20.0972 16.5945C20.0972 15.7173 19.4541 15.0084 18.6585 15.0084C17.8628 15.0084 17.2197 15.7173 17.2197 16.5945C17.2197 17.4717 17.8628 18.1806 18.6585 18.1806C19.4541 18.1806 20.0972 17.4717 20.0972 16.5945Z" fill="#5865F2"/>
<path d="M30.84 21V12.36H33.504C33.592 12.36 33.746 12.362 33.966 12.366C34.186 12.37 34.396 12.386 34.596 12.414C35.264 12.502 35.822 12.746 36.27 13.146C36.722 13.542 37.062 14.046 37.29 14.658C37.518 15.27 37.632 15.944 37.632 16.68C37.632 17.416 37.518 18.09 37.29 18.702C37.062 19.314 36.722 19.82 36.27 20.22C35.822 20.616 35.264 20.858 34.596 20.946C34.396 20.97 34.184 20.986 33.96 20.994C33.74 20.998 33.588 21 33.504 21H30.84ZM31.938 19.98H33.504C33.656 19.98 33.826 19.976 34.014 19.968C34.202 19.956 34.366 19.938 34.506 19.914C34.978 19.826 35.36 19.628 35.652 19.32C35.944 19.012 36.158 18.628 36.294 18.168C36.43 17.708 36.498 17.212 36.498 16.68C36.498 16.136 36.428 15.634 36.288 15.174C36.152 14.714 35.938 14.332 35.646 14.028C35.354 13.724 34.974 13.53 34.506 13.446C34.366 13.418 34.2 13.4 34.008 13.392C33.816 13.384 33.648 13.38 33.504 13.38H31.938V19.98ZM39.128 13.374V12.27H40.196V13.374H39.128ZM39.128 21V14.52H40.196V21H39.128ZM44.4443 21.174C43.6723 21.174 43.0383 21.006 42.5423 20.67C42.0503 20.33 41.7483 19.856 41.6363 19.248L42.7283 19.074C42.8163 19.426 43.0183 19.706 43.3343 19.914C43.6503 20.118 44.0423 20.22 44.5103 20.22C44.9543 20.22 45.3023 20.128 45.5543 19.944C45.8063 19.76 45.9323 19.51 45.9323 19.194C45.9323 19.01 45.8903 18.862 45.8063 18.75C45.7223 18.634 45.5483 18.526 45.2843 18.426C45.0243 18.326 44.6303 18.206 44.1023 18.066C43.5303 17.914 43.0803 17.756 42.7523 17.592C42.4243 17.428 42.1903 17.238 42.0503 17.022C41.9103 16.806 41.8403 16.544 41.8403 16.236C41.8403 15.856 41.9443 15.524 42.1523 15.24C42.3603 14.952 42.6503 14.73 43.0223 14.574C43.3983 14.418 43.8343 14.34 44.3303 14.34C44.8223 14.34 45.2623 14.418 45.6503 14.574C46.0383 14.73 46.3503 14.952 46.5863 15.24C46.8263 15.524 46.9683 15.856 47.0123 16.236L45.9203 16.434C45.8683 16.086 45.7003 15.812 45.4163 15.612C45.1363 15.412 44.7743 15.306 44.3303 15.294C43.9103 15.278 43.5683 15.352 43.3043 15.516C43.0443 15.68 42.9143 15.902 42.9143 16.182C42.9143 16.338 42.9623 16.472 43.0583 16.584C43.1583 16.696 43.3403 16.802 43.6043 16.902C43.8723 17.002 44.2603 17.116 44.7683 17.244C45.3403 17.388 45.7903 17.546 46.1183 17.718C46.4503 17.886 46.6863 18.086 46.8263 18.318C46.9663 18.546 47.0363 18.828 47.0363 19.164C47.0363 19.788 46.8063 20.28 46.3463 20.64C45.8863 20.996 45.2523 21.174 44.4443 21.174ZM51.0895 21.18C50.4335 21.18 49.8755 21.034 49.4155 20.742C48.9595 20.446 48.6115 20.04 48.3715 19.524C48.1315 19.008 48.0075 18.42 47.9995 17.76C48.0075 17.084 48.1335 16.49 48.3775 15.978C48.6255 15.462 48.9795 15.06 49.4395 14.772C49.8995 14.484 50.4535 14.34 51.1015 14.34C51.7855 14.34 52.3735 14.508 52.8655 14.844C53.3615 15.18 53.6935 15.64 53.8615 16.224L52.8055 16.542C52.6695 16.166 52.4475 15.874 52.1395 15.666C51.8355 15.458 51.4855 15.354 51.0895 15.354C50.6455 15.354 50.2795 15.458 49.9915 15.666C49.7035 15.87 49.4895 16.154 49.3495 16.518C49.2095 16.878 49.1375 17.292 49.1335 17.76C49.1415 18.48 49.3075 19.062 49.6315 19.506C49.9595 19.946 50.4455 20.166 51.0895 20.166C51.5135 20.166 51.8655 20.07 52.1455 19.878C52.4255 19.682 52.6375 19.4 52.7815 19.032L53.8615 19.314C53.6375 19.918 53.2875 20.38 52.8115 20.7C52.3355 21.02 51.7615 21.18 51.0895 21.18ZM57.6703 21.18C57.0263 21.18 56.4703 21.034 56.0023 20.742C55.5383 20.45 55.1803 20.046 54.9283 19.53C54.6763 19.014 54.5503 18.422 54.5503 17.754C54.5503 17.074 54.6783 16.478 54.9343 15.966C55.1903 15.454 55.5523 15.056 56.0203 14.772C56.4883 14.484 57.0383 14.34 57.6703 14.34C58.3183 14.34 58.8763 14.486 59.3443 14.778C59.8123 15.066 60.1703 15.468 60.4183 15.984C60.6703 16.496 60.7963 17.086 60.7963 17.754C60.7963 18.43 60.6703 19.026 60.4183 19.542C60.1663 20.054 59.8063 20.456 59.3383 20.748C58.8703 21.036 58.3143 21.18 57.6703 21.18ZM57.6703 20.166C58.3423 20.166 58.8423 19.942 59.1703 19.494C59.4983 19.046 59.6623 18.466 59.6623 17.754C59.6623 17.022 59.4963 16.44 59.1643 16.008C58.8323 15.572 58.3343 15.354 57.6703 15.354C57.2183 15.354 56.8463 15.456 56.5543 15.66C56.2623 15.864 56.0443 16.146 55.9003 16.506C55.7563 16.866 55.6843 17.282 55.6843 17.754C55.6843 18.482 55.8523 19.066 56.1883 19.506C56.5243 19.946 57.0183 20.166 57.6703 20.166ZM62.1173 21V14.52H63.0713V16.086L62.9153 15.882C62.9913 15.682 63.0893 15.498 63.2093 15.33C63.3333 15.162 63.4713 15.024 63.6233 14.916C63.7913 14.78 63.9813 14.676 64.1933 14.604C64.4053 14.532 64.6213 14.49 64.8413 14.478C65.0613 14.462 65.2673 14.476 65.4593 14.52V15.522C65.2353 15.462 64.9893 15.446 64.7213 15.474C64.4533 15.502 64.2053 15.6 63.9773 15.768C63.7693 15.916 63.6073 16.096 63.4913 16.308C63.3793 16.52 63.3013 16.75 63.2573 16.998C63.2133 17.242 63.1913 17.492 63.1913 17.748V21H62.1173ZM69.0207 21.18C68.4167 21.18 67.8987 21.03 67.4667 20.73C67.0347 20.426 66.7007 20.016 66.4647 19.5C66.2327 18.984 66.1167 18.402 66.1167 17.754C66.1167 17.106 66.2327 16.524 66.4647 16.008C66.7007 15.492 67.0347 15.086 67.4667 14.79C67.8987 14.49 68.4147 14.34 69.0147 14.34C69.6267 14.34 70.1407 14.488 70.5567 14.784C70.9727 15.08 71.2867 15.486 71.4987 16.002C71.7147 16.518 71.8227 17.102 71.8227 17.754C71.8227 18.398 71.7147 18.98 71.4987 19.5C71.2867 20.016 70.9727 20.426 70.5567 20.73C70.1407 21.03 69.6287 21.18 69.0207 21.18ZM69.1527 20.202C69.5887 20.202 69.9467 20.098 70.2267 19.89C70.5067 19.678 70.7127 19.388 70.8447 19.02C70.9807 18.648 71.0487 18.226 71.0487 17.754C71.0487 17.274 70.9807 16.852 70.8447 16.488C70.7127 16.12 70.5087 15.834 70.2327 15.63C69.9567 15.422 69.6067 15.318 69.1827 15.318C68.7427 15.318 68.3787 15.426 68.0907 15.642C67.8067 15.858 67.5947 16.15 67.4547 16.518C67.3187 16.886 67.2507 17.298 67.2507 17.754C67.2507 18.214 67.3207 18.63 67.4607 19.002C67.6007 19.37 67.8107 19.662 68.0907 19.878C68.3747 20.094 68.7287 20.202 69.1527 20.202ZM71.0487 21V16.23H70.9287V12.36H72.0027V21H71.0487Z" fill="#12181F"/>
<defs>
<linearGradient id="paint0_linear_347_1628" x1="2.09596" y1="2" x2="82.0398" y2="22.1791" gradientUnits="userSpaceOnUse">
<stop stop-color="#0ACC65"/>
<stop offset="1" stop-color="#ADF7D0"/>
</linearGradient>
</defs>
</svg>
