<svg width="76" height="32" viewBox="0 0 76 32" fill="none" xmlns="http://www.w3.org/2000/svg">
<rect x="0.5" y="0.5" width="75" height="31" rx="7.5" stroke="url(#paint0_linear_347_1676)"/>
<path d="M15.8528 7.68033C16.7324 7.66699 17.6052 7.67366 18.4781 7.66699C18.5318 8.68698 18.9011 9.72697 19.6531 10.447C20.4051 11.1869 21.466 11.5269 22.5 11.6403V14.3269C21.5331 14.2936 20.5596 14.0936 19.68 13.6803C19.2973 13.5069 18.9414 13.2869 18.5923 13.0603C18.5855 15.0069 18.599 16.9535 18.5788 18.8935C18.5251 19.8268 18.2163 20.7535 17.6724 21.5202C16.7928 22.8001 15.2687 23.6335 13.7042 23.6601C12.7441 23.7135 11.7839 23.4535 10.9648 22.9735C9.60847 22.1801 8.65504 20.7268 8.51403 19.1668C8.50061 18.8335 8.49389 18.5002 8.50732 18.1735C8.62818 16.9069 9.25933 15.6936 10.2396 14.8669C11.3542 13.9069 12.9119 13.4469 14.3689 13.7202C14.3824 14.7069 14.3421 15.6936 14.3421 16.6802C13.6774 16.4669 12.8985 16.5269 12.3143 16.9269C11.8913 17.2002 11.5691 17.6202 11.4012 18.0935C11.2602 18.4335 11.3005 18.8069 11.3072 19.1668C11.4683 20.2602 12.5292 21.1802 13.6572 21.0802C14.4092 21.0735 15.1277 20.6402 15.5171 20.0068C15.6447 19.7868 15.7857 19.5602 15.7924 19.3002C15.8595 18.1069 15.8327 16.9202 15.8394 15.7269C15.8461 13.0403 15.8327 10.3603 15.8528 7.68033Z" fill="#12181F"/>
<path d="M33.066 21V13.374H30.12V12.36H37.08V13.374H34.134V21H33.066ZM38.1553 13.374V12.27H39.2233V13.374H38.1553ZM38.1553 21V14.52H39.2233V21H38.1553ZM41.0176 21L41.0236 12.36H42.1036V17.64L44.8216 14.52H46.2076L43.3456 17.76L46.5436 21H45.0496L42.1036 17.88V21H41.0176ZM49.3668 21V13.374H46.4208V12.36H53.3808V13.374H50.4348V21H49.3668ZM56.1352 21.18C55.4912 21.18 54.9352 21.034 54.4672 20.742C54.0032 20.45 53.6452 20.046 53.3932 19.53C53.1412 19.014 53.0152 18.422 53.0152 17.754C53.0152 17.074 53.1432 16.478 53.3992 15.966C53.6552 15.454 54.0172 15.056 54.4852 14.772C54.9532 14.484 55.5032 14.34 56.1352 14.34C56.7832 14.34 57.3412 14.486 57.8092 14.778C58.2772 15.066 58.6352 15.468 58.8832 15.984C59.1352 16.496 59.2612 17.086 59.2612 17.754C59.2612 18.43 59.1352 19.026 58.8832 19.542C58.6312 20.054 58.2712 20.456 57.8032 20.748C57.3352 21.036 56.7792 21.18 56.1352 21.18ZM56.1352 20.166C56.8072 20.166 57.3072 19.942 57.6352 19.494C57.9632 19.046 58.1272 18.466 58.1272 17.754C58.1272 17.022 57.9612 16.44 57.6292 16.008C57.2972 15.572 56.7992 15.354 56.1352 15.354C55.6832 15.354 55.3112 15.456 55.0192 15.66C54.7272 15.864 54.5092 16.146 54.3652 16.506C54.2212 16.866 54.1492 17.282 54.1492 17.754C54.1492 18.482 54.3172 19.066 54.6532 19.506C54.9892 19.946 55.4832 20.166 56.1352 20.166ZM60.5762 21L60.5822 12.36H61.6622V17.64L64.3802 14.52H65.7662L62.9042 17.76L66.1022 21H64.6082L61.6622 17.88V21H60.5762Z" fill="#12181F"/>
<defs>
<linearGradient id="paint0_linear_347_1676" x1="1.91919" y1="2" x2="75.8361" y2="19.0843" gradientUnits="userSpaceOnUse">
<stop stop-color="#0ACC65"/>
<stop offset="1" stop-color="#ADF7D0"/>
</linearGradient>
</defs>
</svg>
