<svg width="44" height="44" viewBox="0 0 44 44" fill="none" xmlns="http://www.w3.org/2000/svg">
<g clip-path="url(#clip0_424_38)">
<rect width="44" height="44" rx="10" fill="white"/>
<path d="M17.0001 21.2502C16.5859 21.2502 16.2501 21.586 16.2501 22.0002C16.2501 22.4144 16.5859 22.7502 17.0001 22.7502V21.2502ZM22.0002 22.7502C22.4145 22.7502 22.7502 22.4144 22.7502 22.0002C22.7502 21.586 22.4145 21.2502 22.0002 21.2502V22.7502ZM22.0001 21.2502C21.5859 21.2502 21.2501 21.586 21.2501 22.0002C21.2501 22.4144 21.5859 22.7502 22.0001 22.7502V21.2502ZM27.0003 22.7502C27.4145 22.7502 27.7503 22.4144 27.7503 22.0002C27.7503 21.586 27.4145 21.2502 27.0003 21.2502V22.7502ZM22.7499 22.0002C22.7499 21.586 22.4142 21.2502 21.9999 21.2502C21.5857 21.2502 21.2499 21.586 21.2499 22.0002H22.7499ZM21.2499 27.0004C21.2499 27.4146 21.5857 27.7504 21.9999 27.7504C22.4142 27.7504 22.7499 27.4146 22.7499 27.0004H21.2499ZM21.2499 22.0002C21.2499 22.4144 21.5857 22.7502 21.9999 22.7502C22.4142 22.7502 22.7499 22.4144 22.7499 22.0002H21.2499ZM22.7499 17C22.7499 16.5858 22.4142 16.25 21.9999 16.25C21.5857 16.25 21.2499 16.5858 21.2499 17H22.7499ZM17.0001 22.7502H22.0002V21.2502H17.0001V22.7502ZM22.0001 22.7502H27.0003V21.2502H22.0001V22.7502ZM21.2499 22.0002V27.0004H22.7499V22.0002H21.2499ZM22.7499 22.0002V17H21.2499V22.0002H22.7499Z" fill="#12181F"/>
</g>
<rect x="0.5" y="0.5" width="43" height="43" rx="9.5" stroke="url(#paint0_linear_424_38)"/>
<defs>
<linearGradient id="paint0_linear_424_38" x1="20.7533" y1="44" x2="-6.37416" y2="37.0842" gradientUnits="userSpaceOnUse">
<stop stop-color="#EDF0F2"/>
<stop offset="1" stop-color="#E1E3E6"/>
</linearGradient>
<clipPath id="clip0_424_38">
<rect width="44" height="44" rx="10" fill="white"/>
</clipPath>
</defs>
</svg>
