<svg width="32" height="32" viewBox="0 0 32 32" fill="none" xmlns="http://www.w3.org/2000/svg">
<path d="M14.149 17.4941L17.7714 19.9093V24.3903L14.1323 30.9997L14.149 17.4941Z" fill="#62B22F"/>
<path d="M11.1447 15.5859L14.7597 17.71L4.0293 24.3194L7.53167 17.855L11.1447 15.5859Z" fill="#974995"/>
<path d="M28 9.47844L21.0944 9.44351L17.7684 7.41572L14.1533 1L28 9.47844Z" fill="#EE7024"/>
<path d="M14.1533 1L17.7683 7.41572L17.7756 16.2561L14.1313 15.1269L14.1533 1Z" fill="#FBB61B"/>
<path d="M4 7.45508L7.54307 13.9872L7.53159 17.8544L4.02922 24.3188L4 7.45508Z" fill="#5A58A3"/>
<path d="M4 7.45508L27.9457 22.3133L21.084 22.3619L7.54307 13.9872L4 7.45508Z" fill="#2188CB"/>
<path d="M21.0943 9.44336L27.9999 9.47829L17.7787 15.8506L17.7683 11.4987L21.0943 9.44336Z" fill="#DA0954"/>
<path d="M17.7714 24.391L21.0838 22.3622L27.9456 22.3135L14.1323 31.0004L17.7714 24.391Z" fill="#037F37"/>
</svg>
