<svg width="56" height="56" viewBox="0 0 56 56" fill="none" xmlns="http://www.w3.org/2000/svg">
<path d="M0 10C0 4.47715 4.47715 0 10 0H46C51.5229 0 56 4.47715 56 10V46C56 51.5229 51.5228 56 46 56H10C4.47715 56 0 51.5228 0 46V10Z" fill="white" fill-opacity="0.07"/>
<path fill-rule="evenodd" clip-rule="evenodd" d="M27.1996 37.7168L20.4483 41.7526C19.7463 42.1722 18.8286 41.957 18.3986 41.2721C18.1885 40.9375 18.1259 40.5343 18.2249 40.1541L19.27 36.1401C19.6473 34.6911 20.6634 33.4799 22.0445 32.8328L29.4098 29.3822C29.7532 29.2213 29.8979 28.8193 29.7331 28.4842C29.5995 28.2128 29.2976 28.061 28.9937 28.1124L20.7952 29.4974C19.1286 29.7789 17.4196 29.3298 16.1232 28.2698L13.5332 26.1518C12.9022 25.6358 12.8194 24.7184 13.3482 24.1027C13.6054 23.8032 13.9752 23.6173 14.3744 23.5868L22.2875 22.9825C22.8466 22.9398 23.3338 22.5946 23.5484 22.0891L26.6011 14.8983C26.9162 14.1561 27.7882 13.8037 28.5488 14.1111C28.914 14.2588 29.2041 14.5419 29.3554 14.8983L32.4082 22.0891C32.6228 22.5946 33.11 22.9398 33.669 22.9825L41.6257 23.5901C42.4464 23.6528 43.0596 24.3529 42.9954 25.1538C42.9646 25.539 42.7777 25.8965 42.4764 26.1472L36.4083 31.1953C35.9809 31.5507 35.7947 32.1101 35.926 32.6426L37.7915 40.205C37.9842 40.986 37.4915 41.7716 36.6913 41.9596C36.3066 42.05 35.901 41.9873 35.5637 41.7856L28.7569 37.7168C28.2791 37.4312 27.6774 37.4312 27.1996 37.7168Z" fill="url(#paint0_linear_381_3896)"/>
<defs>
<linearGradient id="paint0_linear_381_3896" x1="16.5" y1="16.5" x2="36" y2="42" gradientUnits="userSpaceOnUse">
<stop offset="0.408148" stop-color="#FFE521"/>
<stop offset="1" stop-color="#EC7E00"/>
</linearGradient>
</defs>
</svg>
