<svg width="44" height="44" viewBox="0 0 44 44" fill="none" xmlns="http://www.w3.org/2000/svg">
<g clip-path="url(#clip0_2002_1655)">
<rect width="44" height="44" rx="10" fill="white"/>
<path d="M17 21.2979C16.5858 21.2979 16.25 21.6336 16.25 22.0479C16.25 22.4621 16.5858 22.7979 17 22.7979V21.2979ZM22.0002 22.7979C22.4144 22.7979 22.7502 22.4621 22.7502 22.0479C22.7502 21.6336 22.4144 21.2979 22.0002 21.2979V22.7979ZM22 21.2979C21.5858 21.2979 21.25 21.6336 21.25 22.0479C21.25 22.4621 21.5858 22.7979 22 22.7979V21.2979ZM27.0002 22.7979C27.4144 22.7979 27.7502 22.4621 27.7502 22.0479C27.7502 21.6336 27.4144 21.2979 27.0002 21.2979V22.7979ZM17 22.7979H22.0002V21.2979H17V22.7979ZM22 22.7979H27.0002V21.2979H22V22.7979Z" fill="#12181F"/>
</g>
<rect x="0.5" y="0.5" width="43" height="43" rx="9.5" stroke="url(#paint0_linear_2002_1655)"/>
<defs>
<linearGradient id="paint0_linear_2002_1655" x1="20.7533" y1="44" x2="-6.37416" y2="37.0842" gradientUnits="userSpaceOnUse">
<stop stop-color="#EDF0F2"/>
<stop offset="1" stop-color="#E1E3E6"/>
</linearGradient>
<clipPath id="clip0_2002_1655">
<rect width="44" height="44" rx="10" fill="white"/>
</clipPath>
</defs>
</svg>
