<svg width="56" height="56" viewBox="0 0 56 56" fill="none" xmlns="http://www.w3.org/2000/svg">
<path d="M0 10C0 4.47715 4.47715 0 10 0H46C51.5229 0 56 4.47715 56 10V46C56 51.5229 51.5228 56 46 56H10C4.47715 56 0 51.5228 0 46V10Z" fill="white" fill-opacity="0.07"/>
<path d="M37.4192 22.3341C37.1267 19.062 34.2709 17.9422 30.6567 17.6V13H27.8559V17.4575C27.1193 17.4515 26.3662 17.4596 25.6181 17.4681V13H22.8163V17.5337C22.2096 17.5409 21.6138 17.5471 21.0329 17.5426L21.0327 17.5286L17.1682 17.4952L17.145 20.4434C17.145 20.4434 19.2144 20.4217 19.1797 20.4589C20.3146 20.4687 20.6787 21.1209 20.7816 21.6819L20.7398 26.8481C20.8182 26.8492 20.9203 26.8533 21.0359 26.8698C20.9425 26.8692 20.8426 26.8677 20.7399 26.8677L20.6804 34.1051C20.6277 34.4566 20.4132 35.0159 19.6203 35.0107C19.6558 35.0423 17.5835 34.9932 17.5835 34.9932L17 38.2852L20.6463 38.3154C21.3248 38.3218 21.9924 38.3387 22.6478 38.3482V43.0054L25.5 43.0001V38.4217C26.2684 38.4437 26.8696 38.4163 27.5956 38.4217V43.0135L30.5 43.0001L30.4875 38.4217C35.2002 38.1945 38.5066 37.0528 38.9514 32.6982C39.3105 29.1918 37.6477 27.6121 34.9789 26.9573C36.61 26.1558 37.6373 24.7283 37.4192 22.3341ZM33.4195 32.1087C33.3932 35.5363 27.4392 35.0969 25.5403 35.083L25.5904 29.006C27.4898 29.0222 33.4488 28.5336 33.4195 32.1087ZM32.186 23.5241C32.1598 26.6425 27.1946 26.2374 25.6129 26.2244L25.6578 20.7129C27.2395 20.7259 32.2121 20.2716 32.186 23.5241Z" fill="#08A652"/>
</svg>
