<svg width="56" height="56" viewBox="0 0 56 56" fill="none" xmlns="http://www.w3.org/2000/svg">
<path d="M0 10C0 4.47715 4.47715 0 10 0H46C51.5229 0 56 4.47715 56 10V46C56 51.5229 51.5228 56 46 56H10C4.47715 56 0 51.5228 0 46V10Z" fill="white" fill-opacity="0.07"/>
<path d="M26.149 29.4941L29.7714 31.9093V36.3903L26.1323 42.9997L26.149 29.4941Z" fill="#62B22F"/>
<path d="M23.1447 27.5859L26.7597 29.71L16.0293 36.3194L19.5317 29.855L23.1447 27.5859Z" fill="#974995"/>
<path d="M40 21.4784L33.0944 21.4435L29.7684 19.4157L26.1533 13L40 21.4784Z" fill="#EE7024"/>
<path d="M26.1533 13L29.7683 19.4157L29.7756 28.2561L26.1313 27.1269L26.1533 13Z" fill="#FBB61B"/>
<path d="M16 19.4551L19.5431 25.9872L19.5316 29.8544L16.0292 36.3188L16 19.4551Z" fill="#5A58A3"/>
<path d="M16 19.4551L39.9457 34.3133L33.084 34.3619L19.5431 25.9872L16 19.4551Z" fill="#2188CB"/>
<path d="M33.0943 21.4434L39.9999 21.4783L29.7787 27.8506L29.7683 23.4987L33.0943 21.4434Z" fill="#DA0954"/>
<path d="M29.7714 36.391L33.0838 34.3622L39.9456 34.3135L26.1323 43.0004L29.7714 36.391Z" fill="#037F37"/>
</svg>
