<svg width="32" height="32" viewBox="0 0 32 32" fill="none" xmlns="http://www.w3.org/2000/svg">
<path fill-rule="evenodd" clip-rule="evenodd" d="M32 16.2215C32 13.9459 30.8977 12.1504 28.7911 12.1504C26.6755 12.1504 25.3955 13.9459 25.3955 16.2037C25.3955 18.8793 26.9066 20.2304 29.0755 20.2304C30.1333 20.2304 30.9333 19.9904 31.5377 19.6526V17.8748C30.9333 18.1771 30.24 18.3637 29.36 18.3637C28.4977 18.3637 27.7333 18.0615 27.6355 17.0126H31.9822C31.9822 16.8971 32 16.4348 32 16.2215ZM27.6088 15.3771C27.6088 14.3726 28.2222 13.9548 28.7822 13.9548C29.3244 13.9548 29.9022 14.3726 29.9022 15.3771H27.6088Z" fill="#E1E1FF"/>
<path fill-rule="evenodd" clip-rule="evenodd" d="M21.9645 12.1504C21.0933 12.1504 20.5333 12.5593 20.2222 12.8437L20.1067 12.2926H18.1511V22.6571L20.3733 22.1859L20.3822 19.6704C20.7022 19.9015 21.1733 20.2304 21.9556 20.2304C23.5467 20.2304 24.9956 18.9504 24.9956 16.1326C24.9867 13.5548 23.52 12.1504 21.9645 12.1504ZM21.4311 18.2748C20.9067 18.2748 20.5956 18.0882 20.3822 17.8571L20.3733 14.5593C20.6045 14.3015 20.9245 14.1237 21.4311 14.1237C22.24 14.1237 22.8 15.0304 22.8 16.1948C22.8 17.3859 22.2489 18.2748 21.4311 18.2748Z" fill="#E1E1FF"/>
<path fill-rule="evenodd" clip-rule="evenodd" d="M17.3244 9.3418L15.0933 9.81291V11.6262L17.3244 11.1462V9.3418Z" fill="#E1E1FF"/>
<path fill-rule="evenodd" clip-rule="evenodd" d="M15.0933 12.3018H17.3244V20.0795H15.0933V12.3018Z" fill="#E1E1FF"/>
<path fill-rule="evenodd" clip-rule="evenodd" d="M12.7021 12.9596L12.5599 12.3018H10.6399V20.0796H12.8621V14.8085C13.3866 14.1241 14.2754 14.2485 14.551 14.3463V12.3018C14.2666 12.1952 13.2266 11.9996 12.7021 12.9596Z" fill="#E1E1FF"/>
<path fill-rule="evenodd" clip-rule="evenodd" d="M8.25786 10.373L6.08897 10.8353L6.08008 17.9553C6.08008 19.2708 7.06674 20.2397 8.3823 20.2397C9.11119 20.2397 9.64452 20.1064 9.93786 19.9464V18.1419C9.65341 18.2575 8.24897 18.6664 8.24897 17.3508V14.1953H9.93786V12.3019H8.24897L8.25786 10.373Z" fill="#E1E1FF"/>
<path fill-rule="evenodd" clip-rule="evenodd" d="M2.24889 14.5593C2.24889 14.2126 2.53333 14.0793 3.00444 14.0793C3.68 14.0793 4.53333 14.2837 5.20889 14.6482V12.5593C4.47111 12.2659 3.74222 12.1504 3.00444 12.1504C1.2 12.1504 0 13.0926 0 14.6659C0 17.1193 3.37778 16.7282 3.37778 17.7859C3.37778 18.1948 3.02222 18.3282 2.52444 18.3282C1.78667 18.3282 0.844444 18.0259 0.0977776 17.6171V19.7326C0.924444 20.0882 1.76 20.2393 2.52444 20.2393C4.37333 20.2393 5.64444 19.3237 5.64444 17.7326C5.63556 15.0837 2.24889 15.5548 2.24889 14.5593Z" fill="#E1E1FF"/>
</svg>
