<svg width="32" height="32" viewBox="0 0 32 32" fill="none" xmlns="http://www.w3.org/2000/svg">
<path fill-rule="evenodd" clip-rule="evenodd" d="M15.1996 25.7168L8.44834 29.7526C7.74633 30.1722 6.82861 29.957 6.39857 29.2721C6.18852 28.9375 6.12591 28.5343 6.2249 28.1541L7.27 24.1401C7.64726 22.6911 8.66339 21.4799 10.0445 20.8328L17.4098 17.3822C17.7532 17.2213 17.8979 16.8193 17.7331 16.4842C17.5995 16.2128 17.2976 16.061 16.9937 16.1124L8.79516 17.4974C7.1286 17.7789 5.41955 17.3298 4.1232 16.2698L1.53323 14.1518C0.902244 13.6358 0.819393 12.7184 1.34818 12.1027C1.60536 11.8032 1.97519 11.6173 2.37437 11.5868L10.2875 10.9825C10.8466 10.9398 11.3338 10.5946 11.5484 10.0891L14.6011 2.89826C14.9162 2.15608 15.7882 1.80367 16.5488 2.11113C16.914 2.25875 17.2041 2.54189 17.3554 2.89826L20.4082 10.0891C20.6228 10.5946 21.11 10.9398 21.669 10.9825L29.6257 11.5901C30.4464 11.6528 31.0596 12.3529 30.9954 13.1538C30.9646 13.539 30.7777 13.8965 30.4764 14.1472L24.4083 19.1953C23.9809 19.5507 23.7947 20.1101 23.926 20.6426L25.7915 28.205C25.9842 28.986 25.4915 29.7716 24.6913 29.9596C24.3066 30.05 23.901 29.9873 23.5637 29.7856L16.7569 25.7168C16.2791 25.4312 15.6774 25.4312 15.1996 25.7168Z" fill="url(#paint0_linear_381_3897)"/>
<defs>
<linearGradient id="paint0_linear_381_3897" x1="4.5" y1="4.5" x2="24" y2="30" gradientUnits="userSpaceOnUse">
<stop offset="0.408148" stop-color="#FFE521"/>
<stop offset="1" stop-color="#EC7E00"/>
</linearGradient>
</defs>
</svg>
