<svg width="32" height="32" viewBox="0 0 32 32" fill="none" xmlns="http://www.w3.org/2000/svg">
<path fill-rule="evenodd" clip-rule="evenodd" d="M28.701 11H22.5649C22.8948 13.2143 24.8742 15.2857 27.0515 15.2857H31.934C32 15.0714 32 14.7857 32 14.5714C32 12.5714 30.5484 11 28.701 11Z" fill="url(#paint0_linear_381_3866)"/>
<path fill-rule="evenodd" clip-rule="evenodd" d="M23.0928 15.6426V20.9997H26.0618V18.1426H28.701C30.1526 18.1426 31.4062 17.0711 31.8021 15.6426H23.0928Z" fill="#4DB45F"/>
<path fill-rule="evenodd" clip-rule="evenodd" d="M12.5361 11V21H15.1753C15.1753 21 15.8351 21 16.165 20.2857C17.9464 16.4286 18.4743 15.2857 18.4743 15.2857H18.8042V21H21.7732V11H19.1341C19.1341 11 18.4743 11.0714 18.1444 11.7143C16.6269 15 15.8351 16.7143 15.8351 16.7143H15.5052V11H12.5361Z" fill="#4DB45F"/>
<path fill-rule="evenodd" clip-rule="evenodd" d="M0 21V11H2.96907C2.96907 11 3.8268 11 4.28866 12.4286C5.47629 16.2143 5.60825 16.7143 5.60825 16.7143C5.60825 16.7143 5.87217 15.7857 6.92784 12.4286C7.38969 11 8.24742 11 8.24742 11H11.2165V21H8.24742V15.6429H7.91753L6.26804 21H4.94845L3.29897 15.6429H2.96907V21H0Z" fill="#4DB45F"/>
<defs>
<linearGradient id="paint0_linear_381_3866" x1="22.5479" y1="13.1429" x2="32" y2="13.1429" gradientUnits="userSpaceOnUse">
<stop stop-color="#00B4E6"/>
<stop offset="1" stop-color="#088CCB"/>
</linearGradient>
</defs>
</svg>
