<svg width="41" height="40" viewBox="0 0 41 40" fill="none" xmlns="http://www.w3.org/2000/svg">
<path d="M0 11.9993C0 9.05383 1.91025 6.66602 4.26667 6.66602H17.0667C19.4231 6.66602 21.3333 9.05383 21.3333 11.9993V27.9993C21.3333 30.9449 19.4231 33.3327 17.0667 33.3327H4.26667C1.91025 33.3327 0 30.9449 0 27.9993V11.9993Z" fill="#08A652"/>
<path d="M13.75 11.9993C13.75 9.05383 16.1378 6.66602 19.0833 6.66602H35.0833C38.0289 6.66602 40.4167 9.05383 40.4167 11.9993V27.9993C40.4167 30.9449 38.0289 33.3327 35.0833 33.3327H19.0833C16.1378 33.3327 13.75 30.9449 13.75 27.9993V11.9993Z" fill="white"/>
<path d="M21.7498 19.2485C21.3355 19.2485 20.9998 19.5843 20.9998 19.9985C20.9998 20.4127 21.3355 20.7485 21.7498 20.7485V19.2485ZM27.0832 20.7485C27.4974 20.7485 27.8332 20.4127 27.8332 19.9985C27.8332 19.5843 27.4974 19.2485 27.0832 19.2485V20.7485ZM27.0828 19.2485C26.6686 19.2485 26.3328 19.5843 26.3328 19.9985C26.3328 20.4127 26.6686 20.7485 27.0828 20.7485V19.2485ZM32.4162 20.7485C32.8304 20.7485 33.1662 20.4127 33.1662 19.9985C33.1662 19.5843 32.8304 19.2485 32.4162 19.2485V20.7485ZM27.8331 19.9983C27.8331 19.5841 27.4973 19.2483 27.0831 19.2483C26.6688 19.2483 26.3331 19.5841 26.3331 19.9983H27.8331ZM26.3331 25.3317C26.3331 25.7459 26.6688 26.0817 27.0831 26.0817C27.4973 26.0817 27.8331 25.7459 27.8331 25.3317H26.3331ZM26.3331 19.9975C26.3331 20.4117 26.6688 20.7475 27.0831 20.7475C27.4973 20.7475 27.8331 20.4117 27.8331 19.9975H26.3331ZM27.8331 14.6641C27.8331 14.2498 27.4973 13.9141 27.0831 13.9141C26.6688 13.9141 26.3331 14.2498 26.3331 14.6641H27.8331ZM21.7498 20.7485H27.0832V19.2485H21.7498V20.7485ZM27.0828 20.7485H32.4162V19.2485H27.0828V20.7485ZM26.3331 19.9983V25.3317H27.8331V19.9983H26.3331ZM27.8331 19.9975V14.6641H26.3331V19.9975H27.8331Z" fill="#08A652"/>
</svg>
