<svg width="56" height="56" viewBox="0 0 56 56" fill="none" xmlns="http://www.w3.org/2000/svg">
<g clip-path="url(#clip0_389_3367)">
<path d="M25.287 2.50415C26.8192 1.08989 29.1808 1.0899 30.713 2.50415L32.4713 4.12707C33.4378 5.01917 34.7811 5.37911 36.0642 5.08979L38.3984 4.56344C40.4324 4.10477 42.4777 5.28557 43.0975 7.27646L43.8087 9.56108C44.1997 10.8169 45.1831 11.8003 46.4389 12.1913L48.7235 12.9025C50.7144 13.5223 51.8952 15.5676 51.4366 17.6016L50.9102 19.9358C50.6209 21.2189 50.9808 22.5622 51.8729 23.5287L53.4958 25.287C54.9101 26.8192 54.9101 29.1808 53.4958 30.713L51.8729 32.4713C50.9808 33.4378 50.6209 34.7811 50.9102 36.0642L51.4366 38.3984C51.8952 40.4324 50.7144 42.4777 48.7235 43.0975L46.4389 43.8087C45.1831 44.1997 44.1997 45.1831 43.8087 46.4389L43.0975 48.7235C42.4777 50.7144 40.4324 51.8952 38.3984 51.4366L36.0642 50.9102C34.7811 50.6209 33.4378 50.9808 32.4713 51.8729L30.713 53.4958C29.1808 54.9101 26.8192 54.9101 25.287 53.4958L23.5287 51.8729C22.5622 50.9808 21.2189 50.6209 19.9358 50.9102L17.6016 51.4366C15.5676 51.8952 13.5223 50.7144 12.9025 48.7235L12.1913 46.4389C11.8003 45.1831 10.8169 44.1997 9.56108 43.8087L7.27646 43.0975C5.28557 42.4777 4.10477 40.4324 4.56344 38.3984L5.08979 36.0642C5.37911 34.7811 5.01917 33.4378 4.12707 32.4713L2.50415 30.713C1.08989 29.1808 1.0899 26.8192 2.50415 25.287L4.12707 23.5287C5.01917 22.5622 5.37911 21.2189 5.08979 19.9358L4.56344 17.6016C4.10477 15.5676 5.28557 13.5223 7.27646 12.9025L9.56108 12.1913C10.8169 11.8003 11.8003 10.8169 12.1913 9.56108L12.9025 7.27646C13.5223 5.28557 15.5676 4.10477 17.6016 4.56344L19.9358 5.08979C21.2189 5.37911 22.5622 5.01917 23.5287 4.12707L25.287 2.50415Z" fill="url(#paint0_linear_389_3367)"/>
<path d="M21.0353 37.5L19.3553 35.82L34.9673 20.22L36.6473 21.912L21.0353 37.5ZM33.0473 37.86C32.2553 37.86 31.5313 37.668 30.8753 37.284C30.2273 36.892 29.7073 36.372 29.3153 35.724C28.9233 35.068 28.7273 34.34 28.7273 33.54C28.7273 32.756 28.9273 32.036 29.3273 31.38C29.7273 30.724 30.2553 30.2 30.9113 29.808C31.5673 29.416 32.2793 29.22 33.0473 29.22C33.8393 29.22 34.5633 29.416 35.2193 29.808C35.8753 30.192 36.3953 30.712 36.7793 31.368C37.1713 32.016 37.3673 32.74 37.3673 33.54C37.3673 34.34 37.1713 35.068 36.7793 35.724C36.3953 36.372 35.8753 36.892 35.2193 37.284C34.5633 37.668 33.8393 37.86 33.0473 37.86ZM33.0473 35.688C33.4393 35.688 33.7953 35.592 34.1153 35.4C34.4433 35.2 34.7033 34.936 34.8953 34.608C35.0953 34.28 35.1953 33.924 35.1953 33.54C35.1953 33.156 35.0953 32.8 34.8953 32.472C34.7033 32.144 34.4433 31.884 34.1153 31.692C33.7953 31.492 33.4393 31.392 33.0473 31.392C32.6633 31.392 32.3073 31.492 31.9793 31.692C31.6593 31.884 31.3993 32.144 31.1993 32.472C31.0073 32.8 30.9113 33.156 30.9113 33.54C30.9113 33.924 31.0073 34.28 31.1993 34.608C31.3993 34.936 31.6593 35.2 31.9793 35.4C32.3073 35.592 32.6633 35.688 33.0473 35.688ZM22.9553 28.5C22.1633 28.5 21.4393 28.308 20.7833 27.924C20.1273 27.532 19.6033 27.012 19.2113 26.364C18.8273 25.708 18.6353 24.98 18.6353 24.18C18.6353 23.396 18.8353 22.676 19.2353 22.02C19.6353 21.364 20.1633 20.84 20.8193 20.448C21.4753 20.056 22.1873 19.86 22.9553 19.86C23.7473 19.86 24.4673 20.056 25.1153 20.448C25.7713 20.832 26.2953 21.352 26.6873 22.008C27.0793 22.656 27.2753 23.38 27.2753 24.18C27.2753 24.98 27.0793 25.708 26.6873 26.364C26.2953 27.012 25.7713 27.532 25.1153 27.924C24.4673 28.308 23.7473 28.5 22.9553 28.5ZM22.9553 26.328C23.3393 26.328 23.6953 26.232 24.0233 26.04C24.3513 25.84 24.6113 25.576 24.8033 25.248C25.0033 24.92 25.1033 24.564 25.1033 24.18C25.1033 23.796 25.0033 23.44 24.8033 23.112C24.6113 22.784 24.3513 22.524 24.0233 22.332C23.6953 22.132 23.3393 22.032 22.9553 22.032C22.5713 22.032 22.2153 22.132 21.8873 22.332C21.5673 22.524 21.3073 22.784 21.1073 23.112C20.9073 23.44 20.8073 23.796 20.8073 24.18C20.8073 24.564 20.9073 24.92 21.1073 25.248C21.3073 25.576 21.5673 25.84 21.8873 26.04C22.2073 26.232 22.5633 26.328 22.9553 26.328Z" fill="#12171C"/>
</g>
<defs>
<linearGradient id="paint0_linear_389_3367" x1="1.41414" y1="3.5" x2="58.2505" y2="9.03116" gradientUnits="userSpaceOnUse">
<stop stop-color="#0ACC65"/>
<stop offset="1" stop-color="#ADF7D0"/>
</linearGradient>
<clipPath id="clip0_389_3367">
<rect width="56" height="56" rx="28" fill="white"/>
</clipPath>
</defs>
</svg>
