<svg width="32" height="32" viewBox="0 0 32 32" fill="none" xmlns="http://www.w3.org/2000/svg">
<path d="M25.4192 10.3341C25.1267 7.06202 22.2709 5.94221 18.6567 5.60002V1H15.8559V5.45752C15.1193 5.4515 14.3662 5.45959 13.6181 5.46808V1H10.8163V5.53374C10.2096 5.54091 9.6138 5.54707 9.03292 5.54262L9.03266 5.52855L5.16818 5.49517L5.14496 8.44335C5.14496 8.44335 7.21437 8.42167 7.17967 8.45892C8.31458 8.46868 8.67868 9.12086 8.78157 9.68188L8.73985 14.8481C8.81816 14.8492 8.9203 14.8533 9.03585 14.8698C8.94251 14.8692 8.8426 14.8677 8.73986 14.8677L8.68036 22.1051C8.62769 22.4566 8.41318 23.0159 7.62025 23.0107C7.65585 23.0423 5.58349 22.9932 5.58349 22.9932L5 26.2852L8.64626 26.3154C9.3248 26.3218 9.99235 26.3387 10.6478 26.3482V31.0054L13.5 31.0001V26.4217C14.2684 26.4437 14.8696 26.4163 15.5956 26.4217V31.0135L18.5 31.0001L18.4875 26.4217C23.2002 26.1945 26.5066 25.0528 26.9514 20.6982C27.3105 17.1918 25.6477 15.6121 22.9789 14.9573C24.61 14.1558 25.6373 12.7283 25.4192 10.3341ZM21.4195 20.1087C21.3932 23.5363 15.4392 23.0969 13.5403 23.083L13.5904 17.006C15.4898 17.0222 21.4488 16.5336 21.4195 20.1087ZM20.186 11.5241C20.1598 14.6425 15.1946 14.2374 13.6129 14.2244L13.6578 8.71288C15.2395 8.72589 20.2121 8.27159 20.186 11.5241Z" fill="#08A652"/>
</svg>
