<svg width="69" height="41" viewBox="0 0 69 41" fill="none" xmlns="http://www.w3.org/2000/svg">
<rect x="1.5" y="6.5" width="49" height="29" rx="8.5" fill="white" stroke="#025931" stroke-width="3"/>
<rect x="29" y="1" width="40" height="40" rx="10" fill="url(#paint0_linear_737_2575)"/>
<path fill-rule="evenodd" clip-rule="evenodd" d="M47.8331 13.1252C46.2087 13.1252 44.6508 13.7705 43.5021 14.9192C42.3534 16.0679 41.7081 17.6258 41.7081 19.2502C41.7081 19.4823 41.6159 19.7049 41.4518 19.869C41.2878 20.0331 41.0652 20.1252 40.8331 20.1252C40.1369 20.1252 39.4693 20.4018 38.977 20.8941C38.4847 21.3864 38.2081 22.054 38.2081 22.7502C38.2081 23.4464 38.4847 24.1141 38.977 24.6064C39.4693 25.0987 40.1369 25.3752 40.8331 25.3752H42.2915C42.5235 25.3752 42.7461 25.4674 42.9102 25.6315C43.0743 25.7956 43.1665 26.0182 43.1665 26.2502C43.1665 26.4823 43.0743 26.7049 42.9102 26.869C42.7461 27.0331 42.5235 27.1252 42.2915 27.1252H40.8331C39.7444 27.1267 38.6943 26.7222 37.8878 25.9908C37.0814 25.2593 36.5767 24.2535 36.4723 23.1698C36.3679 22.0861 36.6713 21.0024 37.3233 20.1304C37.9752 19.2585 38.9288 18.661 39.9978 18.4546C40.1043 17.4058 40.4203 16.389 40.927 15.4646C41.4337 14.5402 42.1209 13.7269 42.9478 13.073C43.7747 12.4191 44.7245 11.9379 45.7408 11.6579C46.7571 11.3779 47.8194 11.3048 48.8645 11.4429C48.98 11.4558 49.0919 11.4917 49.1934 11.5484C49.295 11.605 49.3843 11.6814 49.456 11.7729C49.5277 11.8645 49.5804 11.9694 49.6111 12.0816C49.6418 12.1938 49.6498 12.3109 49.6347 12.4262C49.6196 12.5416 49.5816 12.6527 49.5231 12.7532C49.4645 12.8536 49.3865 12.9414 49.2936 13.0114C49.2007 13.0814 49.0947 13.1321 48.982 13.1607C48.8693 13.1892 48.752 13.195 48.637 13.1777C48.3704 13.1428 48.1019 13.1253 47.8331 13.1252ZM52.7985 14.2394C52.9809 14.096 53.2128 14.031 53.4432 14.0585C53.6735 14.0861 53.8835 14.204 54.027 14.3864C54.4423 14.9137 54.7911 15.4971 55.0618 16.1212C55.8573 15.9846 56.6731 16.0234 57.4521 16.235C58.2311 16.4465 58.9544 16.8257 59.5716 17.3459C60.1887 17.8662 60.6848 18.515 61.0251 19.247C61.3653 19.9789 61.5416 20.7764 61.5415 21.5836C61.5415 23.0349 61.118 24.4116 60.2651 25.4417C59.3995 26.4882 58.1301 27.1252 56.5831 27.1252H55.7081C55.4761 27.1252 55.2535 27.0331 55.0894 26.869C54.9253 26.7049 54.8331 26.4823 54.8331 26.2502C54.8331 26.0182 54.9253 25.7956 55.0894 25.6315C55.2535 25.4674 55.4761 25.3752 55.7081 25.3752H56.5831C57.6133 25.3752 58.3856 24.9669 58.9165 24.3252C59.4625 23.6672 59.7915 22.7094 59.7915 21.5836C59.7916 20.982 59.6487 20.3891 59.3744 19.8537C59.1001 19.3184 58.7024 18.8559 58.2141 18.5046C57.7258 18.1533 57.1609 17.9233 56.5662 17.8334C55.9714 17.7436 55.3637 17.7965 54.7935 17.9879C54.6831 18.0249 54.5665 18.0395 54.4505 18.0308C54.3344 18.0222 54.2213 17.9905 54.1176 17.9376C54.014 17.8847 53.922 17.8116 53.8469 17.7227C53.7718 17.6338 53.7152 17.5308 53.6805 17.4197C53.4588 16.7121 53.1101 16.0506 52.6515 15.4679C52.5081 15.2855 52.443 15.0536 52.4706 14.8232C52.4981 14.5928 52.6161 14.3828 52.7985 14.2394ZM45.2081 24.5002C45.2081 24.2682 45.3003 24.0456 45.4644 23.8815C45.6285 23.7174 45.8511 23.6252 46.0831 23.6252H51.9165C52.1485 23.6252 52.3711 23.7174 52.5352 23.8815C52.6993 24.0456 52.7915 24.2682 52.7915 24.5002V28.0002C52.7915 28.2323 52.6993 28.4549 52.5352 28.619C52.3711 28.7831 52.1485 28.8752 51.9165 28.8752H46.0831C45.8511 28.8752 45.6285 28.7831 45.4644 28.619C45.3003 28.4549 45.2081 28.2323 45.2081 28.0002V24.5002ZM46.9581 25.3752V27.1252H51.0415V25.3752H46.9581Z" fill="white"/>
<path fill-rule="evenodd" clip-rule="evenodd" d="M49.875 21.4979C49.875 21.2659 49.7828 21.0433 49.6187 20.8792C49.4546 20.7151 49.2321 20.6229 49 20.6229C48.7679 20.6229 48.5454 20.7151 48.3813 20.8792C48.2172 21.0433 48.125 21.2659 48.125 21.4979V24.4998C48.125 24.7318 48.0328 24.9544 47.8687 25.1185C47.7046 25.2826 47.4821 25.3748 47.25 25.3748C47.0179 25.3748 46.7954 25.2826 46.6313 25.1185C46.4672 24.9544 46.375 24.7318 46.375 24.4998V21.4979C46.3751 21.0105 46.511 20.5327 46.7673 20.1182C47.0236 19.7036 47.3903 19.3685 47.8263 19.1506C49.5717 18.2779 51.625 19.5473 51.625 21.4979V21.5831C51.625 21.8152 51.5328 22.0377 51.3687 22.2018C51.2046 22.3659 50.9821 22.4581 50.75 22.4581C50.5179 22.4581 50.2954 22.3659 50.1313 22.2018C49.9672 22.0377 49.875 21.8152 49.875 21.5831V21.4979Z" fill="white"/>
<defs>
<linearGradient id="paint0_linear_737_2575" x1="69" y1="41" x2="29" y2="1" gradientUnits="userSpaceOnUse">
<stop stop-color="#00894A"/>
<stop offset="1" stop-color="#024224"/>
</linearGradient>
</defs>
</svg>
