<svg width="56" height="56" viewBox="0 0 56 56" fill="none" xmlns="http://www.w3.org/2000/svg">
<path d="M0 10C0 4.47715 4.47715 0 10 0H46C51.5229 0 56 4.47715 56 10V46C56 51.5229 51.5228 56 46 56H10C4.47715 56 0 51.5228 0 46V10Z" fill="white" fill-opacity="0.07"/>
<path fill-rule="evenodd" clip-rule="evenodd" d="M44 28.2215C44 25.9459 42.8977 24.1504 40.7911 24.1504C38.6755 24.1504 37.3955 25.9459 37.3955 28.2037C37.3955 30.8793 38.9066 32.2304 41.0755 32.2304C42.1333 32.2304 42.9333 31.9904 43.5377 31.6526V29.8748C42.9333 30.1771 42.24 30.3637 41.36 30.3637C40.4977 30.3637 39.7333 30.0615 39.6355 29.0126H43.9822C43.9822 28.8971 44 28.4348 44 28.2215ZM39.6088 27.3771C39.6088 26.3726 40.2222 25.9548 40.7822 25.9548C41.3244 25.9548 41.9022 26.3726 41.9022 27.3771H39.6088Z" fill="#E1E1FF"/>
<path fill-rule="evenodd" clip-rule="evenodd" d="M33.9645 24.1504C33.0933 24.1504 32.5333 24.5593 32.2222 24.8437L32.1067 24.2926H30.1511V34.6571L32.3733 34.1859L32.3822 31.6704C32.7022 31.9015 33.1733 32.2304 33.9556 32.2304C35.5467 32.2304 36.9956 30.9504 36.9956 28.1326C36.9867 25.5548 35.52 24.1504 33.9645 24.1504ZM33.4311 30.2748C32.9067 30.2748 32.5956 30.0882 32.3822 29.8571L32.3733 26.5593C32.6045 26.3015 32.9245 26.1237 33.4311 26.1237C34.24 26.1237 34.8 27.0304 34.8 28.1948C34.8 29.3859 34.2489 30.2748 33.4311 30.2748Z" fill="#E1E1FF"/>
<path fill-rule="evenodd" clip-rule="evenodd" d="M29.3244 21.3418L27.0933 21.8129V23.6262L29.3244 23.1462V21.3418Z" fill="#E1E1FF"/>
<path fill-rule="evenodd" clip-rule="evenodd" d="M27.0933 24.3018H29.3244V32.0795H27.0933V24.3018Z" fill="#E1E1FF"/>
<path fill-rule="evenodd" clip-rule="evenodd" d="M24.7021 24.9596L24.5599 24.3018H22.6399V32.0796H24.8621V26.8085C25.3866 26.1241 26.2754 26.2485 26.551 26.3463V24.3018C26.2666 24.1952 25.2266 23.9996 24.7021 24.9596Z" fill="#E1E1FF"/>
<path fill-rule="evenodd" clip-rule="evenodd" d="M20.2579 22.373L18.089 22.8353L18.0801 29.9553C18.0801 31.2708 19.0667 32.2397 20.3823 32.2397C21.1112 32.2397 21.6445 32.1064 21.9379 31.9464V30.1419C21.6534 30.2575 20.249 30.6664 20.249 29.3508V26.1953H21.9379V24.3019H20.249L20.2579 22.373Z" fill="#E1E1FF"/>
<path fill-rule="evenodd" clip-rule="evenodd" d="M14.2489 26.5593C14.2489 26.2126 14.5333 26.0793 15.0044 26.0793C15.68 26.0793 16.5333 26.2837 17.2089 26.6482V24.5593C16.4711 24.2659 15.7422 24.1504 15.0044 24.1504C13.2 24.1504 12 25.0926 12 26.6659C12 29.1193 15.3778 28.7282 15.3778 29.7859C15.3778 30.1948 15.0222 30.3282 14.5244 30.3282C13.7867 30.3282 12.8444 30.0259 12.0978 29.6171V31.7326C12.9244 32.0882 13.76 32.2393 14.5244 32.2393C16.3733 32.2393 17.6444 31.3237 17.6444 29.7326C17.6356 27.0837 14.2489 27.5548 14.2489 26.5593Z" fill="#E1E1FF"/>
</svg>
