<svg width="44" height="44" viewBox="0 0 44 44" fill="none" xmlns="http://www.w3.org/2000/svg">
<g clip-path="url(#clip0_389_3409)">
<rect width="44" height="44" rx="10" fill="white" fill-opacity="0.07"/>
<path d="M17 21.2502C16.5858 21.2502 16.25 21.586 16.25 22.0002C16.25 22.4144 16.5858 22.7502 17 22.7502V21.2502ZM22.0002 22.7502C22.4144 22.7502 22.7502 22.4144 22.7502 22.0002C22.7502 21.586 22.4144 21.2502 22.0002 21.2502V22.7502ZM22 21.2502C21.5858 21.2502 21.25 21.586 21.25 22.0002C21.25 22.4144 21.5858 22.7502 22 22.7502V21.2502ZM27.0002 22.7502C27.4144 22.7502 27.7502 22.4144 27.7502 22.0002C27.7502 21.586 27.4144 21.2502 27.0002 21.2502V22.7502ZM22.7499 22.0002C22.7499 21.586 22.4141 21.2502 21.9999 21.2502C21.5857 21.2502 21.2499 21.586 21.2499 22.0002H22.7499ZM21.2499 27.0004C21.2499 27.4146 21.5857 27.7504 21.9999 27.7504C22.4141 27.7504 22.7499 27.4146 22.7499 27.0004H21.2499ZM21.2499 22.0002C21.2499 22.4144 21.5857 22.7502 21.9999 22.7502C22.4141 22.7502 22.7499 22.4144 22.7499 22.0002H21.2499ZM22.7499 17C22.7499 16.5858 22.4141 16.25 21.9999 16.25C21.5857 16.25 21.2499 16.5858 21.2499 17H22.7499ZM17 22.7502H22.0002V21.2502H17V22.7502ZM22 22.7502H27.0002V21.2502H22V22.7502ZM21.2499 22.0002V27.0004H22.7499V22.0002H21.2499ZM22.7499 22.0002V17H21.2499V22.0002H22.7499Z" fill="white"/>
</g>
<rect x="0.5" y="0.5" width="43" height="43" rx="9.5" stroke="url(#paint0_linear_389_3409)"/>
<defs>
<linearGradient id="paint0_linear_389_3409" x1="2.3913" y1="3.3" x2="48.1007" y2="11.4141" gradientUnits="userSpaceOnUse">
<stop stop-color="white" stop-opacity="0.3"/>
<stop offset="1" stop-color="white" stop-opacity="0.07"/>
</linearGradient>
<clipPath id="clip0_389_3409">
<rect width="44" height="44" rx="10" fill="white"/>
</clipPath>
</defs>
</svg>
