<svg width="142" height="32" viewBox="0 0 142 32" fill="none" xmlns="http://www.w3.org/2000/svg">
<g clip-path="url(#clip0_2002_1875)">
<path d="M27.5 0H4.5C2.01472 0 0 2.01472 0 4.5V27.5C0 29.9853 2.01472 32 4.5 32H27.5C29.9853 32 32 29.9853 32 27.5V4.5C32 2.01472 29.9853 0 27.5 0Z" fill="url(#paint0_linear_2002_1875)"/>
<path d="M24 14.6433V8.21445H14.7606V5C10.3662 5 8 8.01515 8 11.4953V14.6433H13.5358C10.9025 15.1062 8.80225 17.0317 8.18592 19.5111C8.06423 19.9965 8 20.5044 8 21.0251V26H24V19.51H14.7606V14.6423H24V14.6433Z" fill="white"/>
</g>
<path d="M43.992 22V12.056H40.16V10.48H49.496V12.056H45.664V22H43.992ZM53.327 22.24C52.4683 22.24 51.7137 22.0533 51.063 21.68C50.4177 21.3013 49.9137 20.776 49.551 20.104C49.1937 19.4267 49.015 18.6427 49.015 17.752C49.015 16.808 49.191 15.9893 49.543 15.296C49.9003 14.6027 50.3963 14.0667 51.031 13.688C51.6657 13.3093 52.4043 13.12 53.247 13.12C54.127 13.12 54.8763 13.3253 55.495 13.736C56.1137 14.1413 56.575 14.72 56.879 15.472C57.1883 16.224 57.311 17.1173 57.247 18.152H55.575V17.544C55.5643 16.5413 55.3723 15.8 54.999 15.32C54.631 14.84 54.0683 14.6 53.311 14.6C52.4737 14.6 51.8443 14.864 51.423 15.392C51.0017 15.92 50.791 16.6827 50.791 17.68C50.791 18.6293 51.0017 19.3653 51.423 19.888C51.8443 20.4053 52.4523 20.664 53.247 20.664C53.7697 20.664 54.2203 20.5467 54.599 20.312C54.983 20.072 55.2817 19.7307 55.495 19.288L57.135 19.808C56.799 20.5813 56.2897 21.1813 55.607 21.608C54.9243 22.0293 54.1643 22.24 53.327 22.24ZM50.247 18.152V16.848H56.415V18.152H50.247ZM59.2019 22V10.24H60.8739V22H59.2019ZM67.1083 22.24C66.2496 22.24 65.4949 22.0533 64.8443 21.68C64.1989 21.3013 63.6949 20.776 63.3322 20.104C62.9749 19.4267 62.7963 18.6427 62.7963 17.752C62.7963 16.808 62.9723 15.9893 63.3243 15.296C63.6816 14.6027 64.1776 14.0667 64.8123 13.688C65.4469 13.3093 66.1856 13.12 67.0283 13.12C67.9083 13.12 68.6576 13.3253 69.2763 13.736C69.8949 14.1413 70.3563 14.72 70.6603 15.472C70.9696 16.224 71.0923 17.1173 71.0283 18.152H69.3563V17.544C69.3456 16.5413 69.1536 15.8 68.7803 15.32C68.4123 14.84 67.8496 14.6 67.0923 14.6C66.2549 14.6 65.6256 14.864 65.2043 15.392C64.7829 15.92 64.5723 16.6827 64.5723 17.68C64.5723 18.6293 64.7829 19.3653 65.2043 19.888C65.6256 20.4053 66.2336 20.664 67.0283 20.664C67.5509 20.664 68.0016 20.5467 68.3803 20.312C68.7643 20.072 69.0629 19.7307 69.2763 19.288L70.9163 19.808C70.5803 20.5813 70.0709 21.1813 69.3883 21.608C68.7056 22.0293 67.9456 22.24 67.1083 22.24ZM64.0283 18.152V16.848H70.1962V18.152H64.0283ZM76.3831 26.08C75.9191 26.08 75.4685 26.008 75.0311 25.864C74.5991 25.72 74.2045 25.5067 73.8471 25.224C73.4898 24.9467 73.1938 24.6027 72.9591 24.192L74.5031 23.408C74.6898 23.776 74.9565 24.0453 75.3031 24.216C75.6498 24.3867 76.0151 24.472 76.3991 24.472C76.8738 24.472 77.2791 24.3867 77.6151 24.216C77.9511 24.0507 78.2045 23.8 78.3751 23.464C78.5511 23.128 78.6365 22.712 78.6311 22.216V19.8H78.8311V13.36H80.3111V22.232C80.3111 22.4613 80.3031 22.68 80.2871 22.888C80.2711 23.096 80.2418 23.304 80.1991 23.512C80.0765 24.0933 79.8418 24.5733 79.4951 24.952C79.1538 25.3307 78.7165 25.6133 78.1831 25.8C77.6551 25.9867 77.0551 26.08 76.3831 26.08ZM76.2551 22.24C75.4498 22.24 74.7538 22.04 74.1671 21.64C73.5858 21.24 73.1351 20.696 72.8151 20.008C72.5005 19.3147 72.3431 18.536 72.3431 17.672C72.3431 16.8027 72.5031 16.0267 72.8231 15.344C73.1431 14.656 73.5965 14.1147 74.1831 13.72C74.7751 13.32 75.4765 13.12 76.2871 13.12C77.1031 13.12 77.7885 13.32 78.3431 13.72C78.9031 14.1147 79.3245 14.656 79.6071 15.344C79.8951 16.032 80.0391 16.808 80.0391 17.672C80.0391 18.536 79.8951 19.312 79.6071 20C79.3191 20.688 78.8951 21.2347 78.3351 21.64C77.7751 22.04 77.0818 22.24 76.2551 22.24ZM76.4871 20.728C77.0365 20.728 77.4845 20.5973 77.8311 20.336C78.1778 20.0747 78.4311 19.7147 78.5911 19.256C78.7511 18.7973 78.8311 18.2693 78.8311 17.672C78.8311 17.0747 78.7485 16.5467 78.5831 16.088C78.4231 15.6293 78.1725 15.272 77.8311 15.016C77.4951 14.76 77.0658 14.632 76.5431 14.632C75.9885 14.632 75.5325 14.768 75.1751 15.04C74.8178 15.312 74.5511 15.6773 74.3751 16.136C74.2045 16.5947 74.1191 17.1067 74.1191 17.672C74.1191 18.2427 74.2045 18.76 74.3751 19.224C74.5511 19.6827 74.8125 20.048 75.1591 20.32C75.5111 20.592 75.9538 20.728 76.4871 20.728ZM82.5575 22V13.36H84.0455V15.456L83.8375 15.184C83.9442 14.9067 84.0828 14.6533 84.2535 14.424C84.4242 14.1893 84.6215 13.9973 84.8455 13.848C85.0642 13.688 85.3068 13.5653 85.5735 13.48C85.8455 13.3893 86.1228 13.336 86.4055 13.32C86.6882 13.2987 86.9602 13.312 87.2215 13.36V14.928C86.9388 14.8533 86.6242 14.832 86.2775 14.864C85.9362 14.896 85.6215 15.0053 85.3335 15.192C85.0615 15.368 84.8455 15.5813 84.6855 15.832C84.5308 16.0827 84.4188 16.3627 84.3495 16.672C84.2802 16.976 84.2455 17.2987 84.2455 17.64V22H82.5575ZM90.935 22.24C90.295 22.24 89.759 22.1227 89.327 21.888C88.895 21.648 88.567 21.3333 88.343 20.944C88.1243 20.5493 88.015 20.1173 88.015 19.648C88.015 19.2107 88.0923 18.8267 88.247 18.496C88.4017 18.1653 88.631 17.8853 88.935 17.656C89.239 17.4213 89.6123 17.232 90.055 17.088C90.439 16.976 90.8737 16.8773 91.359 16.792C91.8443 16.7067 92.3537 16.6267 92.887 16.552C93.4257 16.4773 93.959 16.4027 94.487 16.328L93.879 16.664C93.8897 15.9867 93.7457 15.4853 93.447 15.16C93.1537 14.8293 92.647 14.664 91.927 14.664C91.4737 14.664 91.0577 14.7707 90.679 14.984C90.3003 15.192 90.0363 15.5387 89.887 16.024L88.327 15.544C88.5403 14.8027 88.9457 14.2133 89.543 13.776C90.1457 13.3387 90.9457 13.12 91.943 13.12C92.7163 13.12 93.3883 13.2533 93.959 13.52C94.535 13.7813 94.9563 14.1973 95.223 14.768C95.3617 15.0507 95.447 15.3493 95.479 15.664C95.511 15.9787 95.527 16.3173 95.527 16.68V22H94.047V20.024L94.335 20.28C93.9777 20.9413 93.5217 21.4347 92.967 21.76C92.4177 22.08 91.7403 22.24 90.935 22.24ZM91.231 20.872C91.7057 20.872 92.1137 20.7893 92.455 20.624C92.7963 20.4533 93.071 20.2373 93.279 19.976C93.487 19.7147 93.623 19.4427 93.687 19.16C93.7777 18.904 93.8283 18.616 93.839 18.296C93.855 17.976 93.863 17.72 93.863 17.528L94.407 17.728C93.879 17.808 93.399 17.88 92.967 17.944C92.535 18.008 92.143 18.072 91.791 18.136C91.4443 18.1947 91.135 18.2667 90.863 18.352C90.6337 18.432 90.4283 18.528 90.247 18.64C90.071 18.752 89.9297 18.888 89.823 19.048C89.7217 19.208 89.671 19.4027 89.671 19.632C89.671 19.856 89.727 20.064 89.839 20.256C89.951 20.4427 90.1217 20.592 90.351 20.704C90.5803 20.816 90.8737 20.872 91.231 20.872ZM107.956 22L107.964 16.616C107.964 15.992 107.804 15.5067 107.484 15.16C107.164 14.808 106.743 14.632 106.22 14.632C105.9 14.632 105.607 14.7067 105.34 14.856C105.079 15 104.866 15.2187 104.7 15.512C104.54 15.8 104.46 16.1627 104.46 16.6L103.652 16.192C103.642 15.584 103.77 15.0507 104.036 14.592C104.308 14.1333 104.676 13.7787 105.14 13.528C105.604 13.272 106.124 13.144 106.7 13.144C107.634 13.144 108.356 13.424 108.868 13.984C109.38 14.544 109.636 15.288 109.636 16.216L109.628 22H107.956ZM97.5964 22V13.36H99.0844V15.856H99.2764V22H97.5964ZM102.78 22L102.788 16.648C102.788 16.0187 102.628 15.5253 102.308 15.168C101.994 14.8107 101.57 14.632 101.036 14.632C100.508 14.632 100.082 14.8133 99.7564 15.176C99.4364 15.5387 99.2764 16.0133 99.2764 16.6L98.4764 16.088C98.4764 15.5227 98.6124 15.0187 98.8844 14.576C99.1564 14.1333 99.5244 13.784 99.9884 13.528C100.452 13.272 100.978 13.144 101.564 13.144C102.178 13.144 102.7 13.2747 103.132 13.536C103.564 13.792 103.892 14.152 104.116 14.616C104.346 15.08 104.46 15.6187 104.46 16.232L104.452 22H102.78ZM118.469 22.248C117.648 22.2427 116.949 22.064 116.373 21.712C115.797 21.36 115.346 20.8533 115.021 20.192C114.701 19.5253 114.514 18.7227 114.461 17.784C114.434 17.3307 114.437 16.8293 114.469 16.28C114.501 15.7253 114.56 15.1893 114.645 14.672C114.736 14.1547 114.85 13.7227 114.989 13.376C115.144 12.992 115.354 12.64 115.621 12.32C115.888 11.9947 116.181 11.7227 116.501 11.504C116.842 11.2693 117.221 11.088 117.637 10.96C118.053 10.8267 118.488 10.7227 118.941 10.648C119.4 10.5733 119.861 10.5093 120.325 10.456C120.794 10.3973 121.25 10.3253 121.693 10.24L121.853 11.736C121.56 11.8053 121.213 11.8613 120.813 11.904C120.418 11.9467 120.008 11.9947 119.581 12.048C119.16 12.1013 118.757 12.176 118.373 12.272C117.989 12.368 117.656 12.504 117.373 12.68C116.973 12.9253 116.666 13.2827 116.453 13.752C116.245 14.2213 116.12 14.7307 116.077 15.28C116.408 14.7787 116.829 14.4187 117.341 14.2C117.853 13.976 118.384 13.864 118.933 13.864C119.701 13.864 120.362 14.0453 120.917 14.408C121.477 14.7707 121.906 15.264 122.205 15.888C122.504 16.512 122.653 17.2187 122.653 18.008C122.653 18.8613 122.477 19.608 122.125 20.248C121.778 20.8827 121.29 21.3787 120.661 21.736C120.032 22.088 119.301 22.2587 118.469 22.248ZM118.557 20.672C119.325 20.672 119.904 20.4347 120.293 19.96C120.688 19.4853 120.885 18.8533 120.885 18.064C120.885 17.2533 120.682 16.616 120.277 16.152C119.872 15.688 119.298 15.456 118.557 15.456C117.805 15.456 117.229 15.688 116.829 16.152C116.434 16.616 116.237 17.2533 116.237 18.064C116.237 18.8853 116.437 19.5253 116.837 19.984C117.237 20.4427 117.81 20.672 118.557 20.672ZM128.169 22.24C127.305 22.24 126.556 22.0453 125.921 21.656C125.286 21.2667 124.796 20.7307 124.449 20.048C124.108 19.36 123.937 18.568 123.937 17.672C123.937 16.7707 124.113 15.9787 124.465 15.296C124.817 14.608 125.31 14.0747 125.945 13.696C126.58 13.312 127.321 13.12 128.169 13.12C129.033 13.12 129.782 13.3147 130.417 13.704C131.052 14.0933 131.542 14.6293 131.889 15.312C132.236 15.9947 132.409 16.7813 132.409 17.672C132.409 18.5733 132.233 19.368 131.881 20.056C131.534 20.7387 131.044 21.2747 130.409 21.664C129.774 22.048 129.028 22.24 128.169 22.24ZM128.169 20.664C128.996 20.664 129.612 20.3867 130.017 19.832C130.428 19.272 130.633 18.552 130.633 17.672C130.633 16.7707 130.425 16.0507 130.009 15.512C129.598 14.968 128.985 14.696 128.169 14.696C127.609 14.696 127.148 14.824 126.785 15.08C126.422 15.3307 126.153 15.68 125.977 16.128C125.801 16.5707 125.713 17.0853 125.713 17.672C125.713 18.5787 125.921 19.304 126.337 19.848C126.753 20.392 127.364 20.664 128.169 20.664ZM136.211 22V14.864H133.259V13.36H140.835V14.864H137.883V22H136.211Z" fill="white"/>
<defs>
<linearGradient id="paint0_linear_2002_1875" x1="0" y1="15.8912" x2="32" y2="15.8912" gradientUnits="userSpaceOnUse">
<stop stop-color="#037F45"/>
<stop offset="1" stop-color="#08A652"/>
</linearGradient>
<clipPath id="clip0_2002_1875">
<rect width="32" height="32" fill="white"/>
</clipPath>
</defs>
</svg>
