<svg width="160" height="44" viewBox="0 0 160 44" fill="none" xmlns="http://www.w3.org/2000/svg">
<rect x="0.5" y="0.5" width="159" height="43" rx="7.5" stroke="url(#paint0_linear_737_2563)"/>
<g clip-path="url(#clip0_737_2563)">
<path d="M33.5 6H10.5C8.01472 6 6 8.01472 6 10.5V33.5C6 35.9853 8.01472 38 10.5 38H33.5C35.9853 38 38 35.9853 38 33.5V10.5C38 8.01472 35.9853 6 33.5 6Z" fill="url(#paint1_linear_737_2563)"/>
<path d="M30 20.6433V14.2144H20.7606V11C16.3662 11 14 14.0152 14 17.4953V20.6433H19.5358C16.9025 21.1062 14.8023 23.0317 14.1859 25.5111C14.0642 25.9965 14 26.5044 14 27.0251V32H30V25.51H20.7606V20.6423H30V20.6433Z" fill="white"/>
</g>
<path d="M49.992 28V18.056H46.16V16.48H55.496V18.056H51.664V28H49.992ZM59.327 28.24C58.4683 28.24 57.7137 28.0533 57.063 27.68C56.4177 27.3013 55.9137 26.776 55.551 26.104C55.1937 25.4267 55.015 24.6427 55.015 23.752C55.015 22.808 55.191 21.9893 55.543 21.296C55.9003 20.6027 56.3963 20.0667 57.031 19.688C57.6657 19.3093 58.4043 19.12 59.247 19.12C60.127 19.12 60.8763 19.3253 61.495 19.736C62.1137 20.1413 62.575 20.72 62.879 21.472C63.1883 22.224 63.311 23.1173 63.247 24.152H61.575V23.544C61.5643 22.5413 61.3723 21.8 60.999 21.32C60.631 20.84 60.0683 20.6 59.311 20.6C58.4737 20.6 57.8443 20.864 57.423 21.392C57.0017 21.92 56.791 22.6827 56.791 23.68C56.791 24.6293 57.0017 25.3653 57.423 25.888C57.8443 26.4053 58.4523 26.664 59.247 26.664C59.7697 26.664 60.2203 26.5467 60.599 26.312C60.983 26.072 61.2817 25.7307 61.495 25.288L63.135 25.808C62.799 26.5813 62.2897 27.1813 61.607 27.608C60.9243 28.0293 60.1643 28.24 59.327 28.24ZM56.247 24.152V22.848H62.415V24.152H56.247ZM65.2019 28V16.24H66.8739V28H65.2019ZM73.1083 28.24C72.2496 28.24 71.4949 28.0533 70.8443 27.68C70.1989 27.3013 69.6949 26.776 69.3322 26.104C68.9749 25.4267 68.7963 24.6427 68.7963 23.752C68.7963 22.808 68.9723 21.9893 69.3243 21.296C69.6816 20.6027 70.1776 20.0667 70.8123 19.688C71.4469 19.3093 72.1856 19.12 73.0283 19.12C73.9083 19.12 74.6576 19.3253 75.2763 19.736C75.8949 20.1413 76.3563 20.72 76.6603 21.472C76.9696 22.224 77.0923 23.1173 77.0283 24.152H75.3563V23.544C75.3456 22.5413 75.1536 21.8 74.7803 21.32C74.4123 20.84 73.8496 20.6 73.0923 20.6C72.2549 20.6 71.6256 20.864 71.2043 21.392C70.7829 21.92 70.5723 22.6827 70.5723 23.68C70.5723 24.6293 70.7829 25.3653 71.2043 25.888C71.6256 26.4053 72.2336 26.664 73.0283 26.664C73.5509 26.664 74.0016 26.5467 74.3803 26.312C74.7643 26.072 75.0629 25.7307 75.2763 25.288L76.9163 25.808C76.5803 26.5813 76.0709 27.1813 75.3883 27.608C74.7056 28.0293 73.9456 28.24 73.1083 28.24ZM70.0283 24.152V22.848H76.1962V24.152H70.0283ZM82.3831 32.08C81.9191 32.08 81.4685 32.008 81.0311 31.864C80.5991 31.72 80.2045 31.5067 79.8471 31.224C79.4898 30.9467 79.1938 30.6027 78.9591 30.192L80.5031 29.408C80.6898 29.776 80.9565 30.0453 81.3031 30.216C81.6498 30.3867 82.0151 30.472 82.3991 30.472C82.8738 30.472 83.2791 30.3867 83.6151 30.216C83.9511 30.0507 84.2045 29.8 84.3751 29.464C84.5511 29.128 84.6365 28.712 84.6311 28.216V25.8H84.8311V19.36H86.3111V28.232C86.3111 28.4613 86.3031 28.68 86.2871 28.888C86.2711 29.096 86.2418 29.304 86.1991 29.512C86.0765 30.0933 85.8418 30.5733 85.4951 30.952C85.1538 31.3307 84.7165 31.6133 84.1831 31.8C83.6551 31.9867 83.0551 32.08 82.3831 32.08ZM82.2551 28.24C81.4498 28.24 80.7538 28.04 80.1671 27.64C79.5858 27.24 79.1351 26.696 78.8151 26.008C78.5005 25.3147 78.3431 24.536 78.3431 23.672C78.3431 22.8027 78.5031 22.0267 78.8231 21.344C79.1431 20.656 79.5965 20.1147 80.1831 19.72C80.7751 19.32 81.4765 19.12 82.2871 19.12C83.1031 19.12 83.7885 19.32 84.3431 19.72C84.9031 20.1147 85.3245 20.656 85.6071 21.344C85.8951 22.032 86.0391 22.808 86.0391 23.672C86.0391 24.536 85.8951 25.312 85.6071 26C85.3191 26.688 84.8951 27.2347 84.3351 27.64C83.7751 28.04 83.0818 28.24 82.2551 28.24ZM82.4871 26.728C83.0365 26.728 83.4845 26.5973 83.8311 26.336C84.1778 26.0747 84.4311 25.7147 84.5911 25.256C84.7511 24.7973 84.8311 24.2693 84.8311 23.672C84.8311 23.0747 84.7485 22.5467 84.5831 22.088C84.4231 21.6293 84.1725 21.272 83.8311 21.016C83.4951 20.76 83.0658 20.632 82.5431 20.632C81.9885 20.632 81.5325 20.768 81.1751 21.04C80.8178 21.312 80.5511 21.6773 80.3751 22.136C80.2045 22.5947 80.1191 23.1067 80.1191 23.672C80.1191 24.2427 80.2045 24.76 80.3751 25.224C80.5511 25.6827 80.8125 26.048 81.1591 26.32C81.5111 26.592 81.9538 26.728 82.4871 26.728ZM88.5575 28V19.36H90.0455V21.456L89.8375 21.184C89.9442 20.9067 90.0828 20.6533 90.2535 20.424C90.4242 20.1893 90.6215 19.9973 90.8455 19.848C91.0642 19.688 91.3068 19.5653 91.5735 19.48C91.8455 19.3893 92.1228 19.336 92.4055 19.32C92.6882 19.2987 92.9602 19.312 93.2215 19.36V20.928C92.9388 20.8533 92.6242 20.832 92.2775 20.864C91.9362 20.896 91.6215 21.0053 91.3335 21.192C91.0615 21.368 90.8455 21.5813 90.6855 21.832C90.5308 22.0827 90.4188 22.3627 90.3495 22.672C90.2802 22.976 90.2455 23.2987 90.2455 23.64V28H88.5575ZM96.935 28.24C96.295 28.24 95.759 28.1227 95.327 27.888C94.895 27.648 94.567 27.3333 94.343 26.944C94.1243 26.5493 94.015 26.1173 94.015 25.648C94.015 25.2107 94.0923 24.8267 94.247 24.496C94.4017 24.1653 94.631 23.8853 94.935 23.656C95.239 23.4213 95.6123 23.232 96.055 23.088C96.439 22.976 96.8737 22.8773 97.359 22.792C97.8443 22.7067 98.3537 22.6267 98.887 22.552C99.4257 22.4773 99.959 22.4027 100.487 22.328L99.879 22.664C99.8897 21.9867 99.7457 21.4853 99.447 21.16C99.1537 20.8293 98.647 20.664 97.927 20.664C97.4737 20.664 97.0577 20.7707 96.679 20.984C96.3003 21.192 96.0363 21.5387 95.887 22.024L94.327 21.544C94.5403 20.8027 94.9457 20.2133 95.543 19.776C96.1457 19.3387 96.9457 19.12 97.943 19.12C98.7163 19.12 99.3883 19.2533 99.959 19.52C100.535 19.7813 100.956 20.1973 101.223 20.768C101.362 21.0507 101.447 21.3493 101.479 21.664C101.511 21.9787 101.527 22.3173 101.527 22.68V28H100.047V26.024L100.335 26.28C99.9777 26.9413 99.5217 27.4347 98.967 27.76C98.4177 28.08 97.7403 28.24 96.935 28.24ZM97.231 26.872C97.7057 26.872 98.1137 26.7893 98.455 26.624C98.7963 26.4533 99.071 26.2373 99.279 25.976C99.487 25.7147 99.623 25.4427 99.687 25.16C99.7777 24.904 99.8283 24.616 99.839 24.296C99.855 23.976 99.863 23.72 99.863 23.528L100.407 23.728C99.879 23.808 99.399 23.88 98.967 23.944C98.535 24.008 98.143 24.072 97.791 24.136C97.4443 24.1947 97.135 24.2667 96.863 24.352C96.6337 24.432 96.4283 24.528 96.247 24.64C96.071 24.752 95.9297 24.888 95.823 25.048C95.7217 25.208 95.671 25.4027 95.671 25.632C95.671 25.856 95.727 26.064 95.839 26.256C95.951 26.4427 96.1217 26.592 96.351 26.704C96.5803 26.816 96.8737 26.872 97.231 26.872ZM113.956 28L113.964 22.616C113.964 21.992 113.804 21.5067 113.484 21.16C113.164 20.808 112.743 20.632 112.22 20.632C111.9 20.632 111.607 20.7067 111.34 20.856C111.079 21 110.866 21.2187 110.7 21.512C110.54 21.8 110.46 22.1627 110.46 22.6L109.652 22.192C109.642 21.584 109.77 21.0507 110.036 20.592C110.308 20.1333 110.676 19.7787 111.14 19.528C111.604 19.272 112.124 19.144 112.7 19.144C113.634 19.144 114.356 19.424 114.868 19.984C115.38 20.544 115.636 21.288 115.636 22.216L115.628 28H113.956ZM103.596 28V19.36H105.084V21.856H105.276V28H103.596ZM108.78 28L108.788 22.648C108.788 22.0187 108.628 21.5253 108.308 21.168C107.994 20.8107 107.57 20.632 107.036 20.632C106.508 20.632 106.082 20.8133 105.756 21.176C105.436 21.5387 105.276 22.0133 105.276 22.6L104.476 22.088C104.476 21.5227 104.612 21.0187 104.884 20.576C105.156 20.1333 105.524 19.784 105.988 19.528C106.452 19.272 106.978 19.144 107.564 19.144C108.178 19.144 108.7 19.2747 109.132 19.536C109.564 19.792 109.892 20.152 110.116 20.616C110.346 21.08 110.46 21.6187 110.46 22.232L110.452 28H108.78ZM124.469 28.248C123.648 28.2427 122.949 28.064 122.373 27.712C121.797 27.36 121.346 26.8533 121.021 26.192C120.701 25.5253 120.514 24.7227 120.461 23.784C120.434 23.3307 120.437 22.8293 120.469 22.28C120.501 21.7253 120.56 21.1893 120.645 20.672C120.736 20.1547 120.85 19.7227 120.989 19.376C121.144 18.992 121.354 18.64 121.621 18.32C121.888 17.9947 122.181 17.7227 122.501 17.504C122.842 17.2693 123.221 17.088 123.637 16.96C124.053 16.8267 124.488 16.7227 124.941 16.648C125.4 16.5733 125.861 16.5093 126.325 16.456C126.794 16.3973 127.25 16.3253 127.693 16.24L127.853 17.736C127.56 17.8053 127.213 17.8613 126.813 17.904C126.418 17.9467 126.008 17.9947 125.581 18.048C125.16 18.1013 124.757 18.176 124.373 18.272C123.989 18.368 123.656 18.504 123.373 18.68C122.973 18.9253 122.666 19.2827 122.453 19.752C122.245 20.2213 122.12 20.7307 122.077 21.28C122.408 20.7787 122.829 20.4187 123.341 20.2C123.853 19.976 124.384 19.864 124.933 19.864C125.701 19.864 126.362 20.0453 126.917 20.408C127.477 20.7707 127.906 21.264 128.205 21.888C128.504 22.512 128.653 23.2187 128.653 24.008C128.653 24.8613 128.477 25.608 128.125 26.248C127.778 26.8827 127.29 27.3787 126.661 27.736C126.032 28.088 125.301 28.2587 124.469 28.248ZM124.557 26.672C125.325 26.672 125.904 26.4347 126.293 25.96C126.688 25.4853 126.885 24.8533 126.885 24.064C126.885 23.2533 126.682 22.616 126.277 22.152C125.872 21.688 125.298 21.456 124.557 21.456C123.805 21.456 123.229 21.688 122.829 22.152C122.434 22.616 122.237 23.2533 122.237 24.064C122.237 24.8853 122.437 25.5253 122.837 25.984C123.237 26.4427 123.81 26.672 124.557 26.672ZM134.169 28.24C133.305 28.24 132.556 28.0453 131.921 27.656C131.286 27.2667 130.796 26.7307 130.449 26.048C130.108 25.36 129.937 24.568 129.937 23.672C129.937 22.7707 130.113 21.9787 130.465 21.296C130.817 20.608 131.31 20.0747 131.945 19.696C132.58 19.312 133.321 19.12 134.169 19.12C135.033 19.12 135.782 19.3147 136.417 19.704C137.052 20.0933 137.542 20.6293 137.889 21.312C138.236 21.9947 138.409 22.7813 138.409 23.672C138.409 24.5733 138.233 25.368 137.881 26.056C137.534 26.7387 137.044 27.2747 136.409 27.664C135.774 28.048 135.028 28.24 134.169 28.24ZM134.169 26.664C134.996 26.664 135.612 26.3867 136.017 25.832C136.428 25.272 136.633 24.552 136.633 23.672C136.633 22.7707 136.425 22.0507 136.009 21.512C135.598 20.968 134.985 20.696 134.169 20.696C133.609 20.696 133.148 20.824 132.785 21.08C132.422 21.3307 132.153 21.68 131.977 22.128C131.801 22.5707 131.713 23.0853 131.713 23.672C131.713 24.5787 131.921 25.304 132.337 25.848C132.753 26.392 133.364 26.664 134.169 26.664ZM142.211 28V20.864H139.259V19.36H146.835V20.864H143.883V28H142.211Z" fill="white"/>
<defs>
<linearGradient id="paint0_linear_737_2563" x1="8.69565" y1="3.3" x2="129.72" y2="81.4225" gradientUnits="userSpaceOnUse">
<stop stop-color="white" stop-opacity="0.3"/>
<stop offset="1" stop-color="white" stop-opacity="0.07"/>
</linearGradient>
<linearGradient id="paint1_linear_737_2563" x1="6" y1="21.8912" x2="38" y2="21.8912" gradientUnits="userSpaceOnUse">
<stop stop-color="#037F45"/>
<stop offset="1" stop-color="#08A652"/>
</linearGradient>
<clipPath id="clip0_737_2563">
<rect width="32" height="32" fill="white" transform="translate(6 6)"/>
</clipPath>
</defs>
</svg>
